<?xml version="1.0" encoding="UTF-8"?><svg id="Layer_2" xmlns="http://www.w3.org/2000/svg" viewBox="0 0 200.37 168.16"><defs><style>.cls-1{fill:#fff;}</style></defs><g id="Layer_1-2"><path class="cls-1" d="M1.53,168.01l131.9-75.46c.78-.44.65-1.6-.21-1.86l-14.74-4.46c-.85-.26-.99-1.41-.22-1.86l59.22-34.39c.88-.51.55-1.87-.48-1.9l-20.95-.73c-.96-.03-1.35-1.26-.57-1.84l44.45-33.16c.73-.54.44-1.69-.46-1.83L130.59.01c-.3-.05-.6.04-.82.24l-60.87,52.7c-.6.52-.41,1.48.34,1.74l18.06,6.17c.85.29.94,1.45.15,1.87l-54.18,28.62c-.78.41-.7,1.56.13,1.86l18.96,6.87c.66.24.89,1.06.44,1.6L.24,166.49c-.71.88.32,2.09,1.3,1.53Z"/></g></svg>