<?xml version="1.0" encoding="UTF-8"?><svg id="Layer_2" xmlns="http://www.w3.org/2000/svg" viewBox="0 0 392.35 98.14"><defs><style>.cls-1{fill:#fff;fill-rule:evenodd;}</style></defs><g id="Layer_1-2"><path class="cls-1" d="M355.69,17.41c-.11,1.59-.54,5.07-2.83,4.86-2.09-.19-5.16-2.63-4.92-6.31.07-1.04,1.08-2.98,2.28-3.67.62-.37,1.61-.36,2.38-.29,2.79.26,3.25,2.98,3.09,5.41M213.14,8.05c-5.41,4.6-10.12,3.68-14.92,4.98-.27.08-.98.74-1.05,1.32-.43,2.88-.78,5.78-1.28,8.65l-2.68,49.78c.42,2.56-.55,6.02,1.1,9.27,2.25-.17,6.07-.5,6.83-.43l4.45.42.75,1.02c-.05.71-.78,1.7-1.58,2.03-6.07,2.79-12.21,3.55-18.22,3.59-3.78.01-5.51-.15-6.29-.22-.82-.08-2.86-.64-4.6-1.64.04-.65.39-1.03.56-1.49,4.13-1.19,8.16-1.89,12.22-2.93-.8-4.86-.22-10.57-.76-15.88l1.24-47.07c-.08-1.24,1.55-5.38-1.2-5.64-.77-.07-5.57-.16-8.7-.09-.19.06-.71.12-.63-1.15.14-2.06,4.42-3.89,5.55-4,7.25-.93,14.91-2.13,22.13-2.19,3.43,0,3.94,0,4.73.08.83.08,1.29.87,2.34,1.6M316.99,14.3l-.47,7.09c-.06.87-.36,1.44-.69,2.08.28.28.66.52.83.53l23.51.34-.16,2.46c-4.5,1.42-8.77,2.1-13.04,3.08,1.07,1.07,2.4,1.3,2.26,3.38l-.52,7.8c.53.74,1.06,1.54,1.61,2.06.69.63,7.72,4.04,7.49,7.4l-1.71,25.72c-.06.89.97,3.79,2.25,4.27.15-.03.67-.47.89-.82,3.33-7.3,6.26-16.2,7.3-23.68,1.11-7.87.31-9.45.43-11.19,1.54-.3,3.18-.88,3.98-.81.73.07,2.31.59,2.19,2.4-.06.91-1,3.21-1.2,5.03-.46,3.98-1.67,14.46-1.72,15.36-.11,1.62-1.23,12.5,1.97,12.8,2.02.19,3.46-6.99,3.76-8.14,2.56-9.63,4.73-19.3,6.94-28.96.5-2.33,3.23-3.66,4.39-3.55.85.08,3.15,1.2,4.25,1.99,2.32,1.7,1.71,5.21,1.54,7.69-.42,6.41-1.46,10.65-4.11,17.3-1.12,2.83-4.17,8.09-4.23,8.99-.18,2.71,3.54,6.55,5.04,6.69,4.22.39,7.61-16.9,8.69-21.56.62-2.81,1.12-5.72,1.63-8.59l1.16-12.8c.83-.97,2.64-2.18,3.9-2.06,1.2.11,3.08.82,2.96,2.65-.06.91-.95,4.85-1.01,5.76-.57,8.59,5.76,21.93,5.19,30.48-.34,5.14-2.76,11.26-7.62,10.81-3.15-.29-6.02-3.6-7.61-7.87-1.88,4.22-4.49,7.84-8.21,7.49-5.39-.5-7.32-6.09-9.35-12.36-1.04,2.99-3.06,11.57-7.2,11.19-4.35-.41-5.58-7.29-6.93-10.8-1.01,2.6-3.6,11.28-6.74,10.99-3.34-.31-5.82-4.24-6.2-9.3-.57-8.01-.04-16.52-.31-24.92-.06-1.74-2.19-2.31-3.49-3.53-.26.32-.54.8-.69,1.35-.15.76-5.71,35.97-12.93,35.29-6.35-.59-7.19-20.29-7.25-20.75l2.52-33.31c-.15-.27-.2-.52-.74-.57-.78-.07-1.1.03-5.16-.12-1.88-.08-5.25.97-6.04.9-.91-.09-2.93-1.84-4.47-3.53.04-.58.39-.96.57-1.46,5.31-.48,10.62-.35,15.95-1.48l.59-8.85c.05-.75-.22-.88-.66-1.48.99-.99,1.38-1.34,2.25-1.25.87.08,3.05,1.43,4.39,2.38M318.19,29.27c-2.74-.38-3.49.71-3.69,3.73l-1.78,26.81c-.06.89-.15,9.99.66,14.63.25,1.48,1.12,2.75,2.22,3.9.57-.31,1.2-.84,1.56-1.44,2.46-3.98,6.94-23.05,7.43-30.39.3-4.5-1.66-8.11-1.45-11.29.11-1.72.87-4.11,1.5-5.24-.76-.67-1.57-.61-2.36-.69-.78-.07-.97.28-4.08-.02M364.94,57.79c-.87,6.6-.78,9.17-.4,10.48,2.12-4.47,4.46-14.91,4.83-20.52.06-.99.34-2.37-.65-3.72-2.74,3.95-3.24,9.54-3.79,13.75M383.26,56.7c-1.27,5.21-2.92,11.93-4.94,17.57.58.74,1.37,1.54,1.81,2.23.96,1.5,1.33,5.48,3.58,5.69,3.24.3,3.56-6.4,3.62-7.34.37-5.63-1.05-12.5-3.49-19.05-.21.3-.41.66-.58.9M260.09,6.5l-3.69,22.52-3.8,43.08c.62,2.41-.4,6.17,2.13,8.86,5.17-9.6,6.06-21.07,8.95-30.89.3-1,.27-2.47.36-3.76.87-.41,1.75-1.07,2.58-1,1.85.17,3.28,2.58,3.19,3.96-.06.91-.64,2.51-.81,3.97-1.08,8.65-1.52,12.3-1.4,19.92.04,2.82-.54,5.58,1.12,8.55l1.04.1c2.4-2.54,6.8-20.67,7.17-26.35l.58-8.82c.2-3.03-.5-6.22,3.68-5.83,1.47.14,2.62.66,2.52,2.25-.06.92-.93,2.74-1.12,3.79-.73,3.89-1.47,11.52-1.53,12.43-.44,6.59-1.36,14.31,2.16,19.24,5.52-6.43,5.57-18.54,7.72-26.23l1.16-12.79c.82-.92,2.63-2.17,3.9-2.05,2.27.21,3.04,1.44,2.9,3.56-.06.91-.88,3.76-.94,4.67-.48,7.23,5.85,20.57,5.19,30.47-.35,5.31-2.8,11.44-7.48,11.01-3.46-.32-5.34-2.62-7.58-7.88-1.54,1.09-3.55,5.01-5.24,4.85-3.06-.29-4.93-6.43-5.78-8.39-1.48,1.52-1.91,4.98-2.76,7.34-.76,2.23-4.77,3.47-5.89,3.36-4.98-.46-5.58-13.39-5.62-14-.02-.55-.06-1.05-.31-1.57-1.28,3.33-4.38,15.34-7.37,15.06-4.9-.46-5.3-6.46-6.3-9.72-2.57,4.14-3.01,11.41-7.9,10.96-3.34-.31-5.7-6.48-6.61-10.34-1.26,2.46-3.34,9.05-5.69,8.83-5.86-.55-6.55-17.69-6.58-18.49-.08-1.19-.02-3.54-.44-5.07-2.86,7.2-2.24,16.21-7.12,23.4-1.13-.56-2.36-1.04-3.58-1.69-.69-1.1-1.53-2.66-1.72-4.28-.58-5.46-.91-15.99-.84-16.93l.44-6.63c.06-.91-1.1-2.25-1.04-3.16.17-2.63,1.14-5.93,4.14-5.65,1.31.12,2.46.83,2.34,2.6-.06.91-1.33,5.91-1.39,6.82-.06.91-.08,4.19-.09,10.75-.04,2.88.53,5.82.64,9.06l.3.41c.34-.33.8-.82.91-1.3,1.52-6.39,3.34-13.16,4.56-19.67.66-3.54.43-4.7.93-9.39.2-1.83.87-3.61,1.38-5.71l1.46.14c.97.09,5.26,1.78,5.14,3.59-.06.92-.5,2.75-.83,4.21-.1.35.34.77-1.34,19.13.66,3.5-.3,8.44,2.65,12.25.32-.24.73-.46.9-.71,4.55-9.16,5.15-20,8.4-29.5,1.25-3.69,3.22-12.76,7.94-12.32.85.08,3,1.68,4.45,2.87.23-.32.43-.77.44-.96l3.48-33.6c-1.05-2.93,2.26-3.9,4.02-3.73,1.87.18,1.92,4.13,1.9,4.41M241.56,55.1c-2.36,10.29-1.72,5.94-2.22,13.44-.31,4.69-.94,8.29,1.46,13.46.51-.11,1.41-.83,1.74-1.45.7-1.24,5.74-14.38,6-18.24l.97-14.63c.14-2.07-.9-2.96-2.93-3.15-3.16-.3-4.7,9.14-5.02,10.57M292.51,64.62c-.9,3.55-3.02,9.53-3.08,10.43-.06.88,2.63,4.77,3.87,6.75.36.56.86.82,1.58.89,2.44.23,3.47-5.03,3.52-5.71.46-6.9-1.35-13.53-3.66-20.53-1.08,2.38-1.7,6.03-2.23,8.17"/><path class="cls-1" d="M154.81,15.76c-.06.93-.09,3.19-1.05,11-.36,2.98-1.03,6.36-1.73,9.64-1.09,4.8-2.46,9.61-4.18,14.3-1.75,4.68-6.54,13.35-6.6,14.27-.34,5.06,3.29,17.19,7.53,17.59.73.07,1.8-1.96,2.23-2.94,2.97-6.77,4.8-13.7,6.63-20.71.75-2.81,1.4-7.53,2.86-10.53,0,0,1.58-.32,2.4.22,1.73,1.15-.35,5.92-.35,5.92-.27,4.09-7.95,27.87-8.89,29.78-1.84,3.61-4.1,3.96-6.37,3.74-7.1-.66-8.09-12.36-9.99-16.74-2.68,4.71-3.92,17.7-11.44,17-10.82-1.01-10.27-19.85-9.97-24.39.22-3.28,2.4-24.36,8.02-23.83.87.08,3.08,1.07,4.51,2.06,2.43,1.65,1.76,5.35,1.59,7.9-.47,7.15-1.35,9.87-4.21,17.74-1.07,2.96-4.28,8.31-4.34,9.23-.12,1.79,3.71,6.73,5.02,6.85,2.7.25,5.17-8.49,5.57-9.72,1.81-5.44,3.21-10.92,4.54-16.4l3.19-33.47c1.44-7.02,3.05-14.37,4.4-21.37.08-.45.67-1.18,1.23-1.96.71-.05,1.72-.34,2.53-.26,7.16.67,7.19,10.5,6.89,15.09M148.9,8.8c-.51,2.34-6.67,31.66-7.01,36.77l-.4,6c.19.11.38.31.56.53,2.45-3.77,7.38-23.12,7.92-31.34.31-4.66.68-6.3-.6-12.49-.17.18-.34.36-.48.53M121.67,59.05c-.95,7.1-.84,9.76-.44,11.11,2.32-5.01,4.17-13.93,4.53-19.4.04-.64.2-3.76-.57-5.09-2.43,3.83-2.9,8.76-3.52,13.37"/><path class="cls-1" d="M104.24,9.2c-.06.94-.99,4.06-1.3,6.29-.83,5.92-2.23,17.8-4.47,37.09,0,.16.08.48.21.79,2.47-5.19,2.25-9.96,7.61-9.45,4.2.39,6.97,6.02,6.53,10.75-.51,5.2-.21,8.04-.28,8.97-.13,2.04-3.12,27.85-9.21,27.28-2.18-.2-4.27-3.86-5.18-5.25-.54.41-.94,1.33-2.01,2.03-3.87-3.44-3.28-3.98-3.05-7.49.06-.93-.1-3.39,0-4.88.01-.16-.07-.33-.18-.5-1.26,3-3.85,13.63-7.59,13.28-2.93-.27-5.01-4.59-6.12-7.33-1.77,3.27-2.18,10.31-7.73,9.79-6.43-.6-6.23-17.65-6.1-19.71.53-7.96,4.08-26.04,7.6-28.94,2.1.25,5.51.22,7.41,3.56.53.88.88,2.98,2.03,4,.74.66,2.16.68,3.31,1.25-1.13,6.94-3.35,20.97-3.41,21.9-.21,3.12.72,7.48,2.35,10.52.49-.06,1.15-.54,1.45-1.14,4.14-8.06,5.38-18.27,7.33-26.59l4.29-45.25c-1.61-4.17,2.19-5.14,4.2-4.96,1.8.17,2.34,3.47,2.31,3.97M70.77,71.52c-.06.93-.14,3.36-.25,8.59-.05,1.25.61,4.51,2.19,5.44.63-.33,1.55-1.09,2-2.17,2.15-5.21,3.11-11.27,4.11-16.78l1.07-11.39c-1.07-2.29-1.55-4.86-2.32-7.03-.2-.06-.4-.08-1.06-.14-3.14-.29-5.71,22.98-5.74,23.48M98.34,78.77c-.1,1.49,4.29,6.45,4.4,6.46,3.48.32,5.03-17.62,5.12-18.85.06-.93.27-3.53.36-10.27.02-.84.64-7.47-1.74-7.69-3.97-.37-7.69,23.63-7.69,23.72l-.44,6.62Z"/><path class="cls-1" d="M68.85,23.35c-.68,10.29-15.03,18.77-22.39,23.08-.19,1.46-.62,3.38-.67,4.27l-.42,6.31-2.32,15.55c-.09,1.6,2.07,2.2,3.17,3.05,6.34,5.04,13.07,10.41,19.9,15.5,1.69,1.28,5.4,3.23,6.11,3.29l5.87.55c-1.27,3-4.58,3.33-6.48,3.15-5.52-.52-15.48-8.74-20.26-12.35-3.29-2.51-6.61-4.75-9.93-6.9-.26.33-.53.83-.74,1.13-2.72,11.1-13.54,12.47-19.36,11.93-7.24-.68-17.14-8.68-19.93-18.98-.5-1.91-1.46-5.63-1.39-6.65.09-1.29,3.1-6.77,4.25-7.01,2.22-.51,6.54-.25,7.34-.17,8.04.75,18.67,5.47,25.77,9.8.86-1.84,1.65-8.11,1.71-9.12.06-.93.24-2.97.25-8.58.02-1.27.15-2.26-1.13-2.38-.8-.08-4.46,1.08-5.26,1.01l-4.57-.43c-.39-.53-.95-1.29-1.68-1.8.07-1.13.88-2.29,1.69-3.39,4.06,1.04,9.88,1.8,11.42-1.41C40.96,40.32,42.91-1.03,54.14.02c7.74.72,15.03,18.47,14.71,23.33M53.71,9.21c-.42.59-.76,1.77-.95,2.42-3.03,9.01-4.21,18.21-5.85,27.36l.33.46c10.52-5.13,14.11-9.75,14.69-18.44.23-3.53-1.41-12.89-6.84-13.4-.7-.06-.91.98-1.38,1.6M5.65,66.05c-.34,5.13,8.19,16.8,12.06,18.64,3.09,1.45,3.97,1.62,6.38,1.84.78.08,3.03.48,4.56-.06,4.88-1.69,7.34-6.89,7.56-10.25.16-2.44-.7-1.73-3.14-3.67-6.9-5.48-15.23-8.36-23.06-9.09-.84-.08-4.26,1.17-4.36,2.6"/></g></svg>