<?xml version="1.0" encoding="UTF-8"?><svg id="Layer_2" xmlns="http://www.w3.org/2000/svg" viewBox="0 0 205.26 172.26"><defs><style>.cls-1{fill:#231f20;}</style></defs><g id="Layer_1-2"><path class="cls-1" d="M1.57,172.12l135.12-77.3c.8-.46.66-1.64-.22-1.91l-15.1-4.57c-.87-.26-1.01-1.44-.22-1.9l60.67-35.23c.91-.53.56-1.91-.49-1.95l-21.46-.75c-.99-.03-1.38-1.29-.59-1.88l45.54-33.97c.74-.55.45-1.73-.47-1.87L133.78.01c-.3-.05-.61.04-.84.24l-62.35,53.99c-.61.53-.42,1.52.35,1.78l18.5,6.32c.87.3.96,1.48.15,1.91l-55.5,29.31c-.8.42-.72,1.6.13,1.91l19.43,7.04c.68.24.91,1.08.46,1.64L.24,170.55c-.73.9.33,2.14,1.33,1.56Z"/></g></svg>