<?xml version="1.0" encoding="UTF-8"?><svg id="Layer_2" xmlns="http://www.w3.org/2000/svg" viewBox="0 0 418.95 100.63"><defs><style>.cls-1{fill:#231f20;}</style></defs><g id="Layer_1-2"><path class="cls-1" d="M38.02,82.42c-1.89,1.75-4.06,3-6.49,3.79-2.2.72-4.46,1.06-6.77,1.01-1.53-.04-2.94-.47-4.23-1.28-.63-.4-1.21-.86-1.76-1.37-1.05-.97-2.13-1.93-3.21-2.87-1.01-.88-2.17-1.51-3.44-1.91-.7-.22-1.46-.27-2.2-.39-.11-.02-.23,0-.34.02-1.26.17-2.48.47-3.59,1.12-.4.23-.82.41-1.24.61-.1.05-.21.09-.32.11-.12.03-.22-.02-.27-.14-.02-.04,0-.13.03-.16,1.43-1.57,3.2-2.58,5.17-3.3.98-.35,1.99-.58,3.01-.68,1.74-.16,3.44-.02,5.06.71.37.17.75.3,1.12.44.7.26,1.39.54,2.11.75.66.19,1.31.43,2.01.46,1.38.07,2.75.05,4.1-.31,1.73-.47,3.36-1.16,4.87-2.14.39-.25.72-.57.98-.96.81-1.25,1.24-2.58.85-4.08-.06-.22-.07-.46-.13-.68-.15-.56-.41-1.07-.79-1.52-.45-.53-.99-.96-1.63-1.25-1.55-.7-3.17-1-4.87-.78-1.53.2-3.08.38-4.59.7-1.2.26-2.39.29-3.59.28-.94,0-1.81-.25-2.67-.61-1.93-.8-3.37-2.15-4.43-3.93-.01-.02.03-.1.06-.12.04-.03.11-.06.15-.05.68.17,1.28.49,1.86.86.53.34,1.09.65,1.72.78,1.14.22,2.28.2,3.4-.19,1.04-.36,1.99-.88,2.94-1.42,1.65-.93,3.29-1.88,4.93-2.82,1.15-.66,2.37-1.16,3.63-1.55.93-.29,1.87-.55,2.86-.56.23,0,.47,0,.69-.06,1.02-.24,2.05-.24,3.08-.27,1.5-.04,2.96-.28,4.42-.63,2.94-.7,5.41-2.18,7.36-4.5.9-1.07,1.55-2.28,1.87-3.64.21-.91.19-1.81-.12-2.71-.63-1.81-1.88-3-3.63-3.67-1.23-.48-2.54-.71-3.86-.78-.8-.04-1.61-.01-2.41-.12-.86-.12-1.72-.14-2.58-.15-2.41-.02-4.82-.04-7.24-.05-1.51,0-2.96-.35-4.39-.79-.71-.22-1.32-.71-2.1-.72-.83-.4-1.65-.82-2.28-1.51-.08-.08-.16-.19-.17-.29-.02-.16,0-.34.04-.5.03-.12.33-.24.44-.21.17.04.34.06.5.13.52.23,1.04.48,1.56.73.83.41,1.68.73,2.58.96,1.28.33,2.58.6,3.91.47.97-.09,1.94-.22,2.89-.44,1.9-.45,3.76-1.04,5.62-1.61,1.26-.39,2.52-.79,3.78-1.17,1.38-.42,2.81-.55,4.23-.73.28-.03.57,0,.86.04.34.04.68.12,1.02.16,1.8.23,3.43.88,4.92,1.92.95.66,1.79,1.44,2.59,2.26,1.29,1.32,2.63,2.56,4.05,3.74.58.48,1.18.92,1.88,1.2.26.11.54.19.82.22.69.08,1.38.05,2.05-.11,2.57-.6,5.1-1.34,7.56-2.31,2.19-.86,4.37-1.74,6.56-2.59,1.5-.58,2.98-1.2,4.53-1.64,1.11-.31,2.21-.61,3.37-.64.4,0,.8-.06,1.2-.12.46-.08.91-.08,1.37,0,.34.06.68.11,1.03.11,1.1,0,2.16.29,3.22.52,1.01.22,2,.52,3,.76,1,.24,1.99.55,3.04.55,1.02.26,2.04.12,3.07,0,1.75-.21,3.34-.79,4.81-1.73.53-.34,1.03-.73,1.54-1.1,1.94-1.44,3.97-2.74,6.25-3.58,1.95-.72,3.93-1.26,6.03-1.29.29,0,.57-.02.86-.03,2.43-.08,4.81.21,7.14.9,2.09.62,4.18,1.23,6.26,1.88,3.78,1.17,7.56,2.35,11.34,3.53.88.27,1.75.55,2.62.84,1.95.67,3.95.76,5.95.44,1.92-.3,3.83-.71,5.71-1.23,1.57-.43,3-1.14,4.37-1.98.39-.24.75-.54,1.09-.84.7-.63,1.24-1.38,1.42-2.31.21-1.09.14-2.17-.42-3.18-.25-.45-.52-.89-.88-1.27-.63-.67-1.31-1.28-2.09-1.78-1.07-.68-2.19-1.26-3.35-1.76-2.24-.97-4.59-1.46-7.03-1.46-3.68-.01-7.35.01-11.03.02-.46,0-.91.06-1.37.14-1.58.3-3.16.55-4.74.85-1.86.36-3.72.7-5.56,1.15-.89.22-1.8.36-2.69.58-.95.24-1.93.26-2.89.43-.8.14-1.59.2-2.4.22-2.87.09-5.74.06-8.62,0-1.15-.02-2.3.01-3.43-.26-.17-.04-.34-.03-.51-.05-.97-.06-1.95-.06-2.9-.34-2.36-.35-4-.67-6.4-1.28-1.67-.42-3.34-.84-5.07-.89-.28,0-.57-.08-.85-.12-1.14-.15-2.29-.15-3.43,0-.51.06-1.03.12-1.54.17-.29.03-.58.03-.86.08-2.32.43-4.58,1.07-6.74,2.04-1.41.64-2.85,1.21-4.28,1.81-1.59.67-3.22,1.2-4.87,1.71-2.09.64-4.25,1-6.42,1.19-2.29.2-4.59.1-6.89,0-.06,0-.12,0-.17-.02-1.4-.3-2.85-.31-4.26-.6-2.14-.44-4.25-.97-6.29-1.74-1.56-.59-3.07-1.3-4.53-2.09-1.42-.77-2.9-1.38-4.4-1.96-.53-.21-1.07-.4-1.66-.43-.93-.04-1.82.05-2.69.44-1.88.85-3.79,1.65-5.72,2.39-1.71.66-3.42,1.33-5.14,1.99-1.52.58-3.1.8-4.73.75-1.16-.04-2.27-.27-3.36-.67-.81-.29-1.6-.63-2.37-1.02-.92-.47-1.84-.95-2.79-1.36-1.75-.76-3.57-1.25-5.51-1.19-.46.01-.92,0-1.38.03-.57.02-1.13.11-1.7.25-1.24.29-2.41.74-3.51,1.37-.19.11-.4.18-.6.26,0,0-.08-.09-.08-.13.02-.11.05-.23.11-.32.64-.83,1.42-1.5,2.31-2.04,2.21-1.35,4.6-2.02,7.19-2.03,1.33,0,2.63.24,3.92.47,1.75.31,3.49.66,5.21,1.12.66.18,1.35.3,2.03.36.68.06,1.38.08,2.06,0,1.84-.21,3.58-.78,5.17-1.76.93-.57,1.87-1.12,2.82-1.66,2.06-1.17,4.22-2.04,6.57-2.46,1.38-.25,2.74-.22,4.11-.16,1.46.34,2.98.21,4.43.59,1.1.05,2.16.32,3.22.55,2.57.57,5.13,1.22,7.73,1.67,1.41.25,2.81.56,4.25.61.23,0,.46.05.68.08,2,.28,4,.29,5.99-.1,2.14-.42,3.81-1.54,5.05-3.31.39-.57.7-1.19.93-1.84.58-1.65.44-2.91-.69-4.16-.12-.13-.22-.26-.35-.38-1.03-.92-2.09-1.79-3.34-2.41-2.3-1.13-4.73-1.75-7.29-1.79-.92-.01-1.85-.03-2.75.1-1.93.29-3.83.72-5.63,1.53-.42.19-.86.33-1.28.51-2.28.95-4.55,1.9-6.88,2.73-.7.25-1.41.51-2.15.59-1.44.15-2.86.04-4.25-.43-1.9-.64-3.49-1.72-4.76-3.27-.73-.89-1.44-1.79-2.12-2.71-.72-.99-1.62-1.78-2.61-2.48-1-.71-2.11-1.22-3.31-1.36-1.54-.18-3.09-.21-4.62.18-.78.2-1.57.37-2.36.44-.85.08-1.72.06-2.58.04-1.48-.04-2.79-.58-4.02-1.37-1.37-.88-1.68-2.24-1.67-3.74,0-.11.07-.22.12-.32.02-.05.07-.09.12-.12.03-.01.11,0,.12.03.22.4.43.81.65,1.21.19.35.38.71.6,1.04.33.49.77.85,1.32,1.07.76.3,1.55.46,2.35.42.91-.05,1.84-.15,2.73-.34,2.58-.54,5.17-1.01,7.77-1.49,1.02-.19,2.07-.21,3.09-.02,1.47.28,2.89.75,4.15,1.59.76.51,1.52,1.03,2.27,1.56,2.23,1.58,4.7,2.36,7.44,2.21.97-.05,1.93-.25,2.87-.51,1.88-.52,3.75-1.06,5.63-1.6,1.65-.48,3.3-.97,4.95-1.45,1.65-.47,3.33-.87,5.03-1.14,1.41-.22,2.83-.5,4.27-.49.51,0,1.03-.1,1.54-.15,1.03-.1,2.06-.11,3.09,0,.34.04.68.11,1.02.13,1.15.06,2.28.18,3.42.38,2.17.38,4.24,1.01,6.16,2.09,1.3.73,2.57,1.52,3.76,2.42.78.59,1.51,1.24,2.26,1.86,1.11.91,2.14,1.92,3.08,3.01,1.84,2.15,3.93,4.03,6.08,5.85.74.63,1.56,1.18,2.37,1.71,1.01.66,2.1,1.18,3.27,1.52.94.27,1.86.59,2.81.8,2.91.64,5.83,1.25,8.81,1.51.23.02.46.05.68.11.5.14,1.02.16,1.53.2.51.04,1.02.13,1.53.19.28.04.57.09.85.1,1.26.01,2.53.06,3.79,0,.97-.05,1.94-.19,2.9-.36,2.94-.54,5.79-1.42,8.59-2.46.66-.25,1.21-.64,1.7-1.15.7-.72,1.14-1.58,1.46-2.51.17-.5.18-1.03.09-1.53-.12-.64-.42-1.19-.97-1.58-.52-.36-1.08-.65-1.71-.8-1.39-.34-2.8-.62-4.24-.66-2.3-.06-4.59-.06-6.89-.09,0,.02,0,.04,0,.06-1.67,0-3.33,0-5,0-1.32,0-2.64.04-3.95-.23-.17-.03-.34-.03-.52-.04-1.15-.05-2.3-.06-3.42-.35-1.44-.08-2.83-.45-4.23-.76-1.46-.32-2.87-.81-4.24-1.41-1-.44-1.95-.99-2.83-1.64-1.3-.96-2.43-2.1-3.37-3.42-.6-.84-1.23-1.66-1.83-2.5-.47-.65-.91-1.32-1.36-1.99-.02-.04-.04-.11-.02-.14.08-.1.19-.11.3-.05,1.25.71,2.48,1.44,3.67,2.25,1.09.75,2.23,1.42,3.43,1.97,1.42.65,2.89,1.09,4.46,1.19.34.02.69.05,1.02.13.57.13,1.14.15,1.71.17,1.26.05,2.53.01,3.77.28.17.04.34.03.52.04,2.64.1,5.28.17,7.92.05.4-.02.81-.02,1.2-.11.68-.16,1.36-.19,2.05-.25.74-.07,1.48-.19,2.22-.29.17-.02.34-.02.52-.03.63-.03,1.26-.06,1.88-.2.33-.08.68-.09,1.03-.11,1.15-.07,2.3-.05,3.43-.3.22-.05.46-.04.69-.05,2.35-.08,4.71-.13,7.06-.03.34.01.69,0,1.03.07,1.53.25,3.06.5,4.58.78,1.41.26,2.81.58,4.21.84,2.6.48,5.14,1.17,7.66,1.96,3.23,1.01,6.42,2.15,9.59,3.34,2.2.82,4.45,1.53,6.55,2.62.97.5,1.95.98,2.92,1.48,4.61,2.34,9.21,4.69,13.82,7.02,1.9.96,3.82,1.86,5.78,2.67,2.45,1,4.93,1.9,7.49,2.53,1.73.42,3.45.86,5.25.88.29,0,.57.04.86.09.57.11,1.14.1,1.71,0,.34-.06.68-.09,1.03-.1,1.34-.03,2.6-.41,3.86-.82.43-.14.85-.36,1.25-.56.73-.38,1.3-.94,1.71-1.65.56-.95.89-1.99,1.07-3.07.04-.22.04-.46,0-.68-.18-.86-.56-1.63-1.22-2.23-.21-.19-.45-.36-.67-.54-1.28-1.01-2.75-1.66-4.26-2.22-2.54-.94-5.15-1.59-7.85-1.83-.23-.02-.46-.04-.68-.09-1.29-.29-2.62-.29-3.92-.51-.79-.14-1.59-.2-2.38-.32-.79-.13-1.59-.22-2.38-.35-1.94-.33-3.78-.95-5.55-1.78-1.72-.81-3.36-1.75-4.96-2.76-1.22-.77-2.36-1.64-3.34-2.7-.62-.68-1.22-1.38-1.77-2.11-.55-.73-1.04-1.51-1.54-2.28-.19-.29-.35-.59-.38-.95,0-.13,0-.24.12-.3.04-.02.11-.01.15,0,2.05,1.15,4.04,2.41,6.02,3.68,1.46.93,2.95,1.77,4.54,2.46,3.29,1.42,6.71,2.34,10.28,2.67.23.02.46.02.68.08.79.2,1.59.21,2.4.21,1.67,0,3.33,0,5-.02.52,0,1.04-.03,1.54-.12.63-.11,1.25-.15,1.89-.16,2.87,0,5.74,0,8.62.01.34,0,.7-.01,1.03.05,1.25.23,2.52.21,3.78.24,1.85.03,3.66.3,5.44.74,1.95.48,3.82,1.21,5.56,2.26,1.73,1.04,3.38,2.18,4.98,3.4,1.42,1.08,2.79,2.22,4.08,3.45,1.67,1.59,3.17,3.32,4.6,5.12.78.99,1.62,1.94,2.48,2.87.98,1.05,2.02,2.04,3,3.09.73.77,1.58,1.32,2.55,1.72,1.76.71,3.53,1.38,5.35,1.89,1.77.49,3.55.93,5.39,1.03.29.02.57.08.85.11.46.05.91.09,1.37.13,1.67.13,3.33-.14,4.97-.38,1.41-.2,2.82-.52,4.18-1,1.41-.49,2.86-.85,4.31-1.2,2.12-.52,4.27-.9,6.46-.89,1.44,0,2.87.04,4.31.06,1.44.01,2.85.33,4.27.53,1.3.18,2.58.55,3.91.6.17,0,.34.03.51.07,1.45.34,2.85-.02,4.25-.33.39-.09.76-.25,1.13-.41.56-.23.92-.66,1.15-1.22.23-.58.1-.98-.47-1.28-.26-.13-.51-.26-.78-.37-2.16-.93-4.27-1.98-6.36-3.06-1.33-.68-2.74-1.18-4.18-1.57-1.33-.36-2.68-.63-4.07-.62-.46,0-.92,0-1.38,0-1.8-.05-3.54.26-5.26.74-.88.24-1.76.51-2.63.8-2.07.69-4.16,1.29-6.29,1.76-1.58.35-3.16.56-4.78.53-1.81-.04-3.51-.47-5.14-1.26-1.31-.64-2.44-1.5-3.46-2.53-1.5-1.5-2.99-3.02-4.49-4.53-.65-.65-1.31-1.29-1.98-1.91-.93-.87-1.98-1.58-3.16-2.06-1.45-.59-2.94-.96-4.53-.6-.86.19-1.71.11-2.54-.19-.18-.07-.24-.24-.13-.39.49-.68,1.14-1.11,1.95-1.32.56-.15,1.12-.23,1.7-.27,1.45-.1,2.87.07,4.27.42,3.34.82,6.66,1.73,9.91,2.86,1.68.58,3.37,1.13,5.06,1.7,1.15.39,2.33.59,3.55.55.34,0,.69-.02,1.03-.01,1.41.01,2.72-.41,3.99-.95.98-.41,1.75-1.09,2.3-2,.57-.94.63-1.97.38-3-.18-.73-.55-1.39-1.06-1.95-1.03-1.14-2.28-1.92-3.78-2.26-1.62-.37-3.25-.7-4.93-.71-.29,0-.58,0-.86-.06-.97-.2-1.94-.18-2.92-.19-1.61-.02-3.22-.02-4.82-.06-2.35-.05-4.71.05-7.05-.23-1.02-.12-2.07-.07-3.1-.11-.46-.02-.93.01-1.37-.09-1.18-.28-2.41-.19-3.57-.54-1.89-.21-3.72-.7-5.55-1.17-1.28-.33-2.51-.8-3.64-1.52-1.56-.99-2.98-2.15-4.21-3.53-.07-.08-.12-.19-.16-.3-.02-.04-.01-.11,0-.16.06-.13.16-.18.28-.1.34.21.68.42,1.02.64,3.07,2.05,6.47,3.19,10.09,3.71,1.47.21,2.95.48,4.45.45.34,0,.68.07,1.03.11.4.04.8.1,1.2.1,1.89,0,3.79.13,5.67-.18.17-.03.34-.03.52-.03,1.38-.06,2.76-.03,4.11-.34.11-.03.23-.02.34-.03.8-.04,1.6-.1,2.39-.28.78-.17,1.6-.1,2.39-.33.33-.09.68-.08,1.02-.12.34-.03.7-.02,1.03-.1.79-.2,1.59-.23,2.39-.27.4-.02.81-.02,1.2-.11.74-.16,1.48-.16,2.23-.17,1.44-.02,2.86.06,4.29.25,1.6.21,3.16.53,4.68,1.09,1.63.59,3.16,1.39,4.51,2.48,2.2,1.77,4.22,3.73,6.09,5.83,1.26,1.42,2.6,2.75,4.04,3.98,1.23,1.05,2.55,1.95,3.95,2.75,3.11,1.77,6.42,3.06,9.9,3.91,2.24.54,6.81,1.41,9.11,1.79.96.16,1.94.24,2.89.42.57.11,1.13.18,1.71.21.57.03,1.14.08,1.71.2.45.09.91.1,1.37.13,1.15.06,2.3.03,3.43.26.28.06.57.04.86.04,1.09.01,2.18,0,3.27.03,1.24.04,4.2-.33,5.63-.66,1.91-.44,3.74-1.09,5.5-1.95,1.2-.58,2.28-1.35,3.15-2.36,1.05-1.24,1.5-2.64,1.12-4.31-.34-1.51-1.16-2.64-2.43-3.4-2.15-1.27-4.49-2.02-7-2.2-.69-.05-1.38-.04-2.06-.14-.63-.09-1.26-.13-1.89-.14-2.24-.04-4.48-.08-6.72-.11-.52,0-1.04.02-1.55-.06-.8-.12-1.6-.12-2.41-.14-1.55-.03-3.1-.05-4.65-.09-1.15-.03-2.3,0-3.43-.25-.17-.04-.34-.03-.51-.04-1.26-.07-2.53-.05-3.77-.35-.17-.04-.34-.04-.51-.04-1.1,0-2.15-.38-3.24-.45-3.47-.79-6.63-2.18-9.36-4.52-1.28-1.09-2.35-2.35-3.35-3.68-.1-.14-.17-.3-.23-.46-.02-.05-.02-.12,0-.17.07-.13.16-.11.3-.06,1.62.59,3.19,1.29,4.72,2.1.96.51,1.93,1.02,2.91,1.49.67.32,1.35.64,2.06.87,2.84.93,5.74,1.6,8.72,1.88.23.02.46.03.68.09.73.19,1.48.2,2.23.21,1.55,0,3.1,0,4.65,0,.46,0,.93,0,1.37-.08.91-.19,1.82-.21,2.74-.25.34-.02.7,0,1.03-.08.85-.2,1.71-.22,2.57-.27.34-.02.7-.02,1.03-.1.68-.16,1.36-.19,2.05-.23.34-.02.7-.02,1.03-.1.73-.18,1.48-.2,2.22-.25.34-.02.69-.04,1.02-.12.73-.19,1.48-.16,2.22-.24.74-.08,1.48-.2,2.22-.29.06,0,.11,0,.17-.01,2.41-.15,4.82-.12,7.23.02.23.01.46.02.69.06,1.69.31,3.39.57,5.07.95,2.27.51,4.36,1.4,6.31,2.66,1.5.97,2.91,2.04,4.21,3.28.83.79,1.64,1.61,2.48,2.39,1.94,1.79,3.99,3.46,6.07,5.08.41.32.83.61,1.27.89,1.56.97,3.26,1.39,5.1,1.22.99-.09,1.67-.79,1.73-1.81.01-.23.01-.46.02-.69.02-.91-.3-1.69-.91-2.35-.35-.38-.73-.74-1.16-1.02-1.06-.7-2.03-1.5-2.95-2.37-.29-.28-.62-.52-.91-.79-1.01-.94-2.01-1.89-3.01-2.84-.42-.4-.75-.87-1.02-1.38-.32-.61-.6-1.24-.83-1.89-.4-1.12-.42-2.25-.23-3.4.07-.45.25-.88.56-1.24.03-.04.1-.06.16-.06.04,0,.1.04.11.07.15.43.27.87.43,1.31.48,1.37,1.2,2.6,2.24,3.64.9.9,1.92,1.63,3.02,2.26,1.92,1.09,3.99,1.74,6.13,2.21,1.9.42,3.84.68,5.76,1.01,1.64.28,3.26.64,4.88,1.03,2.3.55,4.24,1.71,5.94,3.32,2.21,2.09,3.76,4.61,4.8,7.46.48,1.31.75,2.64.77,4.03.03,2.81.03,5.63-.1,8.44-.02.46-.08.91-.16,1.36-.3,1.62-.17,3.19.36,4.75.32.93.76,1.8,1.24,2.65.45.8.9,1.6,1.37,2.39,1.72,2.86,3.08,5.9,4.28,9.01.31.81.56,1.63.74,2.47.14.68.12,1.36-.06,2.05-.31,1.19-.87,2.24-1.72,3.13-1.51,1.58-3.11,3.07-5,4.19-.99.59-1.93,1.24-2.82,1.97-2.37,1.96-4.04,4.37-4.78,7.38-.23.95-.46,1.89-.71,2.84-.29,1.11-.57,2.22-.95,3.3-1.25,3.51-3.36,6.37-6.36,8.59-1.76,1.31-3.67,2.36-5.67,3.24-1.05.46-2.12.89-3.19,1.29-1.67.62-3.38,1.11-5.17,1.24-.23.02-.46.04-.68.09-.62.16-1.25.15-1.88.17-.87.02-1.71-.15-2.57-.23-1.62-.15-3.16-.57-4.68-1.11-2.82-.99-5.6-2.08-8.34-3.24-2.28-.96-4.59-1.82-6.94-2.57-1.47-.47-2.96-.92-4.5-1.14-.88-.3-1.82-.24-2.71-.44-.57-.12-1.14-.17-1.71-.18-.63-.01-1.26-.02-1.9-.02-1.26,0-2.53-.03-3.77.26-.33.08-.69.05-1.03.09-.34.04-.69.07-1.02.14-.84.16-1.68.34-2.53.51-2.64.52-5.27,1.13-7.84,1.95-2.19.69-4.34,1.49-6.4,2.52-.41.21-.82.41-1.24.6-.12.06-.23.03-.3-.06-.03-.04-.06-.1-.05-.15.19-.84.52-1.63.98-2.37.74-1.2,1.73-2.15,2.85-2.96.93-.67,1.88-1.33,2.86-1.92,1.92-1.15,3.94-2.12,6.09-2.78,2.09-.64,4.22-1.06,6.4-1.27.29-.03.58-.02.86-.09.73-.18,1.47-.23,2.22-.27.29-.02.57-.08.85-.12.45-.06.91-.17,1.36-.18.98-.04,1.93-.29,2.89-.46.67-.12,1.32-.39,1.97-.61.44-.15.8-.44,1.12-.78.45-.5.62-1.09.55-1.75-.08-.71-.38-1.32-.93-1.79-.61-.53-1.29-.96-2.06-1.22-.71-.23-1.41-.48-2.12-.72-1.52-.52-3.07-.95-4.66-1.21-1.6-.27-3.21-.25-4.8-.03-1.42.19-2.82.49-4.22.8-3.15.7-6.19,1.71-9.1,3.11-1.34.65-2.69,1.3-4.02,1.97-2.77,1.38-5.54,2.79-8.35,4.1-3.28,1.53-6.57,3.02-9.92,4.39-4.46,1.83-8.97,3.53-13.58,4.94-1.98.61-3.98,1.11-6.01,1.48-1.29.23-2.59.51-3.92.49-.34,0-.69.05-1.03.1-1.37.19-2.74.22-4.11-.05-.34-.07-.69-.07-1.03-.11-.28-.04-.57-.08-.85-.15-1.92-.47-3.68-1.29-5.34-2.33-.63-.4-1.21-.87-1.8-1.34-.54-.43-1.02-.93-1.33-1.56-.07-.15-.16-.29-.11-.47.03-.12.17-.11.44.05.25.14.49.29.74.44,3.04,1.76,6.29,2.76,9.83,2.71.46,0,.92-.02,1.38,0,1.56.07,3.1-.19,4.62-.44,2.32-.39,4.57-1.08,6.76-1.95,2.55-1.01,4.8-2.46,6.78-4.33,1.55-1.47,2.28-3.27,2.13-5.42-.04-.54-.24-1-.6-1.39-.27-.3-.58-.56-.95-.73-.52-.23-1.04-.5-1.59-.66-1.87-.55-3.76-1.04-5.67-1.41-.9-.17-1.82-.25-2.72-.42-.91-.17-1.82-.24-2.74-.24-1.84,0-3.68.02-5.51.04-.4,0-.81,0-1.2.09-.85.19-1.71.2-2.57.26-.29.02-.58.02-.86.09-1.29.3-2.63.22-3.92.55-2.16.25-4.14.66-6.22,1.29-4.17,1.25-7.97,3.23-11.44,5.85-1.42,1.07-2.83,2.16-4.27,3.21-2.47,1.8-5.08,3.35-7.93,4.46-3.34,1.3-6.78,2.12-10.39,2.16-1.32.01-2.64-.03-3.96-.02-1.45.01-2.84-.35-4.27-.49-2.92-.59-5.83-1.22-8.74-1.88-1.4-.32-2.81-.56-4.24-.73-.97-.12-1.95-.09-2.91-.27-.28-.05-.57-.02-.86-.03-.93-.06-1.83.17-2.74.21-1.5.07-2.96.39-4.4.78-3.78,1.01-6.94,2.97-9.32,6.12-.31.41-.64.81-.97,1.21-.07.08-.17.16-.28.2-.1.03-.23.03-.32-.02-.26-.16-.4-.42-.42-.71-.05-.8-.09-1.6-.1-2.41-.02-1.03.37-1.91,1.01-2.68.82-.97,1.69-1.88,2.71-2.64,1.57-1.18,3.28-2.11,5.14-2.75,2.62-.9,5.31-1.45,8.09-1.44,1.84,0,3.68-.09,5.49.32,1.37.11,2.72.42,4.07.64,1.53.24,3.03.61,4.57.83.85.12,1.7.28,2.54.43,1.3.23,2.59.49,3.91.6.23.02.46.05.68.11.5.14,1.02.16,1.53.2.63.05,1.26.12,1.88.2.63.07,1.26.08,1.89-.01.51-.07,1.03-.12,1.54-.19.28-.04.57-.06.85-.12,1.47-.31,2.88-.77,4.23-1.42.67-.32,1.31-.71,1.94-1.11.54-.34,1.01-.79,1.25-1.39.29-.69.47-1.42.38-2.18-.16-1.32-.49-2.6-1.27-3.71-.23-.33-.48-.65-.77-.92-.77-.7-1.66-1.25-2.67-1.53-1.44-.39-2.91-.72-4.4-.77-2.81-.1-5.63-.17-8.43.22-.28.04-.57.04-.86.05-1.15.05-2.3.04-3.43.3-.33.08-.69.05-1.03.08-.34.03-.7,0-1.03.09-1.12.29-2.29.22-3.39.55-2.28.26-4.51.82-6.77,1.21-2.48.43-4.93,1.09-7.44,1.35-.9.26-1.82.25-2.74.26-1.55.01-3.1.02-4.65,0-1.2-.01-2.4-.09-3.6-.29-1.25-.21-2.47-.51-3.66-.95-1.08-.4-2.14-.84-3.16-1.36-1.54-.78-3.07-1.56-4.62-2.32-.63-.31-1.17-.72-1.66-1.21-1.13-1.15-2.15-2.39-3.07-3.71-1.57-2.27-2.89-4.69-4.24-7.09-.05-.09-.04-.21-.03-.32,0-.04.09-.12.11-.11.25.13.51.26.75.42,1.5,1.06,3,2.13,4.48,3.21,2,1.45,3.98,2.92,5.98,4.37.6.44,1.21.87,1.83,1.29,2.82,1.91,5.97,2.88,9.33,3.28,1.72.03,3.44.16,5.15-.17.45-.09.91-.08,1.37-.13.51-.06,1.02-.13,1.53-.19.4-.05.8-.1,1.2-.15.34-.04.69-.04,1.03-.1,1.02-.17,2.03-.39,3.05-.53,2.27-.31,4.52-.77,6.78-1.13.85-.14,1.7-.28,2.54-.47,3.64-.81,7.27-1.65,10.91-2.44,1.74-.38,3.48-.74,5.25-.89.29-.02.57-.08.85-.12.4-.05.8-.14,1.19-.15,3.04-.05,6.08-.22,9.11.24,1.42.21,2.84.41,4.23.73.78.18,1.56.37,2.34.57,1.22.31,2.45.6,3.7.78,1.76.26,3.53.43,5.32.41,2.53-.04,5.05-.02,7.58-.03,1.9,0,3.77-.38,5.67-.41.17,0,.34-.07.51-.09.45-.06.91-.12,1.37-.16.34-.04.7-.01,1.03-.09,1.29-.32,2.62-.27,3.91-.57.78-.19,1.58-.25,2.38-.38,1.02-.17,2.04-.3,3.06-.46.8-.12,1.59-.2,2.39-.24.92-.04,1.83-.11,2.75-.2,1.48-.15,2.99-.15,4.47.01.74.08,1.48.14,2.23.19.46.03.93,0,1.37.1,1.18.28,2.39.31,3.57.54,1.07.21,2.14.39,3.2.64,1.79.42,3.57.86,5.35,1.29.68.16,2.89.52,3.4.52.98.01,1.95.01,2.93,0,.52,0,1.02-.07,1.53-.18,1.34-.29,2.7-.55,4.05-.8,2.48-.47,4.94-1.01,7.38-1.64,1.83-.47,3.65-1,5.54-1.21.83-.26,1.71-.22,2.55-.4.85-.18,1.71-.22,2.57-.26.46-.02.92-.02,1.38-.06.74-.05,1.49-.18,2.23-.17.8,0,1.6.14,2.4.18,1.32.07,2.63.13,3.94.37,1.01.19,2.03.39,3.03.6,2.76.59,5.42,1.49,8.03,2.54,1.76.7,3.53,1.37,5.34,1.94,2.47.78,4.98,1.35,7.57,1.55.34.03.68.1,1.02.15.34.05.68.11,1.03.11,1.03.02,2.07.02,3.1.03.59,0,1.14-.16,1.67-.38,1.54-.64,2.29-1.84,2.35-3.49.02-.64-.07-1.25-.27-1.86-.32-.99-.73-1.93-1.27-2.81-.58-.94-1.28-1.76-2.15-2.45-2.59-2.04-5.41-3.68-8.53-4.76-1.79-.62-3.61-1.12-5.52-1.25-.34-.02-.68-.1-1.02-.14-.4-.05-.8-.11-1.2-.13-1.2-.07-2.41-.04-3.6-.3-.17-.04-.34-.03-.52-.03-1.26-.04-2.53-.1-3.79-.12-1.09-.01-2.18,0-3.25.29-.27.07-.57.08-.85.12-.96.15-1.93.27-2.89.45-2.03.38-4.03.89-6.02,1.44-4.42,1.21-8.84,2.44-13.26,3.68-1.22.34-2.45.61-3.72.67-.29.01-.58.03-.85.1-.62.15-1.25.16-1.88.16-.75,0-1.49-.01-2.23-.17-.61-.13-1.26-.11-1.88-.24-2.82-.6-5.5-1.61-8.02-3.03-3.36-1.9-6.91-3.35-10.59-4.53-1.44-.46-2.89-.71-4.4-.66-.11,0-.23,0-.34,0-1.15.05-2.3.02-3.42.33-1.15.06-2.28.29-3.39.55-2.57.59-5.13,1.25-7.58,2.24-.59.23-1.18.45-1.78.65-.16.06-.34.07-.51.08-.05,0-.11-.03-.15-.06-.1-.07-.09-.16-.02-.29.33-.54.72-1.04,1.16-1.49.8-.83,1.64-1.6,2.55-2.31,2.04-1.58,4.31-2.61,6.86-3.02.85-.14,1.7-.27,2.55-.41.97-.16,1.93-.26,2.91-.32.11,0,.23,0,.34-.03,1.07-.27,2.17-.24,3.25-.28.63-.03,1.27-.01,1.89-.07,1.09-.1,2.17-.07,3.26,0,1.09.07,2.18.07,3.27.11.46.02.93,0,1.37.1,1.29.3,2.64.18,3.92.55,1.78.13,3.51.58,5.26.88,2.26.4,4.5.9,6.81.94.34,0,.69.06,1.03.11.8.11,1.6.12,2.4.02.46-.06.91-.13,1.37-.13,1.2,0,2.25-.42,3.22-1.06,1.23-.81,2.12-1.91,2.69-3.28.23-.57.19-1.12-.09-1.66-.4-.79-.98-1.41-1.67-1.94-1.63-1.23-3.44-2.06-5.42-2.54-1.73-.42-3.49-.65-5.23-1.02-.56-.12-1.12-.23-1.69-.32-1.81-.29-3.61-.67-5.42-.96-1.87-.3-3.71-.78-5.61-.85-.23,0-.45-.08-.68-.1-.46-.05-.91-.12-1.37-.12-1.32-.03-2.64-.06-3.94.24-1.96.14-3.84.66-5.67,1.36-2.79,1.05-5.58,2.11-8.37,3.18-4.01,1.55-8.02,3.13-12.03,4.69-3.26,1.26-6.49,2.63-9.79,3.79-3.25,1.14-6.55,2.11-9.93,2.78-.95.19-1.92.32-2.89.44-.63.08-1.26.09-1.88.24-.33.08-.68.09-1.03.09-3.04.03-6.09.25-9.11-.28-1.1,0-2.14-.39-3.24-.45-2.18-.5-4.36-1-6.54-1.5-1.4-.32-2.77-.74-4.2-.92-.77-.27-1.6-.19-2.38-.37-.91-.2-1.82-.24-2.74-.26-1.15-.02-2.3-.05-3.45-.03-1.43.02-2.87-.03-4.28.33-1.5.07-2.93.52-4.39.85-.73.17-1.44.38-2.15.63-1.31.45-2.55,1.05-3.57,2.02-.38.35-.76.7-1.14,1.05-1.47,1.37-2.77,2.91-4.18,4.34-.52.53-1.04,1.07-1.48,1.68-.03.04-.11.06-.15.05-.12-.03-.2-.13-.17-.24.54-1.69,1.04-3.4,1.65-5.07.76-2.07,1.96-3.89,3.5-5.48,1.7-1.76,3.67-3.11,5.95-4.01.91-.36,1.82-.68,2.77-.93,1.28-.33,2.55-.7,3.85-.89,1.47-.22,2.94-.51,4.45-.47.11,0,.23,0,.34-.02,1.77-.32,3.55-.2,5.33-.2.34,0,.7-.01,1.03.05,1.02.2,2.06.19,3.09.2,2.76.03,5.51.04,8.27.06.4,0,.81,0,1.21-.03,1.23-.1,2.37-.46,3.38-1.17,1.87-1.32,2.48-3.66,1.02-5.75-.16-.23-.35-.46-.56-.65-.42-.38-.86-.77-1.32-1.1-.98-.72-2.06-1.24-3.18-1.71-2.07-.87-4.21-1.53-6.39-2.02-2.07-.46-4.16-.8-6.3-.83-2.36-.03-4.71-.01-7.06.07-.29,0-.58,0-.86.05-1.46.32-2.96.3-4.44.57-1.87.34-3.02.51-4.88,1.01-1.45.39-2.82.95-4.1,1.75-1.36.86-2.72,1.71-4.09,2.55-3.72,2.27-7.4,4.63-11.2,6.77-2.45,1.38-4.96,2.65-7.59,3.66-1.87.72-3.78,1.35-5.76,1.74-.84.17-1.69.35-2.54.42-1.78.14-3.56.11-5.34.06-1.1-.03-2.15-.38-3.24-.43-2.08-.41-4.17-.79-6.23-1.3-4.12-1.03-8.18-2.27-12.12-3.85-3.14-1.26-6.27-2.56-9.4-3.84-1.59-.65-3.18-1.32-4.86-1.73-1.23-.3-2.46-.55-3.73-.56-2.04-.02-4,.37-5.89,1.07-1.42.52-2.67,1.33-3.71,2.43-.39.42-.75.87-1.14,1.29-.47.51-.92,1.02-1.42,1.49-.54.51-1.12.99-1.7,1.46-1.63,1.29-3.4,2.34-5.32,3.15-1.48.63-3.02.71-4.56.35-2.35-.55-4.67-1.18-6.95-1.98-1.3-.45-2.58-.98-3.87-1.45-2.82-1.04-5.71-1.7-8.74-1.63-1.27.03-2.5.31-3.75.5-3.49.95-6.95,1.99-10.28,3.41-3.87,1.65-7.54,3.66-10.82,6.32-2.95,2.39-5.35,5.18-6.83,8.72-.69,1.64-1.53,3.21-2.4,4.77-2.12,3.79-4.77,7.16-7.96,10.11Z"/></g></svg>