<?xml version="1.0" encoding="UTF-8"?><svg id="Layer_2" xmlns="http://www.w3.org/2000/svg" viewBox="0 0 352.1 210.62"><defs><style>.cls-1{fill:#85754e;}.cls-2{fill:#020000;}.cls-3{fill:#8f8c8c;stroke:#8f8c8c;stroke-miterlimit:10;stroke-width:2.41px;}</style></defs><g id="Layer_1-2"><path class="cls-3" d="M350.89,83.34c.04-8.67-4.25-15.81-11.78-19.59-.52-.26-1.05-.51-1.58-.75-.35-.16-.64-.29-.92-.44-8.44-4.28-16.87-8.55-25.3-12.84l-14.96-7.62-.25-.13c-6.78-3.45-13.56-6.91-20.34-10.36-12.03-6.11-24.06-12.21-36.09-18.31l-.36-.18-14.6-7.41-1.94-.98c-1.26-.63-2.46-1.24-3.65-1.86-1.75-.9-3.61-1.44-5.53-1.61-2.25-.2-4.49.11-6.67.93-3.57,1.34-6.64,3.54-9.38,6.73-1.97,2.29-3.28,4.6-4.21,6.34-.96,1.81-1.91,3.63-2.86,5.45-1.26,2.41-2.84,4.77-4.71,7.01-.72.86-1.4,1.44-2.14,1.84-2.81,1.49-5.17,3.2-7.25,4.71-.52.37-.99.72-1.46,1.05-.92.65-1.79,1.41-2.6,2.25-2.88,3-5.76,6-8.63,9.02-.75.79-1.28,1.5-1.59,1.93l-.1.14c-1.61,2.16-2.45,4.75-2.49,7.36l-.15.16c-2.16,2.23-4.26,4.41-6.38,6.56-1.74,1.77-2.97,3.82-3.66,6.04-.94.26-1.86.51-2.77.77-4.28,1.2-8.57,2.4-12.85,3.6l-3.65,1.03-5.07,1.42-6.45,1.81-7.3,2.04-8.97,2.51-5.85,1.65-5.9,1.66-7.15,2-9.11,2.55c-6.26,1.76-12.51,3.52-18.77,5.28-2.96.84-5.92,1.69-8.88,2.54l-.2.06c-2.42.7-4.77,1.73-6.98,3.07-1.9,1.16-4.71,3.04-7.12,6.05-5.02,6.3-5.64,14.51-1.62,21.43,3.13,5.39,7.51,6.86,10.63,7.14,2.65.24,4.81-.38,6.2-.87.41-.14.83-.28,1.26-.41.26.26.52.53.78.79-3.23.9-6.46,1.81-9.68,2.71l-3.96,1.11c-5.05,1.41-10.06,2.82-15.07,4.25-1.96.56-3.78,1.18-5.55,1.78l-.79.27c-4.02,1.36-6.76,3.9-7.66,4.74-6.75,6.27-7.5,16.04-1.77,23.23,2.24,2.81,5.04,5.05,8.34,6.65,3.84,1.87,7.56,2.89,10.69,3.63,1.71.41,3.45.69,5.31.85,3.2.29,6.17.18,8.67.03,3.18-.18,6.5-.81,10.15-1.92,1.13-.34,2.62-.79,4.07-1.17,1-.26,1.84-.35,2.67-.28l.79.07,1.3.11c.49.04,1.01.09,1.53.15,1.48.17,2.2.56,2.62.84,4.3,2.86,8.75,4.2,12.8,5-.06,2.76.59,5.54,1.95,8.14.79,1.51,1.68,2.61,2.21,3.27,2.6,3.23,6.01,5.66,10.41,7.46,4.45,1.81,8.37,2.82,12.33,3.17.45.04.91.07,1.37.09.13,0,.26.02.39.03l.54.05.66.06.64.05c4.73.34,9.35-.08,13.78-1.25,4.66-1.23,9.31-2.55,13.81-3.83l4.91-1.39,9.14-2.58,8.7-2.45c3.4-.96,6.8-1.91,10.21-2.86l.29-.08,5.98-1.67,6.73-1.89,8.85-2.48,5.97-1.67c3.36-.94,6.72-1.88,10.08-2.82,2.63-.74,5.26-1.48,7.88-2.23,3.31-.94,6.62-1.88,9.94-2.81,4.22-1.18,8.44-2.36,12.66-3.53,3.76-1.05,7.41-2.06,11.06-3.08l9.4-2.64c6.01-1.69,11.95-3.36,17.9-5,3.53-.98,6.55-2.82,9-5.49,3.06-3.33,6.14-6.64,9.23-9.94l.2-.22c3.19-.13,6.22-1.37,8.68-3.57.21-.19.42-.39.62-.59,3.23-2.88,6.19-5.88,8.72-8.48,2.43-2.5,4.55-5.24,6.29-8.17,1.09-1.82,2.39-3.75,4.22-6.26,1.7-2.33,3.59-4.52,5.62-6.52,2.05-2.02,4.04-3.58,6.08-4.76,1.94-1.13,3.76-2.28,5.52-3.4l.5-.32c3.54-2.25,6.58-5.18,9.31-8.94,3.39-4.68,5.12-9.74,5.15-15.04Z"/><path class="cls-2" d="M350.89,83.34c.04-8.67-4.25-15.81-11.78-19.59-.52-.26-1.05-.51-1.58-.75-.35-.16-.64-.29-.92-.44-8.44-4.28-16.87-8.55-25.3-12.84l-14.96-7.62-.25-.13c-6.78-3.45-13.56-6.91-20.34-10.36-12.03-6.11-24.06-12.21-36.09-18.31l-.36-.18-14.6-7.41-1.94-.98c-1.26-.63-2.46-1.24-3.65-1.86-1.75-.9-3.61-1.44-5.53-1.61-2.25-.2-4.49.11-6.67.93-3.57,1.34-6.64,3.54-9.38,6.73-1.97,2.29-3.28,4.6-4.21,6.34-.96,1.81-1.91,3.63-2.86,5.45-1.26,2.41-2.84,4.77-4.71,7.01-.72.86-1.4,1.44-2.14,1.84-2.81,1.49-5.17,3.2-7.25,4.71-.52.37-.99.72-1.46,1.05-.92.65-1.79,1.41-2.6,2.25-2.88,3-5.76,6-8.63,9.02-.75.79-1.28,1.5-1.59,1.93l-.1.14c-1.61,2.16-2.45,4.75-2.49,7.36l-.15.16c-2.16,2.23-4.26,4.41-6.38,6.56-1.74,1.77-2.97,3.82-3.66,6.04-.94.26-1.86.51-2.77.77-4.28,1.2-8.57,2.4-12.85,3.6l-3.65,1.03-5.07,1.42-6.45,1.81-7.3,2.04-8.97,2.51-5.85,1.65-5.9,1.66-7.15,2-9.11,2.55c-6.26,1.76-12.51,3.52-18.77,5.28-2.96.84-5.92,1.69-8.88,2.54l-.2.06c-2.42.7-4.77,1.73-6.98,3.07-1.9,1.16-4.71,3.04-7.12,6.05-5.02,6.3-5.64,14.51-1.62,21.43,3.13,5.39,7.51,6.86,10.63,7.14,2.65.24,4.81-.38,6.2-.87.41-.14.83-.28,1.26-.41.26.26.52.53.78.79-3.23.9-6.46,1.81-9.68,2.71l-3.96,1.11c-5.05,1.41-10.06,2.82-15.07,4.25-1.96.56-3.78,1.18-5.55,1.78l-.79.27c-4.02,1.36-6.76,3.9-7.66,4.74-6.75,6.27-7.5,16.04-1.77,23.23,2.24,2.81,5.04,5.05,8.34,6.65,3.84,1.87,7.56,2.89,10.69,3.63,1.71.41,3.45.69,5.31.85,3.2.29,6.17.18,8.67.03,3.18-.18,6.5-.81,10.15-1.92,1.13-.34,2.62-.79,4.07-1.17,1-.26,1.84-.35,2.67-.28l.79.07,1.3.11c.49.04,1.01.09,1.53.15,1.48.17,2.2.56,2.62.84,4.3,2.86,8.75,4.2,12.8,5-.06,2.76.59,5.54,1.95,8.14.79,1.51,1.68,2.61,2.21,3.27,2.6,3.23,6.01,5.66,10.41,7.46,4.45,1.81,8.37,2.82,12.33,3.17.45.04.91.07,1.37.09.13,0,.26.02.39.03l.54.05.66.06.64.05c4.73.34,9.35-.08,13.78-1.25,4.66-1.23,9.31-2.55,13.81-3.83l4.91-1.39,9.14-2.58,8.7-2.45c3.4-.96,6.8-1.91,10.21-2.86l.29-.08,5.98-1.67,6.73-1.89,8.85-2.48,5.97-1.67c3.36-.94,6.72-1.88,10.08-2.82,2.63-.74,5.26-1.48,7.88-2.23,3.31-.94,6.62-1.88,9.94-2.81,4.22-1.18,8.44-2.36,12.66-3.53,3.76-1.05,7.41-2.06,11.06-3.08l9.4-2.64c6.01-1.69,11.95-3.36,17.9-5,3.53-.98,6.55-2.82,9-5.49,3.06-3.33,6.14-6.64,9.23-9.94l.2-.22c3.19-.13,6.22-1.37,8.68-3.57.21-.19.42-.39.62-.59,3.23-2.88,6.19-5.88,8.72-8.48,2.43-2.5,4.55-5.24,6.29-8.17,1.09-1.82,2.39-3.75,4.22-6.26,1.7-2.33,3.59-4.52,5.62-6.52,2.05-2.02,4.04-3.58,6.08-4.76,1.94-1.13,3.76-2.28,5.52-3.4l.5-.32c3.54-2.25,6.58-5.18,9.31-8.94,3.39-4.68,5.12-9.74,5.15-15.04Z"/><path class="cls-2" d="M343.68,83.3c.03-5.91-2.74-10.56-7.8-13.1-.45-.23-.91-.44-1.37-.65-.39-.18-.77-.36-1.15-.55-8.44-4.28-16.88-8.56-25.31-12.85l-14.96-7.62c-6.86-3.5-13.72-6.99-20.58-10.48-12.15-6.17-24.3-12.33-36.45-18.5l-14.6-7.41-1.93-.98c-1.23-.62-2.47-1.25-3.7-1.88-.92-.47-1.89-.76-2.87-.84-1.16-.1-2.34.06-3.5.5-2.4.9-4.51,2.43-6.44,4.68-1.5,1.75-2.55,3.59-3.3,5.01-.95,1.8-1.9,3.61-2.84,5.42-1.5,2.87-3.37,5.66-5.56,8.29-1.32,1.58-2.72,2.76-4.3,3.59-2.36,1.25-4.42,2.74-6.4,4.18-.51.37-1.01.73-1.52,1.1-.55.39-1.08.85-1.57,1.36-2.88,2.99-5.74,5.99-8.61,9-.43.45-.76.9-.99,1.22l-.11.15c-1.23,1.65-1.4,3.76-.61,5.5-.74.78-1.49,1.55-2.24,2.32l-.42.43c-2.13,2.21-4.27,4.42-6.42,6.61-2.17,2.21-2.38,4.64-2.18,6.3.01.11.03.22.04.33-1.09.3-2.17.6-3.26.9-1.41.39-2.83.78-4.24,1.18-4.28,1.2-8.56,2.4-12.84,3.6l-3.65,1.03-5.07,1.42-6.45,1.81-7.3,2.04-8.97,2.51-5.85,1.64-5.9,1.66-7.15,2-9.11,2.55c-6.25,1.76-12.5,3.51-18.75,5.28-2.97.84-5.94,1.69-8.9,2.55l-.14.04c-1.81.52-3.57,1.3-5.23,2.31-1.56.94-3.55,2.3-5.22,4.39-3.17,3.97-3.55,8.95-1.02,13.3.47.82,1.91,3.3,5.03,3.57,1.24.11,2.31-.19,3.19-.49,1.72-.6,3.57-1.1,5.49-1.5.19-.04.28-.03.29-.03,0,0,.09.05.23.18.87.81,1.78,1.69,2.7,2.62.82.83,1.63,1.66,2.44,2.5,1.38,1.42,2.77,2.85,4.18,4.24,1.49,1.47,2.93,2.64,4.38,3.58,1.41.91,2.89,1.44,4.42,1.58,1.3.12,2.63-.05,3.97-.5,2-.68,4.08-1.31,6.1-1.93l2.29-.7.57-.18c.53-.17,1.05-.33,1.52-.45l.06.05c.1.08.2.15.29.24l.58.76c.33.43.66.86.96,1.28-4.27,1.01-8.55,2.01-12.83,3.01-.99.23-1.85.4-2.62.51-.13.02-.24.02-.35.01-.09,0-.24-.03-.44-.13-.94-.47-1.65-.91-2.23-1.4l-.34-.29c-.28-.23-.55-.47-.83-.69-.94-.74-2.07-1.19-3.26-1.29-.53-.05-1.08-.03-1.62.06-.4.07-.8.16-1.19.27l-2.64.74c-5.15,1.44-10.29,2.88-15.44,4.32l-3.96,1.11c-5.01,1.4-10.03,2.81-15.03,4.24-1.79.51-3.53,1.1-5.22,1.67l-.8.27c-2.29.77-3.99,2.19-5.06,3.19-3.97,3.69-4.4,9.22-1.04,13.45,1.56,1.96,3.53,3.53,5.85,4.66,3.22,1.57,6.45,2.44,9.2,3.1,1.37.33,2.77.55,4.28.68,2.73.24,5.38.14,7.61.01,2.6-.15,5.38-.68,8.48-1.62,1.2-.36,2.77-.83,4.33-1.24,1.79-.47,3.46-.63,5.11-.49l.78.07,1.3.11c.58.05,1.16.11,1.74.18,2.27.26,4.16.92,5.79,2,4.14,2.75,8.57,3.73,12.73,4.37.07.01.14.02.2.03l.43.04c2.02.18,3.98.06,5.75-.1-.82.86-1.52,1.85-2.1,2.98-1.37,2.67-1.32,5.68.15,8.48.46.88,1.02,1.58,1.43,2.08,1.83,2.26,4.27,3.98,7.51,5.3,3.77,1.53,7.02,2.38,10.25,2.67.36.03.72.06,1.08.07.23.01.45.03.68.05l.58.06.66.06.54.04c3.87.28,7.69-.07,11.35-1.04,4.59-1.21,9.21-2.53,13.68-3.79l4.92-1.39,9.14-2.58,8.7-2.45c3.5-.98,7.01-1.97,10.51-2.95l5.98-1.67,6.73-1.89,8.86-2.48,5.98-1.67c3.36-.94,6.71-1.88,10.07-2.82,2.62-.74,5.25-1.48,7.87-2.23,3.32-.94,6.64-1.88,9.96-2.81,4.22-1.18,8.45-2.36,12.68-3.54,3.68-1.03,7.37-2.05,11.05-3.08l9.4-2.64c5.97-1.68,11.95-3.36,17.93-5.01,2.23-.62,4.06-1.73,5.6-3.41,3.07-3.35,6.17-6.67,9.27-9.99l2.2-2.35c.17-.18.33-.35.5-.53.53.19,1.08.31,1.63.36,1.82.16,3.6-.45,5.02-1.72.16-.15.32-.3.47-.46,3.11-2.76,6.03-5.72,8.51-8.27,2.04-2.09,3.81-4.39,5.26-6.82,1.21-2.03,2.62-4.13,4.59-6.82,1.93-2.64,4.08-5.13,6.38-7.4,2.49-2.45,4.95-4.37,7.53-5.87,1.81-1.05,3.57-2.17,5.27-3.25l.49-.31c2.76-1.76,5.16-4.08,7.34-7.09,2.49-3.43,3.76-7.08,3.78-10.85Z"/><path class="cls-1" d="M78.62,175.58c-3.8-.59-7.51-1.43-10.8-3.62-2.38-1.58-5.06-2.44-7.9-2.77-1.32-.15-2.65-.25-3.97-.37-2.28-.2-4.53.05-6.74.63-1.51.4-3.01.84-4.51,1.29-2.4.73-4.86,1.28-7.36,1.42-3.51.2-7,.25-10.49-.58-2.83-.67-5.59-1.47-8.2-2.74-1.64-.8-3.05-1.9-4.19-3.33-1.82-2.29-1.6-4.93.55-6.92.98-.91,2.04-1.72,3.33-2.15,1.93-.65,3.85-1.32,5.8-1.88,6.32-1.81,12.64-3.57,18.97-5.35,6.02-1.69,12.05-3.37,18.07-5.06.23-.06.45-.12.69-.16.4-.07.78,0,1.11.26.37.29.72.6,1.08.9.97.8,2.04,1.44,3.16,2,1.16.58,2.38.76,3.65.57,1-.15,2-.36,2.99-.58,4.42-1.02,8.84-2.06,13.25-3.1.84-.2,1.66-.44,2.48-.7.44-.14.87-.35,1.27-.59.72-.42,1.06-1.21.86-2.01-.11-.45-.28-.9-.48-1.32-.91-1.84-2.21-3.41-3.43-5.03-.37-.49-.91-.86-1.39-1.26-1.04-.86-2.25-1.07-3.53-.77-.91.21-1.81.51-2.7.79-2.84.88-5.69,1.72-8.51,2.67-1.55.52-2.87.32-4.23-.55-1.33-.86-2.51-1.88-3.62-2.97-2.23-2.19-4.38-4.47-6.58-6.69-.93-.95-1.89-1.87-2.86-2.77-1.35-1.25-2.88-1.71-4.75-1.33-2.08.42-4.11.97-6.1,1.67-1.25.44-1.68.41-2.47-.95-1.52-2.62-1.29-5.49.62-7.89,1.09-1.37,2.48-2.38,3.96-3.27,1.28-.77,2.63-1.38,4.07-1.8,3.01-.87,6.01-1.73,9.02-2.58,6.25-1.77,12.49-3.52,18.74-5.28,5.42-1.52,10.84-3.04,16.27-4.56,3.92-1.1,7.83-2.2,11.74-3.3,5.42-1.52,10.84-3.04,16.27-4.56,3.84-1.08,7.68-2.16,11.52-3.23,5.5-1.54,10.99-3.09,16.49-4.62,2.94-.82,5.88-1.62,8.82-2.45.6-.17,1.19-.37,1.78-.59.47-.17.74-.58.7-1.1-.1-1.17-.21-2.34-.35-3.5-.12-.93.18-1.66.83-2.33,2.3-2.34,4.58-4.7,6.87-7.07,1.63-1.69,3.25-3.38,4.87-5.08.37-.4.33-.93-.05-1.24-.24-.2-.5-.37-.75-.56-.25-.19-.5-.37-.74-.57-.24-.2-.27-.58-.07-.85.23-.31.46-.64.73-.92,2.86-3,5.73-5.99,8.6-8.98.27-.28.57-.54.88-.77,2.42-1.72,4.77-3.56,7.4-4.96,2.25-1.19,4.12-2.82,5.74-4.76,2.36-2.83,4.42-5.87,6.13-9.14.94-1.8,1.88-3.6,2.83-5.4.77-1.46,1.61-2.86,2.69-4.12,1.24-1.44,2.67-2.63,4.48-3.31.87-.32,1.67-.3,2.48.12,1.88.96,3.77,1.91,5.65,2.86,17.02,8.63,34.04,17.26,51.05,25.9,11.85,6.02,23.69,12.07,35.54,18.1,8.43,4.29,16.88,8.57,25.32,12.85.84.42,1.7.79,2.54,1.21,3.61,1.81,5.17,4.84,5.15,8.77-.02,3.01-1.13,5.66-2.86,8.05-1.66,2.29-3.62,4.32-6.03,5.85-1.85,1.18-3.69,2.36-5.58,3.46-3.14,1.82-5.92,4.07-8.49,6.61-2.51,2.48-4.81,5.15-6.89,7.99-1.71,2.33-3.36,4.72-4.84,7.2-1.29,2.17-2.82,4.13-4.57,5.93-2.67,2.74-5.37,5.46-8.24,8.01-.18.16-.33.33-.5.49-.58.52-1.24.66-1.96.37-.58-.24-1.13-.53-1.7-.78-.56-.25-1.09-.17-1.52.25-.78.77-1.54,1.56-2.29,2.36-3.84,4.12-7.69,8.22-11.5,12.37-.94,1.02-2,1.65-3.34,2.02-9.12,2.52-18.23,5.1-27.34,7.65-7.91,2.21-15.82,4.4-23.73,6.62-5.95,1.67-11.89,3.37-17.84,5.04-5.34,1.5-10.69,2.99-16.04,4.49-5.2,1.46-10.39,2.91-15.59,4.37-5.5,1.54-11,3.08-16.49,4.62-5.95,1.67-11.89,3.36-17.84,5.03-6.17,1.73-12.33,3.52-18.53,5.16-3.18.84-6.47,1.13-9.77.89-.86-.06-1.71-.18-2.57-.22-3.41-.17-6.63-1.12-9.75-2.39-2.11-.86-4.08-2.01-5.55-3.83-.34-.42-.7-.86-.95-1.34-.69-1.32-.83-2.68-.13-4.05.62-1.2,1.45-2.21,2.63-2.92,1.48-.9,3.07-1.56,4.73-2.05,2.1-.63,4.22-1.16,6.33-1.75.82-.23,1.54-.14,2.16.48.11.11.25.19.36.3,1.62,1.69,3.68,2.03,5.84,1.75,1.54-.19,3.06-.64,4.56-1.06.59-.16,1.13-.54,1.65-.87.56-.35.69-1.11.25-1.64-.49-.6-1.04-1.16-1.62-1.68-3.05-2.69-6.16-5.31-9.16-8.06-3.34-3.06-6.63-6.19-9.64-9.59-.72-.81-1.54-1.57-2.41-2.22-1.29-.96-2.72-1.39-4.41-1.1-2.56.44-5,1.28-7.46,2.04-.22.07-.43.19-.63.3-1.02.53-1.12,1.21-.27,2.02.73.7,1.5,1.37,2.28,2.03,3.82,3.24,7.64,6.46,11.46,9.7.36.3.7.62,1.04.95.32.31.26.85-.12.96-3.08.87-6.09,2.08-9.3,2.37-2.02.18-4.05.37-6.09.14ZM282.48,128.2h0c-.38-.81-1.05-1.34-1.78-1.81-2.04-1.31-4.06-2.64-6.1-3.95-3.62-2.32-7.24-4.63-10.87-6.95-3.82-2.44-7.64-4.88-11.47-7.32-3.62-2.31-7.24-4.63-10.87-6.95-3.82-2.44-7.65-4.88-11.47-7.32-3.29-2.11-6.58-4.22-9.87-6.33-3.82-2.44-7.64-4.89-11.47-7.32-6.07-3.86-12.15-7.7-18.22-11.56-4.02-2.56-8.04-5.13-12.07-7.69-.52-.33-1.09-.6-1.64-.89-.04-.02-.15.04-.19.08-.04.05-.07.15-.04.2.34.67,1.01.95,1.6,1.32,3.95,2.53,7.91,5.05,11.86,7.57,3.82,2.44,7.65,4.88,11.47,7.32,3.89,2.48,7.78,4.96,11.66,7.44,3.82,2.44,7.65,4.88,11.47,7.32,3.62,2.31,7.24,4.64,10.87,6.95,4.15,2.65,8.31,5.29,12.46,7.94,3.56,2.27,7.11,4.56,10.67,6.83,4.15,2.65,8.31,5.29,12.46,7.93,3.43,2.19,6.85,4.38,10.28,6.56.39.25.84.42,1.25.63ZM267.48,148.53l.05.09-.07-.07c-.03-.69-.4-1.15-.94-1.53-1.48-1.02-2.95-2.06-4.42-3.09-3.66-2.55-7.31-5.1-10.97-7.64-3.66-2.55-7.32-5.09-10.97-7.65-3.2-2.24-6.4-4.5-9.6-6.74-3.78-2.64-7.57-5.27-11.36-7.91-3.46-2.41-6.93-4.83-10.39-7.24-3.6-2.5-7.2-4.99-10.79-7.49-3.79-2.63-7.57-5.27-11.35-7.91-3.66-2.55-7.31-5.11-10.96-7.66-3.4-2.37-6.8-4.74-10.2-7.11-.38-.27-.78-.53-1.19-.75-.18-.1-.43-.11-.65-.12-.19,0-.17.54-.03.85.25.52.67.85,1.12,1.17,3.34,2.31,6.68,4.63,10.03,6.94,2.77,1.91,5.54,3.81,8.31,5.72,2.7,1.87,5.39,3.76,8.09,5.63,2.83,1.96,5.67,3.9,8.5,5.86,3.66,2.54,7.31,5.1,10.98,7.63,2.76,1.91,5.55,3.8,8.31,5.71,2.77,1.91,5.52,3.85,8.28,5.76,2.76,1.91,5.54,3.81,8.31,5.72,3.73,2.58,7.45,5.18,11.17,7.76,2.95,2.05,5.91,4.1,8.87,6.15,3.34,2.32,6.67,4.65,10.03,6.94.57.39,1.24.65,1.86.97ZM188.36,51.56c-.05.75-.83,1.3-1.39,1.08-.5-.2-1-.45-1.46-.73-1.07-.64-2.12-1.34-3.19-1.98-.83-.5-1.21-.48-1.87.2-1.64,1.67-3.25,3.38-4.87,5.07-.05.06-.09.13-.13.19-.17.23-.11.66.12.85.18.14.37.29.57.41,2.03,1.32,4.06,2.65,6.1,3.96,3.75,2.41,7.51,4.8,11.27,7.2,3.62,2.32,7.25,4.63,10.87,6.95,3.82,2.44,7.65,4.88,11.47,7.32,3.62,2.32,7.25,4.64,10.87,6.95,3.82,2.44,7.65,4.88,11.47,7.32,3.62,2.32,7.25,4.64,10.87,6.95,4.22,2.69,8.44,5.39,12.66,8.08,2.38,1.51,4.77,2.99,7.14,4.51,4.15,2.66,8.28,5.34,12.43,8,.84.54,1.41.49,2.11-.19.84-.82,1.65-1.67,2.44-2.53.85-.92,1.68-1.85,2.5-2.8.48-.56.43-.99-.14-1.37-1.11-.73-2.24-1.43-3.36-2.16-5.06-3.27-10.11-6.54-15.17-9.81-2.89-1.87-5.78-3.73-8.67-5.6-.26-.17-.53-.34-.77-.54-.18-.15-.32-.34-.46-.52-.26-.34-.23-.96.05-1.32.27-.35.86-.51,1.27-.29.62.33,1.24.67,1.83,1.04,2.83,1.81,5.65,3.65,8.48,5.46,4.34,2.79,8.69,5.57,13.04,8.36,1.12.72,2.21,1.48,3.33,2.19.85.55,1.73,1.06,2.61,1.57.08.05.27-.07.39-.14.03-.02.02-.18-.02-.22-.36-.3-.71-.61-1.1-.87-3.81-2.46-7.63-4.9-11.45-7.36-1.91-1.23-3.8-2.47-5.7-3.72-.32-.21-.63-.47-.91-.73-.41-.39-.47-1.08-.14-1.5.27-.35.85-.51,1.27-.33.29.12.57.25.84.41.6.36,1.2.73,1.79,1.11,5.06,3.27,10.09,6.57,15.17,9.8,3.21,2.04,2.24,2.02,5.68-.22.39-.25.73-.58,1.09-.88,2.1-1.75,4.18-3.53,6.15-5.44,1.61-1.56,1.53-1.73-.32-2.79-2.44-1.4-4.9-2.78-7.34-4.18-.47-.27-.93-.57-1.35-.92-.4-.33-.42-1.08-.1-1.51.27-.35.86-.57,1.26-.39.57.25,1.13.53,1.67.84,2.58,1.48,5.14,2.98,7.72,4.45.47.27.98.47,1.49.67.11.04.33-.03.41-.13.06-.08.03-.34-.05-.4-.78-.52-1.56-1.04-2.37-1.51-4.35-2.48-8.71-4.94-13.06-7.4-1.29-.73-2.6-1.45-3.87-2.21-.53-.32-1.03-.7-1.48-1.13-.29-.28-.31-.71-.12-1.1.21-.43.73-.74,1.15-.61.52.16,1.04.34,1.51.6,1.98,1.1,3.95,2.23,5.91,3.36,2.64,1.52,5.28,3.06,7.92,4.58,1.97,1.13,3.94,2.25,5.91,3.37.64.36,1,.31,1.45-.21,2.83-3.26,5.4-6.69,7.35-10.56.91-1.81,1.86-3.62,2.9-5.36,1.72-2.9,1.98-2.51-1.11-4.26-.2-.12-.42-.21-.63-.32-2.33-1.28-4.66-2.56-6.99-3.85-.33-.19-.65-.43-.93-.7-.45-.43-.26-1.34.35-1.58.28-.11.62-.19.9-.12.45.11.88.31,1.29.53,2.61,1.42,5.21,2.86,7.82,4.29.62.34,1.25.64,1.88.96.47.24.91.15,1.32-.16.37-.29.72-.6,1.09-.89.8-.62,1.61-1.24,2.41-1.86.28-.22.23-.55-.12-.74-.21-.11-.42-.21-.63-.32-12.34-6.28-24.67-12.56-37.01-18.84-5.16-2.63-10.32-5.25-15.48-7.87-17.85-9.06-35.71-18.12-53.56-27.18-2.3-1.17-4.63-2.29-6.89-3.53-1.19-.65-2.23-.59-3.26.19-.56.42-1.09.89-1.59,1.37-.37.36-.3.96.14,1.21,1.15.66,2.32,1.3,3.49,1.94,1.85,1.02,3.71,2.01,5.55,3.06.53.3,1.02.71,1.45,1.15.43.45.07,1.37-.56,1.49-.3.05-.63.07-.91-.02-.44-.14-.86-.37-1.27-.59-2.54-1.38-5.05-2.83-7.62-4.15-2.45-1.26-2.17-1.51-3.64,1.16-1.09,1.99-2.12,4.01-3.22,5.99-1.16,2.1-1.16,2.15,1.07,3.3,1.46.76,2.92,1.51,4.36,2.3.4.22.76.55,1.1.86.24.22.27.79.09,1.1-.21.37-.55.56-.97.53-.31-.02-.63-.07-.91-.19-.72-.31-1.42-.65-2.11-1.01-1.18-.61-2.34-1.26-3.53-1.86-.41-.21-.86-.37-1.3-.53-.28-.1-.69.12-.73.43-.03.21-.02.52.11.63.41.35.87.66,1.34.93,4.22,2.39,8.44,4.77,12.66,7.16,1.7.96,3.4,1.92,5.1,2.9.61.35,1.21.72,1.78,1.14.24.17.42.46.55.73.18.38.07.77-.19,1.09-.24.3-.73.45-1.06.32-.36-.14-.72-.3-1.06-.48-2.39-1.33-4.79-2.65-7.17-4.01-4.21-2.4-8.41-4.83-12.62-7.23-.34-.19-.69-.38-1.06-.49-.2-.06-.49,0-.66.11-.31.23-.57.53-.83.81-1.79,1.88-3.74,3.55-6.05,4.77-1.1.58-2.14,1.3-3.19,1.97-.38.24-.37.72,0,.97,2.88,1.88,5.77,3.75,8.66,5.62,2.76,1.78,5.52,3.56,8.28,5.35.39.25.77.53,1.14.83.18.14.31.35.44.54.25.36.2,1-.13,1.3-.31.28-.7.42-1.08.23-.63-.3-1.26-.63-1.85-1-3.96-2.52-7.91-5.06-11.85-7.6-1.51-.97-3.01-1.97-4.52-2.95-.46-.3-.93-.58-1.42-.82-.19-.09-.47-.12-.67-.05-.19.06-.37.26-.48.44-.05.09.02.33.12.42.47.41.95.81,1.46,1.17.64.45,1.32.84,1.97,1.28.32.22.65.45.9.74.19.22.26.55.32.7ZM174.16,62.28c-.27.11-.52.14-.69.29-.6.5-1.19,1.02-1.73,1.58-1.37,1.39-2.72,2.81-4.07,4.22-.86.9-1.74,1.79-2.58,2.72-1.13,1.26-1.11,1.39.18,2.35.63.47,1.26.93,1.9,1.37,4.62,3.21,9.25,6.4,13.87,9.62,5.64,3.93,11.27,7.88,16.91,11.82,5.25,3.67,10.51,7.33,15.77,10.99,4.3,2.99,8.6,5.97,12.89,8.97,5.7,3.98,11.4,7.98,17.1,11.96,6.09,4.25,12.18,8.49,18.28,12.73,1.67,1.16,3.35,2.3,5.02,3.45.19.13.38.28.58.4.61.4.95.38,1.44-.14,3.94-4.13,7.87-8.26,11.8-12.4.21-.22.37-.5.55-.76.15-.23.09-.7-.11-.87-.24-.2-.48-.4-.74-.57-2.29-1.49-4.59-2.97-6.89-4.45-3.55-2.28-7.11-4.55-10.66-6.82-4.55-2.9-9.1-5.79-13.65-8.69-3.16-2.02-6.32-4.04-9.48-6.07-3.82-2.44-7.64-4.89-11.46-7.32-6.27-3.98-12.55-7.94-18.81-11.93-5.8-3.7-11.58-7.43-17.37-11.14-3.29-2.11-6.58-4.22-9.87-6.32-2.38-1.51-4.77-2.99-7.16-4.48-.33-.2-.69-.35-1.02-.52ZM120.97,177.4c1.19.11,2.2.05,3.19-.22,1.43-.4,2.87-.76,4.29-1.18.52-.15,1.02-.39,1.5-.64.55-.28.71-.96.3-1.39-.7-.73-1.42-1.45-2.18-2.11-1.94-1.7-3.91-3.36-5.86-5.05-.35-.3-.67-.65-.96-1.02-.35-.44-.11-1.2.43-1.35.44-.12.93-.26,1.37-.2.77.1,1.53.31,2.27.54.75.23,1.45.58,2.2.81,5.44,1.7,10.89,3.38,16.33,5.09,1.15.36,2.29.44,3.46.14,1.36-.36,2.73-.67,4.08-1.06.75-.22,1.46-.55,2.17-.86.52-.23.65-.75.32-1.16-.35-.42-.7-.84-1.1-1.21-2.8-2.61-5.64-5.17-8.42-7.81-3.45-3.28-6.85-6.62-10.27-9.94-1.07-1.03-2.13-2.07-3.22-3.07-1.03-.94-2.26-1.38-3.66-1.22-.85.1-1.71.19-2.54.39-1.44.35-2.87.75-4.29,1.17-.67.2-1.32.48-1.96.77-.45.2-.59.8-.34,1.2.55.87,1.31,1.54,2.12,2.16,1.36,1.05,2.74,2.08,4.06,3.18,1.38,1.15,2.7,2.37,4.04,3.57.46.41.57.88.36,1.24-.27.47-.73.57-1.21.53-.54-.04-1.1-.09-1.61-.26-3.94-1.28-7.88-2.55-11.79-3.89-2.51-.86-4.94-1.95-7.5-2.66-1.89-.52-3.79-1.01-5.76-.6-1.53.32-3.05.67-4.55,1.11-.66.19-1.26.6-1.85.96-.45.27-.55.85-.24,1.23.39.49.78.98,1.24,1.39,1.39,1.26,2.8,2.5,4.23,3.71,5.49,4.64,10.84,9.44,16.07,14.37.85.8,1.75,1.56,2.66,2.29.81.65,1.75,1.01,2.63,1.05ZM198.72,156.03c1-.03,2.32-.11,3.65-.1,4.54.02,8.81-1.08,12.92-2.94,1.3-.59,2.42-1.45,3.39-2.48,1.38-1.46,1.65-3.45.7-5.2-.59-1.1-1.27-2.15-2.24-2.98-1.19-1.01-2.32-2.09-3.51-3.1-4.12-3.49-8.05-7.18-11.59-11.26-1.36-1.56-2.97-2.21-4.96-2.12-.47.02-.94.07-1.39.17-1.68.38-3.35.76-5.02,1.19-.68.18-1.33.44-1.97.74-.83.38-.98,1.18-.4,1.94.19.25.39.49.62.7,2.49,2.25,4.92,4.58,7.52,6.71,2.42,1.99,4.64,4.18,6.93,6.31.34.32.64.69.9,1.07.47.67.36,1.57-.23,2.14-.22.21-.47.43-.74.56-1.54.74-3.12,1.04-4.73.25-.7-.34-1.39-.73-2.03-1.16-.91-.61-1.78-1.27-2.65-1.94-1.67-1.3-3.23-2.71-4.56-4.37-1.08-1.34-2.25-2.59-3.56-3.73-1.47-1.28-2.9-2.62-4.36-3.92-.64-.57-1.32-1.1-2.22-1.23-1.32-.19-2.64-.34-3.96.02-2.04.55-4.08,1.08-6.11,1.64-.37.1-.72.3-1.06.49-.39.22-.58.86-.38,1.24.15.27.31.54.49.79.75,1.02,1.75,1.78,2.74,2.55,4.82,3.74,9.46,7.68,13.79,11.99,1.27,1.27,2.67,2.4,4.29,3.23,2.96,1.51,6.15,2.24,9.74,2.79ZM158.19,138.8c-3.8-.38-5.76-.25-9.24.32-4.4.73-8.72,1.83-13.04,2.91-.68.17-1.34.43-1.98.72-.7.32-.94,1.16-.48,1.78.41.56.88,1.1,1.4,1.57,4.39,3.89,8.61,7.96,13.17,11.66,2.61,2.12,4.97,4.53,7.32,6.93.6.61,1.23,1.21,1.9,1.74.89.7,1.92,1.05,3.07.91.85-.1,1.72-.17,2.54-.39,3.55-.96,7.09-1.92,10.61-2.98,1.34-.4,2.61-1.04,3.89-1.62,1.22-.56,2.25-1.42,3.18-2.37,1.21-1.23,1.77-2.8,1.74-4.47-.03-1.91-.64-3.68-1.86-5.21-1.37-1.73-2.89-3.27-4.7-4.55-1.54-1.09-3.13-2.05-4.78-2.97-4.02-2.24-8.28-3.67-12.75-3.96ZM139.23,129.47c.92-.16,1.92-.29,2.91-.52,2.06-.48,4.1-.99,6.15-1.52,1.74-.45,3.47-.94,5.21-1.41,1.07-.29,2.06-.77,2.95-1.41,1.59-1.14,2.59-3.1,1.55-5.36-.2-.42-.44-.83-.71-1.21-.55-.77-1.23-1.41-2.02-1.94-1.31-.87-2.66-1.63-4.12-2.23-1.08-.45-2.16-.93-3.18-1.49-1.28-.7-2.22-1.71-2.54-3.21-.38-1.79-1.49-3.05-2.93-4.1-2.39-1.75-5.08-2.72-7.99-3.16-3.13-.47-6.23-.24-9.34.27-3.87.63-7.61,1.77-11.41,2.71-.3.08-.6.19-.89.31-1.05.42-1.28,1.1-.72,2.02.67,1.09,1.55,1.95,2.65,2.6,1.9,1.11,3.62,2.46,5.24,3.95,2.19,2.01,4.32,4.08,6.52,6.08,2.72,2.47,5.49,4.88,8.24,7.32.95.84,1.99,1.51,3.19,1.94.37.13.74.22,1.23.37ZM163.98,91.8c-.37.02-.93,0-1.46.11-1.15.22-2.3.46-3.43.76-4.54,1.18-9.06,2.4-13.6,3.59-1.28.34-2.59.6-3.88.92-.45.11-.88.31-1.3.51-.42.21-.59.82-.31,1.22.31.44.63.9,1.04,1.25,1.78,1.53,3.6,3,5.38,4.52,2.37,2.03,4.84,3.98,7.06,6.16,3.01,2.96,6.07,5.85,9.21,8.68.69.63,1.44,1.2,2.21,1.74.93.65,1.98.91,3.12.69.77-.15,1.54-.27,2.3-.46,3.79-.96,7.57-1.93,11.35-2.92,2.34-.62,4.67-1.27,7-1.94.52-.15,1.02-.39,1.49-.66.56-.33.65-1.11.26-1.65-.05-.06-.08-.14-.14-.19-1.26-1.05-2.47-2.16-3.79-3.12-.9-.65-1.99-.87-3.13-.58-1.44.36-2.9.64-4.33,1.01-2.27.59-4.52,1.25-6.79,1.82-1.87.47-3.36-.32-4.59-1.65-.61-.65-.41-1.56.41-1.95.49-.23,1.01-.43,1.54-.56,1.06-.26,2.14-.45,3.21-.67,1.07-.23,2.15-.43,3.2-.71.6-.16,1.17-.43,1.73-.7.51-.25.72-.91.52-1.42-.06-.15-.11-.29-.19-.43-1.58-2.76-5.6-4.92-9.08-3.35-.36.16-.72.3-1.09.42-1.64.51-3.28,1.03-4.93,1.5-.6.17-1.22.29-1.84.36-.98.11-1.84-.23-2.59-.87-.58-.5-.59-1.31-.03-1.86.63-.63,1.41-.97,2.26-1.17,2.21-.51,4.41-1.03,6.62-1.54.3-.07.62-.08.92-.15.3-.07.6-.17.89-.29.9-.36,1.3-1.3.84-2.1-1.19-2.05-2.97-3.38-5.18-4.16-.22-.08-.46-.08-.87-.15ZM92.77,110.33c-2.46.08-4.72.57-6.83,1.71-.07.04-.13.09-.19.14-.6.49-.83,1.13-.66,1.88.08.38.23.75.39,1.1.29.64.64,1.25.91,1.9,1.99,4.85,3.98,9.69,5.92,14.55.78,1.96,1.44,3.97,2.2,5.93.31.8.68,1.58,1.12,2.31.44.73,1.16,1.03,2.01.91.31-.04.62-.1.92-.18,2.19-.57,4.38-1.15,6.58-1.73.3-.08.59-.19.89-.3.25-.1.46-.53.38-.78-.13-.37-.33-.72-.41-1.09-.23-1.09.18-2.04,1.15-2.6.54-.31,1.12-.57,1.71-.75,3.44-1.06,6.95-1.85,10.48-2.53,1.37-.26,2.64,0,3.82.72.53.33,1.06.66,1.6.97,1.14.66,2.37.8,3.63.49,1.36-.34,2.72-.72,4.07-1.12.44-.13.85-.37,1.26-.59.24-.12.33-.65.13-.83-.45-.42-.88-.9-1.41-1.2-1.22-.7-2.47-1.36-3.74-1.96-4.87-2.31-9.78-4.55-14.64-6.9-4.15-2.01-8.29-4.05-12.29-6.34-2.17-1.24-4.41-2.36-6.82-3.11-.74-.23-1.5-.4-2.19-.59ZM336.37,84c.02-.47.07-.94.04-1.4-.08-1.51-.49-2.92-1.45-4.13-1.71-2.13-4.7-2.64-6.92-1.06-1.53,1.08-2.91,2.33-4.05,3.87-1.78,2.4-3.27,4.96-4.49,7.67-.78,1.72-1.7,3.35-2.76,4.89-1.72,2.52-3.58,4.93-5.62,7.2-3.61,4.01-7.55,7.68-11.7,11.13-1.26,1.05-2.55,2.07-3.98,2.89-.89.51-1.66,1.17-2.35,1.92-2.67,2.85-5.33,5.71-8,8.56-.11.11-.21.24-.27.38-.07.14-.14.31-.11.44.04.22.11.49.26.6.15.1.47.11.63.01.33-.2.62-.47.89-.75,1.39-1.48,2.77-2.97,4.16-4.45.37-.4.78-.77,1.19-1.13.28-.25.84-.18,1.05.15.92,1.45,1.84,2.9,2.72,4.37.21.35.13.77-.15,1.1-.51.59-1.02,1.18-1.56,1.75-1.28,1.37-2.58,2.72-3.87,4.08-.21.23-.41.47-.59.73-.19.27-.1.78.18,1.08.2.21.5.19.84-.08.42-.35.86-.68,1.24-1.07,2.32-2.32,4.62-4.65,6.93-6.98,1.27-1.28,2.35-2.71,3.25-4.28.39-.68.82-1.33,1.22-2,2.45-4.01,5.26-7.76,8.42-11.24,3.49-3.84,7.33-7.23,11.85-9.83,1.76-1.01,3.47-2.11,5.17-3.21,2.74-1.78,4.82-4.19,6.46-6.99.76-1.3,1.26-2.68,1.36-4.2ZM230.56,147.13c1.95.17,3.89.17,5.85.05,3.77-.24,7.45-.94,11.02-2.13,1.1-.37,2.15-.93,3.17-1.5.53-.3.96-.79,1.39-1.23.37-.39.31-.93-.07-1.24-.12-.1-.23-.21-.36-.3-5.02-3.47-10.04-6.92-15.05-10.4-.6-.41-1.23-.68-1.95-.72-2.03-.11-4.04-.43-6.09-.24-.84.08-1.72-.04-2.56-.18-.53-.09-1.03-.34-1.52-.57-.41-.2-.71-.8-.63-1.17.09-.41.36-.69.74-.84.29-.12.59-.25.89-.28.93-.1,1.86-.16,2.8-.22.46-.03.93-.03,1.39-.05.04,0,.1-.1.12-.17.02-.07.01-.17-.03-.21-.23-.21-.45-.43-.7-.6-2.06-1.42-4.16-2.79-6.17-4.27-1.17-.86-2.37-1.08-3.75-.85-1.78.3-3.52.76-5.19,1.43-1.53.61-2.97,1.42-4.19,2.55-1.67,1.55-1.95,3.32-.86,5.29.74,1.33,1.82,2.34,3.05,3.2,2.81,1.97,5.92,3.16,9.35,3.43,1.95.15,3.9.31,5.85.45.62.04,1.25.05,1.87.01,2.36-.15,4.68.2,7.02.37.71.05,1.38.3,1.97.69.26.17.48.4.68.63.43.49.33,1.26-.17,1.68-.5.42-1.08.63-1.7.75-1.31.26-2.62.45-3.96.33-1.25-.11-2.49-.23-3.74-.26-.69-.02-1.39.11-2.08.24-.49.09-.86.45-1.01.9-.32.96-.62,1.94-.84,2.93-.19.88.38,1.72,1.26,1.99.45.13.91.22,1.38.28.93.11,1.87.17,2.8.26ZM197.06,114.43c1.05.12,2.05.01,3.04-.24,2.72-.71,5.44-1.4,8.17-2.11.08-.02.17-.02.22-.07.16-.15.34-.29.44-.47.03-.07-.12-.29-.23-.37-1.72-1.22-3.45-2.42-5.18-3.63-3.52-2.46-7.05-4.91-10.58-7.36-3.02-2.09-6.05-4.16-9.06-6.25-2.25-1.56-4.49-3.12-6.73-4.68-.54-.38-1.1-.53-1.77-.36-1.21.31-2.43.57-3.65.87-.37.09-.74.25-1.09.42-.61.29-.81,1.07-.37,1.59.51.59,1.06,1.15,1.65,1.65,2.33,1.96,4.72,3.85,7.02,5.85,1.95,1.68,3.86,3.41,5.69,5.22,3.06,3.02,6.3,5.84,9.48,8.73.84.77,1.83,1.18,2.94,1.23ZM270.73,148.84c.21-.17.48-.32.69-.53,2.56-2.74,5.11-5.5,7.68-8.23,2.35-2.51,4.72-5.01,7.09-7.5,2.05-2.15,4.11-4.29,6.16-6.44.4-.42.43-.74.15-1.27-.28-.55-.73-.66-1.12-.25-2.8,2.95-5.59,5.91-8.38,8.86-3.01,3.18-6.03,6.35-9.04,9.53-1.18,1.25-2.34,2.52-3.49,3.8-.47.52-.51,1.13-.16,1.73.07.12.23.18.43.32Z"/><path class="cls-1" d="M241.96,76.18c-4.05-.36-8.1-.74-12.15-1.07-1.09-.09-2.19,0-3.27-.08-2.41-.18-4.82-.4-7.23-.64-.14-.01-.3-.31-.36-.51-.03-.08.14-.27.25-.35.19-.14.4-.24.62-.33.5-.21,1.02-.4,1.53-.61,4.07-1.6,8.15-3.2,12.22-4.81,2.18-.86,2.19-.92.71-2.62-.31-.35-.63-.7-.92-1.06-.19-.24-.46-.55-.19-.82.18-.18.56-.27.83-.24,2.57.21,5.14.46,7.71.69.93.08,1.87.11,2.8.16.07,0,.18-.05.2-.09.04-.14.12-.34.05-.43-.35-.51-.74-1-1.11-1.5-.19-.26-.06-.68.24-.78.37-.12.74-.25,1.12-.31,2.79-.39,5.57-.77,8.36-1.15,1.7-.23,3.42-.4,5.11-.71,1.18-.22,2.09.03,3,.84,3.09,2.76,6.24,5.46,9.36,8.18,1.24,1.08,2.47,2.16,3.7,3.25.23.2.42.45.62.69.12.14-.05.53-.25.56-.93.09-1.86.22-2.8.25-1.79.06-3.59.06-5.39.09-.13,0-.37.13-.36.2.01.21.05.46.18.61.25.29.58.52.86.79.16.16.29.36.44.54.14.17.02.56-.17.58-.31.04-.62.11-.92.08-1.71-.13-3.42-.23-5.15-.16-1.4.06-2.8-.2-4.21-.3-.31-.02-.62,0-.93.02-.23.01-.38.33-.24.54.21.33.44.64.64.98.15.26-.11.68-.41.68-.39,0-.78,0-1.17-.03-2.57-.21-5.14-.42-7.71-.64-1.87-.16-3.74-.33-5.61-.5v.03ZM240.85,73.61s0-.03,0-.05c2.8.25,5.6.5,8.4.75.39.03.78.06,1.17.05.13,0,.32-.08.38-.18.06-.1.03-.31-.04-.42-.12-.2-.31-.35-.46-.53-.2-.25-.38-.55-.15-.84.13-.16.39-.28.59-.28.62-.01,1.25.02,1.87.08,2.18.19,4.36.39,6.54.58.62.05,1.25.1,1.87.11.11,0,.24-.15.33-.25.03-.03,0-.16-.04-.21-.27-.28-.55-.55-.82-.83-.21-.23-.41-.52-.22-.82.11-.17.38-.27.59-.33.3-.08.61-.13.92-.13,2.18-.01,4.37,0,6.55-.02.23,0,.47-.02.68-.1.08-.03.16-.3.1-.38-.17-.25-.37-.5-.6-.7-2.29-2.01-4.58-4.02-6.88-6.02-.47-.41-.97-.79-1.44-1.2-.57-.5-1.2-.62-1.95-.51-2.86.42-5.72.78-8.59,1.17-.23.03-.46.08-.69.14-.4.1-.56.6-.26.93.47.52.98,1.01,1.46,1.52.32.34.64.69.92,1.05.08.1.08.31.03.43-.05.12-.21.28-.32.28-.62,0-1.25,0-1.87-.06-2.72-.25-5.44-.51-8.17-.76-.31-.03-.62-.07-.93-.09-.61-.04-.98.18-.58.79.04.07.09.13.12.2.25.6.18.93-.32,1.16-.71.32-1.43.62-2.16.9-2.47.97-4.95,1.93-7.42,2.9-.36.14-.71.32-1.05.5-.05.03-.09.13-.08.2,0,.05.07.14.12.14.38.05.78.17,1.15.12,1.88-.22,3.74.04,5.61.2,1.87.16,3.74.33,5.6.5Z"/><path class="cls-1" d="M228.37,57.03c-.1.71-.73,1.21-1.22,1.1-.3-.07-.61-.16-.88-.3-.84-.43-1.67-.86-2.48-1.33-4.68-2.69-9.35-5.39-14.02-8.08-1.69-.98-3.4-1.93-5.09-2.91-.4-.23-.76-.54-1.11-.85-.33-.3-.33-.92-.07-1.3.25-.36.61-.52,1.01-.46.37.06.75.21,1.09.39,1.84,1.03,3.67,2.08,5.51,3.13,4.76,2.71,9.51,5.41,14.26,8.13.88.5,1.75,1.04,2.56,1.64.27.2.34.65.44.84Z"/><path class="cls-1" d="M214.17,26.45c.08.02.41.04.67.18,2.46,1.34,4.91,2.7,7.36,4.06.13.07.25.18.37.28.44.37.6,1.04.37,1.48-.24.45-.91.71-1.42.54-.22-.07-.45-.15-.65-.26-2.38-1.33-4.76-2.66-7.13-3.99-.2-.11-.39-.27-.55-.43-.29-.3-.41-.65-.3-1.07.12-.43.61-.8,1.27-.79Z"/><path class="cls-1" d="M324.74,75.38c.03.79-.69,1.39-1.27,1.24-.3-.08-.6-.18-.87-.33-2.26-1.23-4.53-2.46-6.77-3.72-.4-.22-.74-.56-1.08-.87-.25-.24-.28-.78-.11-1.1.21-.41.77-.71,1.17-.6.23.06.46.11.66.22,2.33,1.26,4.67,2.53,6.99,3.81.34.19.66.42.93.7.2.21.3.53.36.64Z"/><path class="cls-1" d="M294.15,87.22c-.01.44-.46.97-.87.94-.45-.04-.95-.09-1.34-.29-2.42-1.23-4.82-2.5-7.23-3.76-.14-.07-.26-.17-.38-.27-.38-.28-.55-.83-.4-1.24.19-.5.8-.86,1.3-.75.23.05.46.09.66.19,2.48,1.29,4.96,2.57,7.43,3.88.5.26.85.68.82,1.3Z"/><path class="cls-1" d="M157.92,145.79c1.37.09,2.72.47,4,1.08,2.2,1.06,4.15,2.49,5.82,4.28.81.87,1.45,1.84,1.8,2.98.25.82.12,1.54-.49,2.16-1.8,1.83-3.95,2.43-6.43,1.76-.37-.1-.74-.26-1.06-.47-.45-.3-.94-.61-1.27-1.03-1.91-2.39-4.54-4.07-6.42-6.48-.52-.67-1.25-1.16-1.86-1.77-.32-.32-.24-.94.07-1.28.45-.48,1.02-.73,1.63-.87,1.37-.33,2.76-.51,4.23-.36Z"/><path class="cls-1" d="M143.16,121.05c-2.3-.12-3.59-1.2-4.7-2.56-.32-.4-.07-1.14.41-1.4.71-.38,1.48-.5,2.26-.47,1.27.05,2.45.47,3.44,1.27.34.28.59.72.75,1.14.27.68-.09,1.48-.78,1.72-.58.19-1.19.26-1.38.3Z"/><path class="cls-1" d="M131.95,108.45c1.11.14,1.89.42,2.43,1.18.54.75.25,1.78-.62,2.12-1.36.52-2.6.26-3.68-.69-.43-.38-.64-.88-.46-1.47.14-.48.49-.81.96-.93.52-.13,1.07-.16,1.38-.21Z"/><path class="cls-1" d="M104.64,127.93c-1.44-.08-2.6-1.07-2.87-2.28-.2-.88.26-1.81,1.11-2.05.66-.18,1.39-.36,2.05-.26,1.46.22,2.86.72,4.03,1.69.65.53.62,1.34-.09,1.72-1.39.74-2.9,1.07-4.24,1.19Z"/></g></svg>