<?xml version="1.0" encoding="UTF-8"?>
<svg id="Layer_1" xmlns="http://www.w3.org/2000/svg" version="1.1" viewBox="0 0 401 110">
  <!-- Generator: Adobe Illustrator 29.3.1, SVG Export Plug-In . SVG Version: 2.1.0 Build 151)  -->
  <defs>
    <style>
      .st0 {
        fill: #231f20;
        fill-rule: evenodd;
      }
    </style>
  </defs>
  <path class="st0" d="M360.1,24.4c-.1,1.6-.5,5.1-2.8,4.9-2.1-.2-5.2-2.6-4.9-6.3,0-1,1.1-3,2.3-3.7.6-.4,1.6-.4,2.4-.3,2.8.3,3.2,3,3.1,5.4M217.5,15c-5.4,4.6-10.1,3.7-14.9,5-.3,0-1,.7-1,1.3-.4,2.9-.8,5.8-1.3,8.6l-2.7,49.8c.4,2.6-.5,6,1.1,9.3,2.2-.2,6.1-.5,6.8-.4l4.5.4.8,1c0,.7-.8,1.7-1.6,2-6.1,2.8-12.2,3.5-18.2,3.6-3.8,0-5.5-.1-6.3-.2-.8,0-2.9-.6-4.6-1.6,0-.6.4-1,.6-1.5,4.1-1.2,8.2-1.9,12.2-2.9-.8-4.9-.2-10.6-.8-15.9l1.2-47.1c0-1.2,1.5-5.4-1.2-5.6-.8,0-5.6-.2-8.7,0-.2,0-.7.1-.6-1.1.1-2.1,4.4-3.9,5.5-4,7.2-.9,14.9-2.1,22.1-2.2,3.4,0,3.9,0,4.7,0,.8,0,1.3.9,2.3,1.6M321.4,21.3l-.5,7.1c0,.9-.4,1.4-.7,2.1.3.3.7.5.8.5l23.5.3-.2,2.5c-4.5,1.4-8.8,2.1-13,3.1,1.1,1.1,2.4,1.3,2.3,3.4l-.5,7.8c.5.7,1.1,1.5,1.6,2.1.7.6,7.7,4,7.5,7.4l-1.7,25.7c0,.9,1,3.8,2.2,4.3.1,0,.7-.5.9-.8,3.3-7.3,6.3-16.2,7.3-23.7,1.1-7.9.3-9.5.4-11.2,1.5-.3,3.2-.9,4-.8.7,0,2.3.6,2.2,2.4,0,.9-1,3.2-1.2,5-.5,4-1.7,14.5-1.7,15.4-.1,1.6-1.2,12.5,2,12.8,2,.2,3.5-7,3.8-8.1,2.6-9.6,4.7-19.3,6.9-29,.5-2.3,3.2-3.7,4.4-3.5.9,0,3.1,1.2,4.2,2,2.3,1.7,1.7,5.2,1.5,7.7-.4,6.4-1.5,10.6-4.1,17.3-1.1,2.8-4.2,8.1-4.2,9-.2,2.7,3.5,6.5,5,6.7,4.2.4,7.6-16.9,8.7-21.6.6-2.8,1.1-5.7,1.6-8.6l1.2-12.8c.8-1,2.6-2.2,3.9-2.1,1.2.1,3.1.8,3,2.6,0,.9-1,4.9-1,5.8-.6,8.6,5.8,21.9,5.2,30.5-.3,5.1-2.8,11.3-7.6,10.8-3.1-.3-6-3.6-7.6-7.9-1.9,4.2-4.5,7.8-8.2,7.5-5.4-.5-7.3-6.1-9.4-12.4-1,3-3.1,11.6-7.2,11.2-4.4-.4-5.6-7.3-6.9-10.8-1,2.6-3.6,11.3-6.7,11-3.3-.3-5.8-4.2-6.2-9.3-.6-8,0-16.5-.3-24.9,0-1.7-2.2-2.3-3.5-3.5-.3.3-.5.8-.7,1.4-.1.8-5.7,36-12.9,35.3-6.4-.6-7.2-20.3-7.2-20.8l2.5-33.3c-.1-.3-.2-.5-.7-.6-.8,0-1.1,0-5.2-.1-1.9,0-5.2,1-6,.9-.9,0-2.9-1.8-4.5-3.5,0-.6.4-1,.6-1.5,5.3-.5,10.6-.4,16-1.5l.6-8.9c0-.8-.2-.9-.7-1.5,1-1,1.4-1.3,2.2-1.2.9,0,3,1.4,4.4,2.4M322.6,36.2c-2.7-.4-3.5.7-3.7,3.7l-1.8,26.8c0,.9-.1,10,.7,14.6.2,1.5,1.1,2.8,2.2,3.9.6-.3,1.2-.8,1.6-1.4,2.5-4,6.9-23,7.4-30.4.3-4.5-1.7-8.1-1.5-11.3.1-1.7.9-4.1,1.5-5.2-.8-.7-1.6-.6-2.4-.7-.8,0-1,.3-4.1,0M369.3,64.8c-.9,6.6-.8,9.2-.4,10.5,2.1-4.5,4.5-14.9,4.8-20.5,0-1,.3-2.4-.6-3.7-2.7,4-3.2,9.5-3.8,13.8M387.7,63.7c-1.3,5.2-2.9,11.9-4.9,17.6.6.7,1.4,1.5,1.8,2.2,1,1.5,1.3,5.5,3.6,5.7,3.2.3,3.6-6.4,3.6-7.3.4-5.6-1-12.5-3.5-19-.2.3-.4.7-.6.9M264.5,13.5l-3.7,22.5-3.8,43.1c.6,2.4-.4,6.2,2.1,8.9,5.2-9.6,6.1-21.1,9-30.9.3-1,.3-2.5.4-3.8.9-.4,1.8-1.1,2.6-1,1.9.2,3.3,2.6,3.2,4,0,.9-.6,2.5-.8,4-1.1,8.6-1.5,12.3-1.4,19.9,0,2.8-.5,5.6,1.1,8.5h1c2.4-2.4,6.8-20.6,7.2-26.2l.6-8.8c.2-3-.5-6.2,3.7-5.8,1.5.1,2.6.7,2.5,2.2,0,.9-.9,2.7-1.1,3.8-.7,3.9-1.5,11.5-1.5,12.4-.4,6.6-1.4,14.3,2.2,19.2,5.5-6.4,5.6-18.5,7.7-26.2l1.2-12.8c.8-.9,2.6-2.2,3.9-2,2.3.2,3,1.4,2.9,3.6,0,.9-.9,3.8-.9,4.7-.5,7.2,5.9,20.6,5.2,30.5-.4,5.3-2.8,11.4-7.5,11-3.5-.3-5.3-2.6-7.6-7.9-1.5,1.1-3.5,5-5.2,4.9-3.1-.3-4.9-6.4-5.8-8.4-1.5,1.5-1.9,5-2.8,7.3-.8,2.2-4.8,3.5-5.9,3.4-5-.5-5.6-13.4-5.6-14,0-.5,0-1-.3-1.6-1.3,3.3-4.4,15.3-7.4,15.1-4.9-.5-5.3-6.5-6.3-9.7-2.6,4.1-3,11.4-7.9,11-3.3-.3-5.7-6.5-6.6-10.3-1.3,2.5-3.3,9-5.7,8.8-5.9-.5-6.5-17.7-6.6-18.5,0-1.2,0-3.5-.4-5.1-2.9,7.2-2.2,16.2-7.1,23.4-1.1-.6-2.4-1-3.6-1.7-.7-1.1-1.5-2.7-1.7-4.3-.6-5.5-.9-16-.8-16.9l.4-6.6c0-.9-1.1-2.2-1-3.2.2-2.6,1.1-5.9,4.1-5.6,1.3.1,2.5.8,2.3,2.6,0,.9-1.3,5.9-1.4,6.8,0,.9,0,4.2,0,10.8,0,2.9.5,5.8.6,9.1l.3.4c.3-.3.8-.8.9-1.3,1.5-6.4,3.3-13.2,4.6-19.7.7-3.5.4-4.7.9-9.4.2-1.8.9-3.6,1.4-5.7h1.5c1,.2,5.3,1.9,5.1,3.7,0,.9-.5,2.8-.8,4.2-.1.4.3.8-1.3,19.1.7,3.5-.3,8.4,2.6,12.2.3-.2.7-.5.9-.7,4.5-9.2,5.1-20,8.4-29.5,1.2-3.7,3.2-12.8,7.9-12.3.9,0,3,1.7,4.5,2.9.2-.3.4-.8.4-1l3.5-33.6c-1-2.9,2.3-3.9,4-3.7,1.9.2,1.9,4.1,1.9,4.4M246,62.1c-2.4,10.3-1.7,5.9-2.2,13.4-.3,4.7-.9,8.3,1.5,13.5.5-.1,1.4-.8,1.7-1.5.7-1.2,5.7-14.4,6-18.2l1-14.6c.1-2.1-.9-3-2.9-3.1-3.2-.3-4.7,9.1-5,10.6M296.9,71.6c-.9,3.5-3,9.5-3.1,10.4,0,.9,2.6,4.8,3.9,6.8.4.6.9.8,1.6.9,2.4.2,3.5-5,3.5-5.7.5-6.9-1.4-13.5-3.7-20.5-1.1,2.4-1.7,6-2.2,8.2"/>
  <path class="st0" d="M159.2,22.7c0,.9,0,3.2-1,11-.4,3-1,6.4-1.7,9.6-1.1,4.8-2.5,9.6-4.2,14.3-1.8,4.7-6.5,13.4-6.6,14.3-.3,5.1,3.3,17.2,7.5,17.6.7,0,1.8-2,2.2-2.9,3-6.8,4.8-13.7,6.6-20.7.8-2.8,1.4-7.5,2.9-10.5,0,0,1.6-.3,2.4.2,1.7,1.1-.4,5.9-.4,5.9-.3,4.1-8,27.9-8.9,29.8-1.8,3.6-4.1,4-6.4,3.7-7.1-.7-8.1-12.4-10-16.7-2.7,4.7-3.9,17.7-11.4,17-10.8-1-10.3-19.9-10-24.4.2-3.3,2.4-24.4,8-23.8.9,0,3.1,1.1,4.5,2.1,2.4,1.6,1.8,5.4,1.6,7.9-.5,7.1-1.4,9.9-4.2,17.7-1.1,3-4.3,8.3-4.3,9.2-.1,1.8,3.7,6.7,5,6.9,2.7.2,5.2-8.5,5.6-9.7,1.8-5.4,3.2-10.9,4.5-16.4l3.2-33.5c1.4-7,3.1-14.4,4.4-21.4,0-.5.7-1.2,1.2-2,.7,0,1.7-.3,2.5-.3,7.2.7,7.2,10.5,6.9,15.1M153.3,15.8c-.5,2.3-6.7,31.7-7,36.8l-.4,6c.2.1.4.3.6.5,2.4-3.8,7.4-23.1,7.9-31.3.3-4.7.7-6.3-.6-12.5-.2.2-.3.4-.5.5M126.1,66c-.9,7.1-.8,9.8-.4,11.1,2.3-5,4.2-13.9,4.5-19.4,0-.6.2-3.8-.6-5.1-2.4,3.8-2.9,8.8-3.5,13.4"/>
  <path class="st0" d="M108.6,16.2c0,.9-1,4.1-1.3,6.3-.8,5.9-2.2,17.8-4.5,37.1,0,.2,0,.5.2.8,2.5-5.2,2.2-10,7.6-9.5,4.2.4,7,6,6.5,10.8-.5,5.2-.2,8-.3,9-.1,2-3.1,27.9-9.2,27.3-2.2-.2-4.3-3.9-5.2-5.2-.5.4-.9,1.3-2,2-3.9-3.4-3.3-4-3.1-7.5,0-.9-.1-3.4,0-4.9,0-.2,0-.3-.2-.5-1.3,3-3.9,13.6-7.6,13.3-2.9-.3-5-4.6-6.1-7.3-1.8,3.3-2.2,10.3-7.7,9.8-6.4-.6-6.2-17.6-6.1-19.7.5-8,4.1-26,7.6-28.9,2.1.2,5.5.2,7.4,3.6.5.9.9,3,2,4,.7.7,2.2.7,3.3,1.2-1.1,6.9-3.4,21-3.4,21.9-.2,3.1.7,7.5,2.4,10.5.5,0,1.1-.5,1.4-1.1,4.1-8.1,5.4-18.3,7.3-26.6l4.3-45.2c-1.6-4.2,2.2-5.1,4.2-5,1.8.2,2.3,3.5,2.3,4M75.2,78.5c0,.9-.1,3.4-.2,8.6,0,1.2.6,4.5,2.2,5.4.6-.3,1.6-1.1,2-2.2,2.1-5.2,3.1-11.3,4.1-16.8l1.1-11.4c-1.1-2.3-1.6-4.9-2.3-7-.2,0-.4,0-1.1-.1-3.1-.3-5.7,23-5.7,23.5M102.7,85.8c-.1,1.5,4.3,6.5,4.4,6.5,3.5.3,5-17.6,5.1-18.9,0-.9.3-3.5.4-10.3,0-.8.6-7.5-1.7-7.7-4-.4-7.7,23.6-7.7,23.7l-.4,6.6h0Z"/>
  <path class="st0" d="M73.2,30.3c-.7,10.3-15,18.8-22.4,23.1-.2,1.5-.6,3.4-.7,4.3l-.4,6.3-2.3,15.5c0,1.6,2.1,2.2,3.2,3,6.3,5,13.1,10.4,19.9,15.5,1.7,1.3,5.4,3.2,6.1,3.3l5.9.5c-1.3,3-4.6,3.3-6.5,3.1-5.5-.5-15.5-8.7-20.3-12.4-3.3-2.5-6.6-4.8-9.9-6.9-.3.3-.5.8-.7,1.1-2.7,11.1-13.5,12.5-19.4,11.9-7.2-.7-17.1-8.7-19.9-19-.5-1.9-1.5-5.6-1.4-6.6,0-1.3,3.1-6.8,4.2-7,2.2-.5,6.5-.2,7.3-.2,8,.8,18.7,5.5,25.8,9.8.9-1.8,1.6-8.1,1.7-9.1,0-.9.2-3,.2-8.6,0-1.3.1-2.3-1.1-2.4-.8,0-4.5,1.1-5.3,1l-4.6-.4c-.4-.5-.9-1.3-1.7-1.8,0-1.1.9-2.3,1.7-3.4,4.1,1,9.9,1.8,11.4-1.4,1.2-2.5,3.1-43.8,14.4-42.8,7.7.7,15,18.5,14.7,23.3M58.1,16.2c-.4.6-.8,1.8-.9,2.4-3,9-4.2,18.2-5.9,27.4l.3.5c10.5-5.1,14.1-9.8,14.7-18.4.2-3.5-1.4-12.9-6.8-13.4-.7,0-.9,1-1.4,1.6M10,73c-.3,5.1,8.2,16.8,12.1,18.6,3.1,1.5,4,1.6,6.4,1.8.8,0,3,.5,4.6,0,4.9-1.7,7.3-6.9,7.6-10.2.2-2.4-.7-1.7-3.1-3.7-6.9-5.5-15.2-8.4-23.1-9.1-.8,0-4.3,1.2-4.4,2.6"/>
</svg>