<?xml version="1.0" encoding="UTF-8"?><svg id="Layer_2" xmlns="http://www.w3.org/2000/svg" viewBox="0 0 349.77 213.99"><defs><style>.cls-1{fill:#231f20;}.cls-2{fill:#fff;}</style></defs><g id="Layer_1-2"><polygon class="cls-2" points="189.69 126.65 314.86 181.61 345.55 74.75 220.38 19.79 189.69 126.65"/><polygon class="cls-2" points="161.9 126.39 35.67 177.49 7.14 69.72 133.38 18.62 161.9 126.39"/><polygon class="cls-1" points="105.36 87.07 112.63 112.52 134 103.18 126.45 76.75 108.13 84.76 100.85 59.31 79.48 68.64 87.03 95.07 105.36 87.07"/><polygon class="cls-1" points="62.61 105.74 69.88 131.2 91.26 121.86 83.71 95.43 65.38 103.43 58.11 77.98 36.74 87.32 44.29 113.75 62.61 105.74"/><path class="cls-1" d="M346.67,73.97l-121.55-57.73,2.07-6.66c.96-3.09-.29-6.54-2.78-7.73-2.49-1.18-5.29.36-6.25,3.44l-3.8,12.25-31.13,100.22-9.05,29.13-8.46-29.4-29.1-101.15-3.56-12.36c-.9-3.11-3.66-4.74-6.18-3.63-2.52,1.11-3.83,4.53-2.93,7.64l1.93,6.72L3.21,68.69c-2.52,1.11-3.83,4.53-2.93,7.64l29.1,101.15c.9,3.12,3.66,4.74,6.18,3.63l122.68-53.97,10.62,36.91-15.51,49.94c3.55-.46,7.1-.79,10.65-.94l9.84-31.7,6.91,24.03c4.24.93,8.55-.37,11.32-3.49l-12.91-37.69,11.36-36.57,121.55,57.73c2.49,1.18,5.29-.35,6.25-3.44l31.13-100.22c.96-3.09-.29-6.54-2.78-7.73ZM139.56,122.65l-21.36,9.4-5.58-19.52-21.37,9.34,5.59,19.58-21.36,9.4-5.61-19.64-21.37,9.34,5.63,19.7-17.27,7.6-5.68-19.73,17.32-7.57-7.55-26.43-17.37,7.59-7.32-25.44,20.46-8.94-5.25-18.37,21.36-9.4,5.26,18.43,21.37-9.34-5.28-18.49,21.36-9.4,5.3,18.55,21.37-9.34-5.32-18.61,12.22-5.38,5.36,18.62-12.27,5.36,7.55,26.43,12.31-5.38,7.32,25.44-15.41,6.73,5.56,19.46ZM325.23,126.33l-17.21-8.12-8.08,26.19,17.16,8.1-6.07,19.55-17.11-8.13,6.02-19.52-21.18-9.99-6,19.46-21.16-10.05,5.99-19.4-21.18-9.99-5.97,19.34-21.16-10.05,5.95-19.28-15.27-7.2,7.83-25.2,12.2,5.76,8.08-26.19-12.15-5.73,5.73-18.45,12.11,5.75-5.69,18.44,21.18,9.99,5.67-18.38,21.16,10.05-5.65,18.32,21.18,9.99,5.63-18.26,21.16,10.05-5.62,18.2,20.27,9.56-7.83,25.2Z"/><polygon class="cls-1" points="244.19 89.2 236.41 114.43 215.23 104.43 223.31 78.24 241.47 86.81 249.25 61.59 270.43 71.58 262.35 97.77 244.19 89.2"/><polygon class="cls-1" points="286.54 109.19 278.76 134.41 257.58 124.42 265.66 98.23 283.82 106.79 291.6 81.57 312.78 91.56 304.7 117.75 286.54 109.19"/></g></svg>