<?xml version="1.0" encoding="UTF-8"?><svg id="Layer_2" xmlns="http://www.w3.org/2000/svg" viewBox="0 0 261.98 196.43"><defs><style>.cls-1{fill:#d0922a;}.cls-2{fill:#53575a;stroke:#53575a;stroke-miterlimit:10;stroke-width:.91px;}.cls-3{fill:#020000;}</style></defs><g id="Layer_1-2"><path class="cls-3" d="M242.64,5.54c7.62,0,13.79,6.18,13.79,13.79v157.75c0,7.62-6.18,13.79-13.79,13.79H19.34c-7.62,0-13.79-6.18-13.79-13.79V19.34c0-7.62,6.18-13.79,13.79-13.79h223.3M242.64.45H19.34C8.93.45.45,8.93.45,19.34v157.75c0,10.41,8.47,18.89,18.89,18.89h223.3c10.41,0,18.89-8.47,18.89-18.89V19.34c0-10.41-8.47-18.89-18.89-18.89h0Z"/><path class="cls-2" d="M242.64,5.54c7.62,0,13.79,6.18,13.79,13.79v157.75c0,7.62-6.18,13.79-13.79,13.79H19.34c-7.62,0-13.79-6.18-13.79-13.79V19.34c0-7.62,6.18-13.79,13.79-13.79h223.3M242.64.45H19.34C8.93.45.45,8.93.45,19.34v157.75c0,10.41,8.47,18.89,18.89,18.89h223.3c10.41,0,18.89-8.47,18.89-18.89V19.34c0-10.41-8.47-18.89-18.89-18.89h0Z"/><rect class="cls-1" x="5.54" y="5.54" width="250.89" height="185.34" rx="13.79" ry="13.79"/><path class="cls-3" d="M242.64.45H19.34C8.93.45.45,8.93.45,19.34v157.75c0,10.41,8.47,18.89,18.89,18.89h223.3c10.41,0,18.89-8.47,18.89-18.89V19.34c0-10.41-8.47-18.89-18.89-18.89ZM258.98,177.09c0,9.01-7.33,16.34-16.34,16.34H19.34c-9.01,0-16.34-7.33-16.34-16.34V19.34C3,10.33,10.33,3,19.34,3h223.3c9.01,0,16.34,7.33,16.34,16.34v157.75Z"/><path class="cls-3" d="M242.64,3H19.34C10.33,3,3,10.33,3,19.34v157.75c0,9.01,7.33,16.34,16.34,16.34h223.3c9.01,0,16.34-7.33,16.34-16.34V19.34c0-9.01-7.33-16.34-16.34-16.34ZM256.43,177.09c0,7.62-6.18,13.79-13.79,13.79H19.34c-7.62,0-13.79-6.18-13.79-13.79V19.34c0-7.62,6.18-13.79,13.79-13.79h223.3c7.62,0,13.79,6.18,13.79,13.79v157.75Z"/><path class="cls-3" d="M27.31,68.19c.98.19,2.01-.09,2.98-.09s1.95.2,2.6.77c.65.57.89,1.53.89,2.51,0,2.01-.02,4.01-.13,5.99-.11,1.98-.61,3.97-.61,5.97s.07,4.02.1,6.03c.03,2.01.65,4.01.65,6.02s-.06,4.01,0,6.01c.05,2.01.03,4.02.03,6.03s.02,3.99.1,5.97c.08,1.98.15,3.98.15,5.99s-.29,4.02-.24,6.02c.05,2.01.2,4.01.2,6.02,0,1.03.39,1.81.99,2.51.6.71,1.25,1.51,2.17,1.51,2.98,0,5.99-.21,9.03-.24,3.04-.03,6.05-.29,9.03-.29.98,0,1.86.32,2.48.94.62.62.95,1.5.95,2.48s.1,1.95.05,2.9c-.05.95-.28,1.9-.28,2.88s-.49,1.66-1.06,2.34c-.57.68-1.17,1.12-2.15,1.12-2.55,0-5.09-.18-7.64-.32-2.55-.13-5.13.19-7.74.19s-5.18.05-7.73.03c-2.55-.03-5.12.03-7.73.03-.98,0-1.57-.89-2.19-1.41-.62-.52-.95-1.01-.95-1.98,0-1.57-.24-3.14-.13-4.69.11-1.55.13-3.07.13-4.59,0-2.12.31-4.26.12-6.37-.19-2.12-.47-4.21-.47-6.32s-.34-4.23-.37-6.34c-.03-2.12.4-4.23.4-6.35s-.5-4.24-.47-6.35c.03-2.12.62-4.23.62-6.34s-.21-4.23-.18-6.35c.03-2.12-.22-4.23-.22-6.35s.03-4.23-.02-6.34c-.05-2.12-.31-4.23-.31-6.35,0-.98.59-1.97,1.32-2.73.73-.76,1.72-1.32,2.7-1.32s1.9.67,2.88.86Z"/><path class="cls-3" d="M65.68,71.78c0-.92.09-1.72.74-2.37s1.44-1.06,2.37-1.11c1.14,0,2.57,0,4.28-.16,1.71-.16,3.46.06,5.25.06,1.9,0,3.78-.53,5.65-.58,1.87-.05,3.76.38,5.66.38,1.74,0,3.45-.66,5.13-.63,1.68.03,3.11.2,4.31.2s2.24.51,3.03,1.32c.79.81,1.22,1.93,1.22,3.07,0,.81-.25,2.25-.34,4.31-.08,2.06-.07,4.15-.07,6.27s.33,4.23.28,6.32c-.05,2.09-.14,4.18-.14,6.3,0,6.35-.48,6.35-.48,12.69,0,2.12.57,4.21.6,6.3.03,2.09-.12,4.2-.12,6.31s-.22,4.22-.08,6.31c.13,2.09.48,4.19.48,6.3,0,5.25.13,5.25.13,10.5,0,1.09-.54,2.21-1.3,2.99-.76.79-1.87.86-2.96.86-.81,0-1.74.01-2.77.06-1.03.05-1.89-.14-2.6-.14-1.14,0-2.35.2-3.14-.61-.79-.81-1.29-2.04-1.23-3.18,0-.92.61-2.14.77-3.72.16-1.57.41-3.24.41-4.98,0-2.71-.26-5.36-.29-7.93-.03-2.58-.03-4.87-.03-6.88,0-1.03-.46-1.93-1.22-2.69-.76-.76-1.66-1.45-2.69-1.45-.71,0-1.5.07-2.39.04-.9-.03-1.65.17-2.25.17-.98,0-1.99.2-2.7.9-.71.71-.79,1.72-.79,2.7,0,2.12-.26,4.49-.29,7.12-.03,2.63-.22,5.3-.22,8.02,0,1.57.55,3.14.53,4.68-.03,1.55-.28,2.78-.28,3.7,0,1.09-.58,1.83-1.37,2.62-.79.79-1.53,1.77-2.62,1.77-2.64,0-2.64-.16-5.29-.16-1.09,0-1.91-.73-2.67-1.51-.76-.79-1.17-1.63-1.17-2.72,0-1.19,0-2.71.05-4.56.05-1.84.15-3.72.15-5.62,0-2.12-.05-4.22-.18-6.31-.14-2.09-.5-4.18-.5-6.3s.33-4.23.52-6.34c.19-2.12.46-4.24.46-6.35,0-6.31-.22-6.31-.22-12.61,0-2.12-.32-4.24-.29-6.35.03-2.12.56-4.23.56-6.34,0-1.95-.16-3.86-.13-5.74.03-1.87.24-3.51.24-4.92ZM77.25,99.2c0,1.25.69,2.28,1.58,3.12.9.84,1.96,1.18,3.2,1.13.54,0,1.25.02,2.12-.12.87-.13,1.64.07,2.3.01,1.03-.05,1.73-.89,2.41-1.62.68-.73,1.43-1.49,1.43-2.52,0-2.01-.73-4.35-.84-7.06-.11-2.71,0-5.36,0-7.91,0-1.03-.27-1.76-1-2.46-.73-.7-1.48-1.02-2.51-1.02-2.12,0-2.12-.21-4.23-.21-1.09,0-2.02.45-2.84,1.27-.81.81-.85,1.75-.85,2.84,0,2.28-.09,4.73-.14,7.33-.05,2.6-.63,5.01-.63,7.24Z"/><path class="cls-3" d="M129.24,67.27c3.25,0,7.22,1.24,11.56,3.73,4.28,2.5,6.85,5.57,8.48,8.39,2.17,3.8,3.3,5.25,3.22,9.49,0,1.05-.14,1.05-.12,2.1,0,3.31-.54,6.4-1.75,9.2-1.21,2.79-3.03,5.36-5.45,7.63-.17.16-.09-.29.1-.16,2.06,1.95,3.85,4.87,5.37,9.1,1.41,3.85,2.03,7.31,1.71,10.51-.33,3.15-2.07,6.33-4.84,9.97-2.33,3.2-4.73,6.09-7.99,7.82-3.96,2.12-7.68,3.21-10.93,3.21-3.05,0-3.05-.44-6.1-.44-1.3,0-2.59-.2-3.92-.31-1.33-.11-2.61-.17-3.91-.17-.12-.02.12-.23,0-.25-1.36,0-2.68-.05-3.76-.97-1.09-.92-1.7-2.07-1.7-3.38,0-2.33.09-4.67.17-7,.08-2.33.19-4.66.19-7s.12-4.66.2-6.99c.08-2.33.07-4.67.07-7s.29-4.65.4-6.98c.11-2.33-.28-4.68-.28-7.01,0-3.5.39-3.5.39-7s.03-3.5.03-7c0-2.33-.68-4.65-.76-6.98-.08-2.33.41-4.68.41-7.01,0-1.36.39-2.49,1.32-3.55.92-1.06,1.95-1.28,3.25-1.28s2.6-.18,3.93-.04c1.33.14,2.66.03,3.96.03.99,0,.98-.26,1.97-.26,1.14,0,1.62.26,2.74.28,1.11.03.91-.66,2.05-.66ZM129.24,81.25c-.71,0-1.51-.07-2.21-.29-.71-.22-1.25-.92-1.85-.98-.76,0-1.31.75-1.96,1.4s-1.12,1.19-1.12,1.95c0,2.55.09,5.1.15,7.65.05,2.55.09,5.1.09,7.65,0,.71.03,1.51.63,1.94.6.43,1.44.59,2.2.59.54,0,1.11-.02,1.73.11.62.14,1.28.48,1.93.48,2.49,0,4.53-1.32,6.4-2.89,1.87-1.57,2.97-3.45,3.46-5.89.65-3.31.4-6.23-1.52-8.59-1.93-2.36-4.67-3.13-7.93-3.13ZM128.83,134.24c2.6,0,4.76-.71,6.85-2.15,2.09-1.44,3.81-3,4.3-5.33.65-3.31-.56-6.19-2.75-8.85-2.2-2.66-4.74-4.12-7.99-4.12-.65,0-1.32.09-2.03.15-.71.05-1.39.09-2.04.09-.71,0-1.51.04-1.94.63-.43.6-.59,1.44-.59,2.2,0,2.55,0,5.09-.15,7.64-.16,2.55-.52,5.11-.52,7.65,0,.71.78,1.07,1.35,1.48.57.41,1.1.56,1.86.56.6,0,1.18.45,1.78.48.6.03,1.23-.44,1.88-.44Z"/><path class="cls-3" d="M197.43,76.99c0,.98-.87,1.53-1.63,2.2-.76.68-1.41,1.55-2.44,1.55-2.93,0-5.86-.55-8.79-.52-2.93.03-5.86.45-8.79.45-1.03,0-2.02.17-2.76.93-.73.76-.75,1.76-.75,2.79,0,2.23-.05,4.45-.02,6.67.03,2.22-.25,4.42-.25,6.59,0,1.03.51,1.81,1.22,2.46.7.65,1.52.76,2.55.76,2.93,0,5.85.5,8.78.72,2.93.22,5.87-.05,8.8-.05,1.03,0,2.03.42,2.73,1.05.7.62.74,1.57.74,2.54,0,.87,0,1.76.08,2.63.08.87.73,1.74.73,2.66,0,1.03-.6,2.13-1.38,2.94-.79.81-1.87,1.02-2.9,1.02-2.93,0-5.86.12-8.79.18-2.93.05-5.86.28-8.79.28-1.03,0-1.83.07-2.45.66-.62.6-1.25,1.38-1.25,2.41,0,6.63.58,6.63.58,13.26,0,1.03.12,1.8.74,2.47.62.68,1.35,1.47,2.39,1.47,2.93,0,5.86-.36,8.79-.25,2.93.11,5.86.1,8.79.1,1.03,0,2.08.28,2.87.96.79.68.88,1.67.88,2.65,0,.92-.18,1.78-.31,2.64-.14.87.4,1.81.4,2.73,0,1.03-.9,1.63-1.55,2.28-.65.65-1.25,1.15-2.28,1.15-2.39,0-4.79-.06-7.17.1-2.39.16-4.76.09-7.15.09s-4.75.18-7.11.05c-2.36-.13-4.74,0-7.13,0-1.52,0-2.89-.52-3.94-1.55-1.06-1.03-1.32-2.39-1.32-3.91,0-1.25-.48-2.46-.53-3.65-.05-1.19-.05-2.42-.05-3.67,0-1.74.33-3.47.25-5.17-.08-1.71-.26-3.42-.26-5.16s.03-3.46.19-5.17c.16-1.71.49-3.43.49-5.16,0-2.12-.48-4.23-.57-6.38-.08-2.14.19-4.28.19-6.4,0-5.17-.09-5.17-.09-10.33,0-5.17-.26-5.17-.26-10.33,0-1.08.47-2.17.55-3.29.08-1.11.14-2.22.14-3.31,0-.38-.49-.86-.41-1.29.08-.43.6-.8.6-1.23,0-1.03.14-1.91.73-2.5.6-.6,1.47-.94,2.5-.94,2.55,0,5.07.02,7.57-.2,2.49-.22,5.02-.31,7.57-.31s5.09.24,7.64.29c2.55.05,5.08.13,7.57.13.98,0,2-.08,2.7.68.7.76,1.1,1.82,1.1,2.85,0,.87-.39,1.78-.31,2.7.08.92.58,1.8.58,2.67Z"/><path class="cls-3" d="M209.99,67.76c.98.19,1.92.57,2.9.57s1.7.26,2.35.83c.65.57,1.15,1.23,1.15,2.21,0,2.01.11,4.01,0,5.99-.11,1.98-.64,3.96-.64,5.97s.07,4.02.1,6.02c.03,2.01.44,4.01.44,6.02s-.14,4.01-.09,6.02c.05,2.01-.34,4.02-.34,6.02s.78,3.99.86,5.97c.08,1.98.12,3.99.12,6s-.62,4.02-.56,6.03c.05,2.01.26,4.01.26,6.01,0,1.03.1,2.15.69,2.86.6.71,1.65.76,2.58.76,2.98,0,5.99-.15,9.03-.17,3.04-.03,6.05.08,9.03.08.98,0,1.55.59,2.18,1.21.62.62,1.47,1.2,1.47,2.18s-.43,1.94-.48,2.88c-.05.95.02,1.92.02,2.89s-.44,1.68-1.01,2.36c-.57.68-1.2.88-2.17.88-2.55,0-5.09.05-7.64-.09-2.55-.13-5.13.07-7.74.07s-5.18.15-7.73.12c-2.55-.03-5.12-.2-7.73-.2-.98,0-1.6-.6-2.22-1.12-.62-.52-1.25-1.05-1.25-2.02,0-1.57-.12-3.15-.01-4.7.11-1.55.19-3.06.19-4.58,0-2.12.07-4.22-.12-6.34-.19-2.12.14-4.24.14-6.36s-.25-4.23-.27-6.35c-.03-2.12.13-4.23.13-6.35s-.49-4.23-.46-6.35c.03-2.12.07-4.23.07-6.34s-.03-4.23,0-6.35c.03-2.12.63-4.23.63-6.34s-.14-4.24-.2-6.35c-.05-2.12-.41-4.23-.41-6.34,0-.98.75-1.61,1.48-2.37.73-.76,1.35-1.6,2.32-1.6s1.98.17,2.96.36Z"/><path class="cls-3" d="M21.75,176.17c-.35,0-.64-.13-.9-.37-.26-.24-.29-.53-.29-.88,0-.58-.1-1.15-.11-1.73,0-.58,0-1.15,0-1.71,0-1.72.07-1.72.07-3.44,0-.58-.07-1.15-.05-1.73.02-.58,0-1.15,0-1.71s-.03-1.14,0-1.71c.03-.58.18-1.14.18-1.71,0-1.72-.13-1.72-.13-3.44,0-.36.12-.72.34-1,.22-.27.55-.32.88-.32.11,0,.2.02.3.04.1.02.22-.1.33-.1.35,0,.64.19.88.44.24.25.32.56.32.92,0,.58.15,1.15.17,1.73.02.58-.02,1.15-.02,1.71s-.03,1.13-.02,1.71c0,.58.04,1.15.04,1.71s-.03,1.13-.01,1.71c.02.58,0,1.15,0,1.73s-.09,1.14-.15,1.72c-.07.58.07,1.16.07,1.72s-.07,1.13-.04,1.71c.03.58-.04,1.15-.04,1.73,0,.35-.09.59-.33.81-.24.21-.51.35-.87.35-.11,0-.19.09-.3.12s-.22-.02-.33-.02Z"/><path class="cls-3" d="M45.24,164.72c.04.12.04.3.14.34.11.04.21-.1.29-.16.09-.06.2-.11.2-.25,0-.59,0-1.18,0-1.78.01-.6.04-1.19.04-1.78s-.08-1.18-.1-1.77c-.03-.59-.02-1.18-.02-1.77,0-.29.12-.52.33-.72.21-.19.45-.23.76-.23.16,0,.31-.13.48-.17.16-.04.34-.08.51-.08.31,0,.53.22.77.46s.38.44.38.74c0,.59.07,1.18.04,1.75-.03.58-.08,1.16-.08,1.75s.06,1.18.08,1.77c.02.59,0,1.18,0,1.75s-.08,1.16-.14,1.75c-.06.59-.14,1.18-.14,1.75s.18,1.17.24,1.76c.06.59.05,1.18.05,1.76s-.15,1.17-.18,1.75c-.03.58.05,1.17.05,1.76,0,.3-.05.59-.26.79-.21.2-.51.18-.82.18-.26,0-.5.11-.75.11-.24,0-.49.03-.74.03-.52,0-.77-.33-.92-.79-.21-.63-.45-1.26-.67-1.89-.22-.63-.43-1.26-.65-1.89-.21-.63-.47-1.25-.69-1.87-.22-.62-.53-1.22-.75-1.85-.07-.19-.12-.28-.27-.26-.15.02-.31.12-.31.32,0,.59.13,1.19.11,1.78-.03.6-.14,1.19-.14,1.78s-.05,1.18-.06,1.78c-.01.6,0,1.19,0,1.78,0,.31-.07.54-.28.77-.21.23-.42.41-.72.41-.49,0-.49-.08-.99-.08-.3,0-.58-.03-.76-.26-.18-.23-.13-.53-.13-.84,0-.59-.09-1.18-.14-1.77-.05-.59-.09-1.17-.09-1.75s-.04-1.16-.05-1.75c0-.59-.05-1.17-.05-1.75s.05-1.16.05-1.75c0-.59-.04-1.18-.04-1.77,0-1.75-.05-1.75-.05-3.5,0-.59.03-1.18.05-1.75.02-.58.16-1.16.16-1.75,0-.29-.03-.6.19-.81.22-.21.54-.28.85-.28.24,0,.49.11.75.1.25,0,.5-.08.74-.08s.46.04.66.17c.19.13.24.34.31.55.21.63.49,1.24.72,1.87.23.62.52,1.23.74,1.86.21.63.41,1.27.62,1.9.21.63.46,1.25.67,1.88Z"/><path class="cls-3" d="M67.14,156.9c1.14.34,2.11.76,2.86,1.3.93.64,1.72,1.37,2.31,2.17.68.9,1.13,1.88,1.45,2.83.24.72.37,1.77.37,3.12,0,.04.1-.04.1,0,0,1.18-.25,2.35-.68,3.51-.32.87-.92,1.89-1.89,2.98-.83.94-1.82,1.59-2.81,2.13-1.01.54-2.1.88-3.32,1.04-.35.04-.62-.04-.89-.24-.28-.2-.36-.41-.36-.74,0-.58-.1-1.16-.06-1.73.04-.58.01-1.15.01-1.73s.08-1.16.08-1.74c0-.58-.11-1.16-.11-1.74s0-1.15.01-1.73c0-.58.19-1.15.19-1.73s-.02-1.16-.04-1.74c-.02-.58-.04-1.16-.04-1.74s-.07-1.15-.04-1.73c.03-.58.14-1.15.14-1.73,0-.34.05-.59.29-.82.24-.23.5-.31.82-.27.72.08,1.28.11,1.64.22.02,0,.07.11.06.13-.03.03-.14-.03-.09-.01ZM67.13,171.59c0,.17.07.25.25.34.18.09.27.08.41-.02.97-.6,1.77-1.34,2.33-2.36.56-1.01.84-2.08.84-3.23s-.31-2.15-.9-3.2c-.62-1.11-1.33-1.96-2.2-2.51-.15-.09-.26-.04-.42.06-.16.1-.32.19-.32.38,0,.59,0,1.18.03,1.77.02.59.02,1.17.02,1.75s-.04,1.16-.05,1.75c-.01.59.1,1.18.1,1.77s.03,1.18,0,1.75c-.03.58-.08,1.16-.08,1.75Z"/><path class="cls-3" d="M94.53,172.99c.29,0,.6-.05.8-.23.2-.17.15-.47.15-.75,0-.6.12-1.21.13-1.82.01-.61,0-1.22,0-1.82,0-1.82-.01-1.82-.01-3.64,0-.6-.05-1.21-.06-1.81-.01-.6.08-1.21.08-1.81s-.09-1.21-.07-1.82c.03-.61.05-1.21.05-1.82,0-.28.13-.52.29-.69.16-.17.39-.29.67-.29.19,0,.38.04.57,0,.19-.03.37,0,.56,0,.27,0,.48.04.65.24.17.2.33.44.33.73,0,.59-.04,1.18-.05,1.77,0,.59.01,1.18.01,1.77s.03,1.18.04,1.77c.01.59-.09,1.18-.09,1.77s0,1.19.04,1.78c.05.59.07,1.17.07,1.76s.06,1.18.02,1.76-.01,1.17-.01,1.76-.01,1.18,0,1.77c.02.59-.01,1.18-.01,1.77,0,.28-.09.53-.29.74-.2.21-.44.34-.72.34-.6,0-1.21-.03-1.83-.02-.62,0-1.23.09-1.83.09s-1.2-.14-1.81-.17c-.6-.03-1.22-.03-1.83-.03-.28,0-.57-.01-.76-.2-.19-.19-.3-.48-.3-.76,0-.59.05-1.18.02-1.77-.03-.59-.12-1.18-.12-1.77,0-1.77.15-1.77.15-3.54,0-.59-.12-1.18-.1-1.76.02-.58.16-1.17.16-1.76s-.12-1.18-.14-1.77c-.01-.59.07-1.18.07-1.77s.03-1.18.04-1.77c0-.59-.12-1.18-.12-1.77,0-.28.24-.47.44-.69.2-.22.37-.49.65-.49.56,0,.56.13,1.13.13.28,0,.53.07.73.29.2.22.22.47.22.76,0,.6.18,1.21.21,1.82.03.61,0,1.22,0,1.83s-.08,1.21-.15,1.82c-.07.61-.06,1.22-.06,1.82s.03,1.2.09,1.81c.06.6-.01,1.21-.01,1.81,0,1.82.04,1.82.04,3.64,0,.28.19.45.35.62.17.17.33.25.61.25.49.02.49.11.98.11Z"/><path class="cls-3" d="M123.24,161.45c0,.25-.02.51-.2.68-.18.17-.44.28-.7.28-.21,0-.42.03-.65.05-.22.02-.46-.04-.68-.04-.24,0-.48-.09-.63-.28s-.24-.44-.24-.69c0-.15.04-.31-.01-.46-.05-.15-.17-.3-.17-.44,0-.25.05-.52-.1-.68s-.42-.19-.68-.19c-.59,0-.59.1-1.19.1-.25,0-.52-.05-.72.11s-.35.41-.35.65c0,1.93.16,1.93.16,3.86,0,.24.08.38.28.56.2.17.37.39.62.39.11,0,.19.03.29.05.09.02.21-.13.32-.13.62,0,1.24.04,1.87.06.63.02,1.25.16,1.87.16.27,0,.52-.02.71.13.19.15.19.38.19.62,0,.51,0,1.01,0,1.51,0,.5-.05.99-.05,1.49s.15,1.01.11,1.51c-.04.51-.2,1.01-.2,1.5s-.02,1,.01,1.51c.03.51.19,1.01.19,1.5,0,.24-.2.37-.37.53-.17.15-.33.38-.59.38-1.87,0-1.87-.04-3.74-.04s-1.88-.05-3.76-.05c-.27,0-.44-.15-.62-.3-.19-.15-.32-.28-.32-.52,0-.68-.06-1.37-.02-2.04.05-.67.11-1.34.11-2.03,0-.25.06-.5.21-.65s.39-.24.65-.24c.23,0,.45-.01.68-.07.23-.05.46.02.67.02.25,0,.53,0,.73.2.2.21.21.49.21.74,0,.15.03.3.03.45,0,.15.04.31.04.45,0,.25.02.5.18.7s.38.35.62.35c.59,0,.59-.13,1.19-.13.24,0,.37-.08.52-.28.15-.19.28-.38.28-.64,0-.46.09-.91.12-1.36.03-.46.02-.91.02-1.35,0-.25-.09-.51-.26-.7-.17-.19-.43-.29-.68-.29-.09,0-.19.06-.28.1-.09.04-.19.14-.3.14-.62,0-1.24-.1-1.87-.12-.63-.02-1.26.06-1.89.06-.25,0-.41-.24-.61-.42-.19-.18-.31-.33-.31-.58,0-.56,0-1.13.03-1.7.02-.57.02-1.14.02-1.7s-.12-1.13-.1-1.7c.01-.57.21-1.13.21-1.7s-.16-1.13-.14-1.7c.01-.57.15-1.14.15-1.7,0-.25.07-.39.22-.53.15-.14.29-.19.54-.19.63,0,1.25-.18,1.88-.26.63-.07,1.26-.14,1.88-.14s1.24.06,1.87.1c.63.04,1.25.02,1.87.02.25,0,.47.2.69.39.21.18.25.37.25.61,0,.67.16,1.35.12,2.04-.03.68-.16,1.36-.16,2.03Z"/><path class="cls-3" d="M139.24,159.56c-.19,0-.4.03-.54-.08-.14-.11-.25-.31-.25-.48,0-.31,0-.62-.02-.93-.01-.31.07-.63.07-.94,0-.17.1-.27.26-.38.15-.11.29-.29.48-.29.67,0,1.34.14,2,.12.66-.02,1.33-.1,2-.1s1.34.08,2.01.1c.67.03,1.34-.07,2.01-.07.43,0,.56.24.56.61,0,.31.01.63.05.94.03.32.23.62.23.93,0,.17-.22.26-.38.38-.15.12-.28.26-.46.26-.3,0-.59.06-.89.07s-.6-.09-.9-.09c-.19,0-.38.07-.5.19-.13.12-.26.3-.26.47,0,.51.12,1.02.1,1.53-.02.51-.13,1.02-.13,1.53s.01,1.02.06,1.53c.05.5.07,1,.07,1.51s.13,1.02.08,1.52c-.05.5-.17,1-.17,1.51s0,1.02.01,1.53c.02.51,0,1.02,0,1.53s.07,1.02.05,1.52c-.01.5.1,1.01.1,1.52,0,.19-.15.35-.26.49-.11.13-.26.2-.44.2-.31,0-.62-.04-.94-.03-.32,0-.63.07-.94.07-.17,0-.34-.08-.44-.22-.11-.14-.15-.32-.15-.51,0-.51.04-1.02,0-1.52s-.07-1.01-.07-1.52.06-1.02.09-1.52c.03-.51-.06-1.02-.06-1.53s.02-1.02,0-1.52c-.02-.5-.05-1.01-.05-1.52s.05-1.02.06-1.53c.01-.51-.05-1.02-.05-1.53s-.02-1.02-.04-1.52c-.01-.5.09-1.01.09-1.52,0-.19-.16-.32-.28-.46-.11-.14-.22-.27-.39-.27-.9-.02-.9,0-1.79,0Z"/><path class="cls-3" d="M173.83,174.86c.09.32-.03.56-.25.84s-.44.45-.78.45c-.24,0-.49.01-.73.03-.24.02-.49.09-.74.09-.21,0-.35-.18-.53-.33-.18-.15-.27-.3-.34-.51-.19-.63-.41-1.25-.62-1.87-.21-.62-.55-1.2-.75-1.83-.19-.63-.29-1.29-.49-1.91-.2-.62-.37-1.25-.57-1.88,0-.04.05-.07,0-.07-.17,0-.37.08-.58,0s-.33-.2-.45-.26c-.11-.06-.22.02-.34.05-.11.03-.17.1-.25.27-.17.39-.25.72-.28,1.01-.03.3-.18.55-.12.73.06.18.24.41.32.76.07.35.03.72.03,1.1,0,.6-.07,1.2-.09,1.81-.02.6.07,1.21.07,1.81,0,.28-.13.51-.32.72-.19.21-.4.41-.68.41-.57,0-.57-.13-1.15-.13-.27,0-.47-.06-.65-.26-.18-.21-.27-.44-.27-.73,0-.59-.12-1.18-.13-1.78-.01-.6,0-1.19,0-1.78s.12-1.18.15-1.77c.03-.59-.05-1.19-.05-1.79s.02-1.18-.04-1.77c-.06-.59-.16-1.18-.16-1.77s-.02-1.18,0-1.78c0-.6.05-1.19.05-1.78s.13-1.18.16-1.78c.03-.6-.11-1.19-.11-1.78,0-.25.12-.52.28-.7.16-.19.4-.14.63-.14.7,0,1.4-.06,2.11-.04.71.02,1.42-.04,2.13-.04,1.14,0,2.09.27,2.84.73.76.47,1.34,1.24,1.83,2.25.42.86.6,1.72.63,2.63.03,1.1-.03,2.01-.39,2.73-.38.72-1.03,1.41-1.93,2.07,0,.42.08.72.16.96.09.23.25.46.4.73.15.28.15.65.26,1,.13.46.37.87.52,1.31.15.44.22.9.36,1.36.13.44.21.91.35,1.36.14.45.34.88.47,1.32ZM166.84,159.72c-.25,0-.47.15-.47.42,0,.68.04,1.37,0,2.06-.04.69-.06,1.38-.06,2.06,0,.15.1.25.2.35s.19.27.33.27c.19,0,.4,0,.6-.04.2-.03.39-.06.59-.06.51,0,.96-.25,1.39-.49.44-.24.82-.51,1.02-.94.42-.83.33-1.81-.32-2.82-.38-.59-1.02-.93-1.81-.93-.24,0-.48.13-.73.14-.25.01-.49-.03-.74-.03Z"/><path class="cls-3" d="M190.34,176.09c-.35,0-.67-.03-.92-.27-.25-.24-.39-.56-.39-.9,0-.58.12-1.15.11-1.73,0-.58-.13-1.15-.13-1.71,0-1.72.12-1.72.12-3.44,0-.58-.18-1.16-.16-1.73.02-.58.17-1.14.17-1.71s.04-1.13.06-1.71c.03-.58-.08-1.15-.08-1.71,0-1.72.05-1.72.05-3.44,0-.36.06-.72.28-1,.22-.27.55-.29.89-.29.11,0,.19,0,.3.03.1.02.22.02.33.02.35,0,.63.07.88.32.24.25.36.55.36.92,0,.58.04,1.15.06,1.73.02.58.06,1.15.06,1.71s-.01,1.13,0,1.71c0,.58-.1,1.15-.1,1.71s.18,1.13.2,1.71c.02.58-.07,1.16-.07,1.73s-.11,1.14-.17,1.72c-.07.58-.1,1.16-.1,1.72s.2,1.13.22,1.71c.03.58-.06,1.16-.06,1.74,0,.35-.12.63-.36.84-.24.21-.54.31-.9.31-.11,0-.21.02-.31.05-.1.03-.2-.03-.31-.03Z"/><path class="cls-3" d="M216.89,158.72c0,.24-.05.48-.24.65-.19.17-.44.12-.7.12-.72,0-1.45.2-2.17.2-.72,0-1.45-.01-2.17-.01-.25,0-.52-.03-.7.16-.18.19-.24.46-.24.71,0,.55.07,1.1.07,1.65,0,.55-.06,1.09-.06,1.63,0,.25.12.46.29.62.17.16.38.34.64.34.72,0,1.45-.08,2.17-.03.72.05,1.45.03,2.17.03.25,0,.47.14.65.29.17.15.36.36.36.6,0,.21-.02.42,0,.64.02.21.04.44.04.67,0,.25-.18.48-.37.69-.19.2-.42.33-.68.33-.72,0-1.45-.09-2.17-.07-.72.01-1.45.13-2.17.13-.25,0-.52-.04-.67.11-.15.15-.24.41-.24.67,0,1.64.15,1.64.15,3.28,0,.25-.02.48.13.65.15.17.38.26.63.26.72,0,1.45.07,2.17.1.72.03,1.45-.05,2.18-.05.25,0,.45.12.65.29.19.17.34.34.34.58,0,.23-.04.45-.08.66-.03.21-.11.44-.11.66,0,.26-.02.46-.18.62s-.36.19-.62.19c-.59,0-1.18.1-1.77.14-.59.04-1.18,0-1.77,0s-1.18.02-1.76-.02c-.58-.03-1.17-.09-1.76-.09-.38,0-.66-.12-.92-.38-.26-.25-.49-.53-.49-.91,0-.31-.02-.61-.03-.9-.01-.29,0-.6,0-.91,0-.43,0-.85-.03-1.28-.02-.42-.06-.85-.06-1.28s.15-.85.19-1.27.06-.85.06-1.28c0-.52-.1-1.05-.12-1.58-.02-.53-.08-1.06-.08-1.58,0-1.28.03-1.28.03-2.56s-.03-1.28-.03-2.56c0-.27.02-.55.05-.82.02-.27.06-.54.06-.81,0-.09-.02-.21,0-.32.02-.11.02-.2.02-.31,0-.25.19-.44.33-.59.15-.15.33-.33.59-.33.63,0,1.26.11,1.88.06.62-.05,1.24-.1,1.87-.1s1.26-.05,1.89-.04c.63.01,1.25.1,1.87.1.24,0,.49,0,.66.19.17.19.31.45.31.7,0,.21-.09.44-.07.67.02.23.04.45.04.66Z"/><path class="cls-3" d="M241.48,161.45c0,.25-.09.52-.28.68-.18.17-.44.29-.7.29-.21,0-.43-.08-.65-.06-.22.02-.45,0-.67,0-.24,0-.45-.06-.6-.25s-.13-.42-.13-.67c0-.15-.2-.27-.25-.42-.05-.15-.05-.33-.05-.48,0-.25.05-.53-.1-.68s-.43-.2-.68-.2c-.59,0-.59-.02-1.19-.02-.25,0-.45.18-.65.34s-.37.32-.37.56q0,1.93,0,3.86c0,.24.17.41.38.58.2.17.4.36.65.36.11,0,.2,0,.29.02.09.02.21.01.31.01.62,0,1.24-.1,1.87-.08.63.02,1.25.09,1.87.09.27,0,.55.02.74.18.19.15.25.42.25.66,0,.51-.06,1.01-.06,1.51,0,.5-.02.99-.02,1.49s.11,1.01.07,1.52c-.04.51-.2,1.01-.2,1.5s.1,1,.12,1.51c.03.51.05,1.01.05,1.51,0,.24-.06.5-.24.65-.17.15-.44.18-.7.18-1.87,0-1.87.08-3.74.08s-1.88,0-3.76,0c-.27,0-.53-.12-.72-.27-.19-.15-.29-.39-.29-.63,0-.68.1-1.36.14-2.03.05-.67.11-1.35.11-2.04,0-.25,0-.46.14-.62s.35-.31.61-.31c.23,0,.46.09.69.03.23-.05.44-.13.66-.13.25,0,.49.12.69.32.2.21.33.44.33.7,0,.15-.11.3-.11.45,0,.15.04.31.04.46,0,.25.13.46.29.66s.34.24.58.24c.59,0,.59,0,1.19,0,.24,0,.41-.04.56-.23.15-.19.18-.41.18-.68,0-.46.02-.92.05-1.37.03-.46.18-.9.18-1.34,0-.25-.18-.45-.35-.64-.17-.19-.36-.3-.62-.3-.09,0-.15.1-.24.14-.09.04-.23.06-.34.06-.62,0-1.24-.1-1.87-.12-.63-.02-1.26.06-1.89.06-.25,0-.48-.18-.67-.36-.19-.18-.28-.4-.28-.65,0-.56-.08-1.13-.06-1.7.02-.57.04-1.13.04-1.7s.15-1.13.17-1.7c.01-.57.03-1.14.03-1.7s-.03-1.13-.02-1.7c.01-.57.04-1.14.04-1.7,0-.25-.04-.5.11-.64.15-.14.39-.2.65-.2.63,0,1.27.07,1.9,0,.63-.07,1.25-.24,1.86-.24s1.25,0,1.88.03c.63.04,1.25.11,1.87.11.25,0,.43.2.64.38.21.18.41.32.41.56,0,.67-.02,1.35-.05,2.03-.03.68-.03,1.36-.03,2.03Z"/><polygon class="cls-3" points="134.4 50.43 134.42 53.6 145.73 43.92 135.91 48.22 135.89 45.56 126.02 54.1 134.4 50.43"/><path class="cls-3" d="M92.51,51.96c-.24,0-.51-.04-.79-.1-.33-.07-.58-.17-.73-.29l-.41.93c.61.31,1.26.46,1.96.46.59,0,1.07-.14,1.43-.42.4-.3.6-.74.6-1.32,0-.52-.24-.91-.71-1.18-.18-.1-.62-.26-1.31-.47-.48-.15-.72-.32-.72-.52,0-.3.23-.44.68-.44.25,0,.52.03.79.09.33.07.57.17.71.3l.33-.94c-.43-.29-.97-.43-1.62-.43-.52,0-.97.1-1.37.3-.5.24-.74.61-.74,1.07,0,.52.24.91.73,1.17.18.06.31.1.38.13l.99.31c.5.15.74.39.74.7,0,.44-.31.66-.93.66"/><rect class="cls-3" x="96.9" y="47.7" width="1.1" height="5.2"/><polygon class="cls-3" points="100.53 52.9 101.7 52.9 101.7 49.33 103.91 52.9 105.1 52.9 105.1 47.7 103.92 47.7 103.92 50.66 102.02 47.7 100.53 47.7 100.53 52.9"/><path class="cls-3" d="M110.18,52.96c.95,0,1.67-.33,2.14-.98l-1.1-.51c-.24.26-.58.39-1.03.39s-.79-.15-1.02-.46c-.22-.28-.33-.64-.33-1.1,0-1.04.45-1.57,1.35-1.57.5,0,.89.18,1.15.53l1.06-.59c-.46-.69-1.2-1.03-2.21-1.03-.82,0-1.47.24-1.94.71-.46.47-.7,1.11-.7,1.94,0,.77.24,1.4.74,1.91.5.5,1.12.75,1.89.75"/><polygon class="cls-3" points="118.13 48.63 118.13 47.7 114.65 47.7 114.65 52.9 118.13 52.9 118.13 51.98 115.8 51.98 115.8 50.56 117.23 50.56 117.23 49.64 115.8 49.64 115.8 48.63 118.13 48.63"/><path class="cls-3" d="M153.58,51.13c.69-.42,1.09-.66,1.19-.73.44-.29.66-.67.66-1.15,0-.52-.15-.91-.45-1.18-.3-.26-.71-.4-1.23-.4-.8,0-1.48.24-2.05.74l.66.83c.51-.39.93-.59,1.28-.59.19,0,.35.04.49.1.17.08.26.21.26.37,0,.21-.09.4-.26.55-.53.33-.91.55-1.13.68-.36.21-.66.51-.91.88-.25.37-.38.76-.38,1.18v.49h3.77v-1.03h-2.4c0-.24.16-.49.5-.74"/><path class="cls-3" d="M159.88,53c.78,0,1.33-.27,1.66-.82.25-.43.39-1.05.39-1.88s-.13-1.46-.39-1.88c-.33-.53-.88-.81-1.66-.81s-1.33.27-1.66.81c-.26.43-.39,1.06-.39,1.88s.14,1.46.39,1.88c.33.54.88.82,1.66.82M159.12,49.22c.12-.42.37-.62.76-.62s.62.21.74.62c.07.24.11.6.11,1.08s-.04.84-.11,1.08c-.13.42-.37.62-.74.62s-.62-.21-.75-.62c-.06-.22-.1-.58-.1-1.08s.03-.88.09-1.09"/><path class="cls-3" d="M166.36,47.61c-.78,0-1.33.27-1.66.81-.26.43-.39,1.06-.39,1.88s.14,1.46.39,1.88c.33.54.88.82,1.66.82s1.33-.27,1.66-.82c.25-.43.39-1.05.39-1.88s-.13-1.46-.39-1.88c-.33-.53-.88-.81-1.66-.81M167.1,51.38c-.13.42-.37.62-.74.62s-.62-.21-.75-.62c-.06-.22-.1-.58-.1-1.08s.03-.88.09-1.09c.12-.42.37-.62.76-.62s.62.21.74.62c.07.24.11.6.11,1.08s-.04.84-.11,1.08"/><path class="cls-3" d="M171.26,52.9h1.1v-5.21h-.95c0,.3-.23.45-.69.45v.88h.54v3.87Z"/><path class="cls-3" d="M60.82,55.35c1.38.15,2.64-.3,3.8-1.35.51-.46.94-1,1.3-1.62l1.33.24.3-2.17-1.04-.13c.05-1.34-.48-2.65-1.64-3.92-1.11-1.23-2.32-1.91-3.64-2.01-1.35-.12-2.65.4-3.86,1.51-1.23,1.12-1.87,2.34-1.88,3.67-.03,1.32.52,2.59,1.65,3.83,1.05,1.16,2.27,1.83,3.67,1.96M58.82,47.48c1.29-1.16,2.66-.94,4.12.68.56.62.92,1.21,1.08,1.74l-1.9-.32-.54,2.1,1.97.31c-.14.15-.26.29-.39.4-1.24,1.13-2.61.89-4.08-.74-1.46-1.61-1.55-3-.26-4.17"/><path class="cls-3" d="M71.7,46.58c1.08.14,2.2-.18,3.34-.97,1.17-.8,1.86-1.72,2.12-2.75.27-1.08.02-2.2-.77-3.35l-3.59-5.26-2.04,1.4,3.43,5.01c.86,1.26.72,2.3-.42,3.08-1.14.78-2.14.53-3.01-.74l-3.43-5.01-2.03,1.39,3.6,5.27c.78,1.14,1.71,1.78,2.79,1.92"/><path class="cls-3" d="M84.36,39.89l-.32-2.28,3.02-1.52,1.62,1.62,2.31-1.16-8.17-7.75-2.21,1.11,1.39,11.16,2.36-1.19ZM85.72,34.76l-1.98,1-.52-3.48,2.49,2.48Z"/><polygon class="cls-3" points="101.23 32.76 100.52 30.76 95.69 32.49 92.83 24.52 90.61 25.31 94.18 35.29 101.23 32.76"/><rect class="cls-3" x="103.64" y="21.03" width="2.25" height="10.6" transform="translate(-3.25 27.12) rotate(-14.53)"/><polygon class="cls-3" points="113.02 21.33 114.34 29.69 116.74 29.31 115.42 20.95 118.65 20.44 118.32 18.34 109.44 19.74 109.77 21.84 113.02 21.33"/><polygon class="cls-3" points="127.19 28.38 129.66 28.32 129.55 24.22 133.18 17.62 130.49 17.7 128.31 22.09 125.84 17.82 123.03 17.9 127.08 24.41 127.19 28.38"/><path class="cls-3" d="M149.38,30.17c1.22.23,2.39.05,3.51-.53,1.21-.62,1.94-1.52,2.16-2.71l.22-1.18-4.9-.91-.35,1.9,2.29.43c-.18.38-.55.63-1.1.77-.45.12-.93.13-1.42.04-.93-.17-1.56-.61-1.92-1.3-.32-.62-.4-1.41-.22-2.35.42-2.23,1.53-3.19,3.35-2.85.45.08.88.3,1.31.62.41.32.66.69.75,1.1l2.32-.79c-.7-1.67-2.03-2.69-3.99-3.05-1.65-.31-3.03-.04-4.16.78-1.11.83-1.83,2.06-2.14,3.71-.29,1.54-.03,2.9.77,4.11.81,1.18,1.97,1.92,3.51,2.21"/><path class="cls-3" d="M162.53,33.6c1.59.53,2.97.47,4.14-.17,1.14-.61,1.98-1.73,2.52-3.32.53-1.57.51-2.96-.04-4.18-.55-1.21-1.62-2.08-3.17-2.6-1.58-.53-2.95-.48-4.12.15-1.16.62-2.02,1.72-2.55,3.31-.52,1.56-.5,2.93.07,4.15.58,1.24,1.62,2.14,3.16,2.66M161.79,27.63c.69-2.06,1.86-2.82,3.51-2.27,1.64.55,2.12,1.86,1.43,3.92-.69,2.06-1.86,2.82-3.51,2.27-1.64-.55-2.12-1.86-1.43-3.92"/><path class="cls-3" d="M175.45,39.01c1.5.76,2.88.89,4.13.43,1.21-.44,2.21-1.43,2.96-2.93.75-1.48.93-2.86.56-4.14-.37-1.28-1.31-2.29-2.77-3.03-1.48-.75-2.85-.9-4.1-.43-1.24.45-2.24,1.41-3,2.91-.74,1.47-.91,2.83-.52,4.12.39,1.31,1.3,2.35,2.75,3.08M175.56,32.99c.98-1.95,2.24-2.53,3.79-1.75,1.55.78,1.83,2.14.85,4.09-.98,1.94-2.24,2.53-3.79,1.75-1.55-.78-1.83-2.14-.85-4.09"/><path class="cls-3" d="M191.93,46.22c.99-.37,1.8-1.02,2.44-1.94.41-.59.68-1.24.82-1.93.24-1.16.05-2.25-.5-3.3-.5-.93-1.26-1.77-2.31-2.5l-3.05-2.11-6.02,8.71,2.96,2.05c1.96,1.35,3.85,1.7,5.66,1.02M190.2,37.53l.67.46c.93.64,1.52,1.37,1.81,2.19.33.92.17,1.83-.45,2.72-.62.9-1.41,1.36-2.38,1.36-.85.02-1.74-.31-2.67-.95l-.67-.46,3.68-5.33Z"/><path class="cls-3" d="M197.09,53.83c.89.8,1.81,1.25,2.74,1.31,1.01.09,1.92-.31,2.71-1.19.7-.78.88-1.7.52-2.76-.14-.4-.58-1.24-1.35-2.5-.53-.87-.65-1.45-.38-1.76.41-.45.95-.37,1.64.25.39.34.75.74,1.07,1.21.41.57.63,1.04.68,1.43l1.78-.99c-.25-1.02-.88-1.98-1.87-2.87-.78-.7-1.61-1.17-2.48-1.41-1.09-.31-1.95-.09-2.58.61-.71.8-.87,1.72-.48,2.77.19.34.33.57.4.71l1.08,1.81c.55.91.6,1.6.18,2.07-.6.67-1.37.58-2.32-.27-.37-.33-.72-.75-1.06-1.22-.41-.57-.64-1.05-.72-1.44l-1.89.86c.5,1.29,1.28,2.41,2.34,3.36"/></g></svg>