<?xml version="1.0" encoding="UTF-8"?><svg id="Layer_2" xmlns="http://www.w3.org/2000/svg" viewBox="0 0 416.71 101.04"><defs><style>.cls-1{fill:#fff;}</style></defs><g id="Layer_1-2"><path class="cls-1" d="M37.82,82.75c-1.88,1.76-4.03,3.01-6.45,3.81-2.19.72-4.43,1.07-6.74,1.01-1.52-.04-2.92-.47-4.21-1.28-.63-.4-1.21-.87-1.75-1.38-1.05-.98-2.12-1.93-3.19-2.88-1-.89-2.16-1.52-3.42-1.92-.7-.22-1.45-.27-2.18-.39-.11-.02-.23,0-.34.02-1.25.17-2.46.47-3.57,1.12-.39.23-.82.41-1.23.61-.1.05-.21.09-.32.11-.12.03-.22-.02-.27-.14-.02-.04,0-.13.03-.16,1.42-1.57,3.19-2.6,5.14-3.31.97-.35,1.98-.59,3-.68,1.73-.16,3.42-.02,5.03.71.36.17.74.3,1.12.44.7.26,1.39.54,2.1.75.65.19,1.3.43,2,.46,1.37.07,2.74.05,4.08-.31,1.72-.47,3.34-1.16,4.84-2.14.39-.25.72-.57.97-.96.81-1.25,1.23-2.59.85-4.1-.06-.22-.07-.46-.13-.68-.15-.56-.4-1.08-.78-1.52-.45-.53-.98-.96-1.62-1.26-1.54-.71-3.16-1-4.84-.78-1.53.2-3.06.38-4.56.7-1.19.26-2.37.29-3.57.28-.93,0-1.8-.25-2.65-.61-1.92-.8-3.35-2.16-4.4-3.95-.01-.02.03-.1.06-.12.04-.03.11-.06.15-.05.67.17,1.27.49,1.85.87.53.34,1.09.66,1.71.78,1.14.22,2.26.2,3.38-.2,1.03-.37,1.98-.89,2.92-1.43,1.64-.94,3.27-1.88,4.91-2.83,1.14-.66,2.36-1.16,3.61-1.56.92-.29,1.86-.55,2.85-.56.23,0,.46,0,.68-.06,1.01-.24,2.04-.24,3.07-.27,1.49-.04,2.95-.29,4.4-.63,2.93-.7,5.38-2.19,7.32-4.51.9-1.08,1.54-2.28,1.86-3.66.21-.91.19-1.82-.12-2.72-.62-1.81-1.87-3.01-3.61-3.69-1.23-.48-2.52-.72-3.84-.79-.8-.04-1.61-.01-2.39-.12-.85-.12-1.71-.14-2.56-.15-2.4-.02-4.8-.04-7.2-.05-1.5,0-2.94-.35-4.36-.79-.7-.22-1.31-.72-2.09-.72-.82-.41-1.64-.82-2.27-1.52-.07-.08-.16-.19-.17-.29-.02-.16,0-.34.03-.5.03-.12.32-.24.44-.22.17.04.34.06.49.13.52.23,1.04.48,1.55.73.82.41,1.68.74,2.56.97,1.27.33,2.57.6,3.89.47.96-.09,1.93-.22,2.87-.45,1.89-.45,3.74-1.04,5.59-1.62,1.25-.39,2.5-.79,3.76-1.18,1.37-.43,2.8-.55,4.21-.73.28-.04.57,0,.85.04.34.04.68.12,1.01.16,1.79.24,3.41.89,4.89,1.93.94.66,1.78,1.44,2.58,2.27,1.28,1.32,2.62,2.57,4.03,3.75.58.48,1.17.92,1.87,1.21.26.11.54.19.82.23.68.08,1.37.05,2.04-.11,2.56-.61,5.08-1.35,7.52-2.32,2.18-.87,4.35-1.75,6.53-2.6,1.49-.58,2.96-1.21,4.51-1.65,1.1-.31,2.2-.61,3.35-.64.4,0,.8-.06,1.19-.13.46-.08.9-.08,1.36,0,.34.06.68.11,1.02.11,1.1,0,2.15.29,3.21.52,1,.22,1.99.52,2.98.77,1,.24,1.98.55,3.02.55,1.02.26,2.03.13,3.06,0,1.74-.21,3.32-.79,4.79-1.74.53-.34,1.03-.73,1.53-1.11,1.93-1.45,3.95-2.75,6.22-3.6,1.94-.72,3.91-1.26,6-1.29.29,0,.57-.02.86-.03,2.42-.08,4.79.21,7.1.9,2.08.62,4.16,1.24,6.23,1.88,3.76,1.17,7.52,2.36,11.27,3.55.87.28,1.74.55,2.61.85,1.94.67,3.93.76,5.92.44,1.91-.31,3.81-.71,5.68-1.24,1.56-.44,2.98-1.14,4.35-1.99.39-.24.74-.54,1.08-.85.69-.63,1.24-1.39,1.41-2.32.21-1.09.14-2.18-.41-3.19-.25-.46-.52-.89-.87-1.28-.63-.68-1.3-1.29-2.08-1.79-1.06-.68-2.18-1.27-3.33-1.77-2.23-.97-4.57-1.46-6.99-1.47-3.66-.01-7.31.01-10.97.02-.46,0-.9.06-1.36.14-1.57.3-3.15.55-4.71.85-1.85.36-3.7.71-5.53,1.16-.89.22-1.79.36-2.67.59-.95.24-1.92.26-2.87.43-.79.14-1.59.2-2.38.22-2.86.09-5.71.06-8.57,0-1.14-.02-2.29.01-3.41-.26-.16-.04-.34-.03-.51-.05-.97-.06-1.94-.06-2.89-.35-2.35-.35-3.98-.67-6.37-1.29-1.66-.42-3.32-.84-5.05-.9-.28,0-.56-.08-.85-.12-1.14-.15-2.28-.15-3.42,0-.51.06-1.02.12-1.53.17-.28.03-.57.03-.85.08-2.31.43-4.56,1.07-6.7,2.05-1.4.64-2.84,1.21-4.26,1.82-1.58.68-3.21,1.21-4.84,1.71-2.08.64-4.23,1-6.38,1.2-2.28.21-4.57.1-6.85,0-.06,0-.11,0-.17-.02-1.4-.3-2.83-.31-4.23-.6-2.13-.45-4.22-.97-6.26-1.75-1.55-.59-3.05-1.3-4.5-2.1-1.41-.77-2.89-1.39-4.38-1.97-.53-.21-1.07-.41-1.65-.43-.93-.04-1.81.05-2.67.45-1.87.86-3.77,1.65-5.69,2.4-1.7.66-3.4,1.33-5.11,1.99-1.51.59-3.08.8-4.7.75-1.16-.04-2.26-.28-3.34-.67-.81-.3-1.59-.63-2.36-1.03-.91-.48-1.83-.95-2.77-1.36-1.74-.77-3.55-1.25-5.48-1.19-.46.01-.91,0-1.37.03-.57.02-1.13.11-1.69.25-1.23.29-2.4.74-3.5,1.38-.19.11-.39.18-.59.27,0,0-.08-.09-.08-.13.02-.11.05-.23.11-.32.63-.83,1.41-1.5,2.3-2.05,2.19-1.36,4.57-2.03,7.15-2.03,1.33,0,2.62.24,3.9.47,1.74.31,3.47.66,5.18,1.13.66.18,1.34.3,2.02.37.68.06,1.38.08,2.05,0,1.83-.21,3.56-.78,5.14-1.77.92-.57,1.86-1.12,2.81-1.66,2.05-1.18,4.2-2.05,6.54-2.47,1.37-.25,2.72-.22,4.09-.16,1.45.34,2.96.21,4.41.59,1.09.05,2.14.32,3.2.56,2.56.57,5.1,1.22,7.69,1.68,1.4.25,2.8.56,4.23.61.23,0,.45.05.68.08,1.99.28,3.98.29,5.96-.1,2.13-.42,3.79-1.54,5.02-3.32.39-.57.69-1.2.92-1.85.58-1.66.44-2.92-.69-4.17-.12-.13-.22-.26-.35-.38-1.03-.92-2.08-1.8-3.32-2.42-2.29-1.13-4.7-1.76-7.25-1.79-.91-.01-1.84-.03-2.74.1-1.92.29-3.81.72-5.6,1.54-.41.19-.85.34-1.27.51-2.26.96-4.53,1.91-6.84,2.74-.7.25-1.4.52-2.14.59-1.43.15-2.84.04-4.23-.43-1.89-.64-3.47-1.73-4.73-3.28-.72-.89-1.43-1.79-2.11-2.72-.72-.99-1.61-1.79-2.59-2.49-.99-.71-2.1-1.22-3.3-1.37-1.53-.18-3.07-.21-4.6.18-.77.2-1.56.37-2.35.45-.85.08-1.71.06-2.57.04-1.47-.04-2.78-.58-4-1.38-1.36-.89-1.67-2.25-1.66-3.75,0-.11.07-.22.12-.32.02-.05.07-.09.12-.12.03-.01.11,0,.12.03.22.4.43.81.65,1.22.19.35.38.71.6,1.05.32.49.77.85,1.31,1.07.75.3,1.54.47,2.34.42.91-.05,1.83-.15,2.72-.34,2.57-.54,5.15-1.02,7.73-1.49,1.02-.19,2.06-.21,3.07-.02,1.47.28,2.87.76,4.13,1.6.76.51,1.51,1.03,2.26,1.57,2.22,1.59,4.68,2.37,7.4,2.22.97-.05,1.92-.25,2.86-.51,1.87-.53,3.73-1.06,5.6-1.61,1.64-.48,3.28-.98,4.93-1.45,1.65-.48,3.32-.87,5-1.14,1.4-.22,2.81-.5,4.25-.49.51,0,1.02-.1,1.53-.15,1.03-.1,2.05-.11,3.08,0,.34.04.68.11,1.02.13,1.14.06,2.27.18,3.4.38,2.16.38,4.22,1.01,6.13,2.1,1.29.73,2.55,1.52,3.74,2.43.77.59,1.5,1.25,2.25,1.87,1.11.92,2.13,1.92,3.06,3.02,1.83,2.16,3.91,4.04,6.04,5.87.74.63,1.55,1.18,2.36,1.72,1.01.66,2.09,1.19,3.25,1.52.93.27,1.85.59,2.8.8,2.89.65,5.8,1.25,8.76,1.52.23.02.46.05.68.11.5.14,1.01.16,1.53.2.51.04,1.02.13,1.53.19.28.04.57.09.85.1,1.26.01,2.52.06,3.77,0,.97-.05,1.93-.19,2.88-.37,2.93-.54,5.76-1.42,8.54-2.47.66-.25,1.2-.65,1.69-1.15.69-.72,1.14-1.58,1.45-2.52.17-.5.18-1.03.09-1.54-.12-.64-.42-1.2-.96-1.58-.52-.36-1.08-.65-1.7-.8-1.39-.34-2.79-.62-4.22-.66-2.28-.06-4.57-.06-6.85-.09,0,.02,0,.04,0,.06-1.66,0-3.31,0-4.97,0-1.31,0-2.63.04-3.93-.23-.17-.03-.34-.03-.51-.04-1.14-.05-2.29-.06-3.4-.35-1.43-.08-2.81-.46-4.21-.76-1.45-.32-2.85-.81-4.22-1.42-1-.44-1.94-.99-2.81-1.65-1.29-.97-2.42-2.1-3.35-3.43-.6-.85-1.22-1.67-1.82-2.51-.46-.66-.91-1.33-1.35-2-.02-.04-.04-.12-.02-.14.08-.1.19-.11.3-.05,1.24.71,2.47,1.45,3.65,2.26,1.09.75,2.21,1.43,3.41,1.98,1.41.66,2.88,1.1,4.44,1.2.34.02.69.05,1.02.13.56.13,1.13.15,1.7.17,1.25.05,2.51.01,3.75.28.17.04.34.03.51.04,2.63.1,5.25.17,7.88.05.4-.02.81-.02,1.19-.12.67-.16,1.36-.19,2.04-.25.74-.07,1.47-.19,2.2-.29.17-.02.34-.02.51-.03.63-.03,1.25-.06,1.87-.21.33-.08.68-.09,1.02-.11,1.14-.07,2.28-.05,3.41-.3.22-.05.45-.04.68-.05,2.34-.08,4.68-.13,7.03-.03.34.01.69,0,1.03.07,1.52.25,3.04.5,4.55.79,1.4.26,2.79.59,4.19.84,2.59.48,5.11,1.18,7.62,1.97,3.21,1.01,6.38,2.16,9.54,3.35,2.19.83,4.43,1.54,6.51,2.63.96.5,1.94.99,2.9,1.48,4.58,2.35,9.16,4.71,13.75,7.04,1.89.96,3.8,1.87,5.75,2.68,2.43,1,4.9,1.91,7.45,2.54,1.72.43,3.44.86,5.22.89.28,0,.57.04.85.09.57.11,1.13.1,1.7,0,.34-.06.68-.09,1.02-.1,1.33-.03,2.59-.42,3.84-.82.43-.14.84-.36,1.25-.57.73-.38,1.29-.95,1.7-1.66.55-.96.89-1.99,1.06-3.08.03-.22.03-.47,0-.69-.18-.87-.56-1.63-1.21-2.24-.21-.2-.45-.36-.67-.54-1.27-1.01-2.74-1.66-4.24-2.23-2.52-.95-5.12-1.6-7.81-1.84-.23-.02-.46-.04-.68-.09-1.28-.29-2.61-.29-3.9-.52-.78-.14-1.58-.2-2.37-.33-.79-.13-1.58-.22-2.37-.35-1.93-.34-3.76-.95-5.52-1.79-1.71-.81-3.34-1.76-4.93-2.78-1.21-.77-2.35-1.65-3.32-2.71-.62-.68-1.21-1.39-1.76-2.12-.55-.74-1.04-1.52-1.54-2.29-.18-.29-.35-.6-.37-.95,0-.13,0-.24.12-.3.04-.02.11-.01.15,0,2.04,1.15,4.02,2.42,5.99,3.69,1.45.93,2.93,1.78,4.51,2.47,3.27,1.42,6.67,2.35,10.22,2.69.23.02.46.02.68.08.78.2,1.59.21,2.38.21,1.66,0,3.31,0,4.97-.02.51,0,1.03-.03,1.53-.12.62-.11,1.25-.16,1.88-.16,2.86,0,5.71,0,8.57.01.34,0,.69-.01,1.03.05,1.24.23,2.5.21,3.76.24,1.84.03,3.64.3,5.41.75,1.94.49,3.8,1.22,5.53,2.27,1.72,1.04,3.36,2.19,4.95,3.41,1.41,1.08,2.77,2.22,4.05,3.46,1.66,1.59,3.15,3.33,4.58,5.14.78.99,1.61,1.95,2.46,2.88.97,1.06,2.01,2.05,2.99,3.1.72.77,1.57,1.33,2.54,1.72,1.75.72,3.51,1.39,5.32,1.9,1.76.5,3.53.93,5.37,1.04.28.02.57.08.85.11.45.05.91.09,1.36.13,1.67.13,3.31-.14,4.94-.38,1.41-.2,2.81-.52,4.16-1,1.4-.5,2.84-.85,4.28-1.21,2.11-.52,4.24-.9,6.43-.89,1.43,0,2.86.04,4.28.06,1.43.01,2.83.33,4.24.53,1.3.18,2.57.55,3.89.6.17,0,.34.03.51.07,1.44.34,2.84-.02,4.23-.33.39-.09.76-.25,1.12-.41.56-.23.91-.66,1.14-1.23.23-.58.1-.99-.47-1.28-.25-.13-.51-.26-.77-.38-2.15-.93-4.24-1.99-6.33-3.07-1.33-.69-2.72-1.19-4.16-1.58-1.33-.36-2.67-.63-4.05-.62-.46,0-.91,0-1.37,0-1.79-.05-3.52.27-5.24.74-.88.24-1.75.52-2.62.81-2.06.69-4.14,1.29-6.26,1.77-1.57.35-3.14.57-4.75.53-1.8-.04-3.5-.48-5.11-1.27-1.3-.64-2.43-1.51-3.44-2.54-1.49-1.51-2.97-3.03-4.47-4.54-.65-.65-1.3-1.29-1.97-1.92-.93-.87-1.97-1.59-3.14-2.07-1.44-.59-2.92-.96-4.5-.6-.85.2-1.7.11-2.53-.19-.18-.07-.24-.24-.13-.39.49-.69,1.13-1.11,1.94-1.33.56-.15,1.11-.23,1.69-.27,1.44-.1,2.86.07,4.24.42,3.32.83,6.62,1.74,9.86,2.88,1.67.59,3.36,1.13,5.03,1.71,1.15.4,2.32.59,3.53.56.34,0,.69-.02,1.03-.01,1.4.01,2.7-.41,3.97-.95.97-.41,1.74-1.09,2.29-2.01.56-.95.63-1.97.38-3.01-.18-.73-.55-1.39-1.06-1.96-1.02-1.14-2.27-1.92-3.76-2.27-1.61-.37-3.24-.7-4.9-.71-.29,0-.58,0-.85-.06-.96-.2-1.93-.18-2.9-.2-1.6-.02-3.2-.02-4.8-.06-2.34-.05-4.68.05-7.02-.23-1.02-.12-2.05-.07-3.08-.11-.46-.02-.93.01-1.37-.09-1.17-.28-2.39-.19-3.55-.55-1.88-.22-3.7-.7-5.52-1.17-1.27-.33-2.5-.81-3.62-1.52-1.55-.99-2.96-2.16-4.19-3.55-.07-.08-.12-.19-.16-.3-.02-.04-.01-.11,0-.16.06-.13.16-.18.28-.11.34.21.68.42,1.01.65,3.05,2.05,6.44,3.21,10.04,3.73,1.46.21,2.93.48,4.43.45.34,0,.68.07,1.02.11.4.04.79.1,1.19.11,1.88,0,3.77.14,5.64-.18.17-.03.34-.03.51-.03,1.37-.06,2.74-.03,4.09-.34.11-.03.23-.02.34-.03.8-.04,1.59-.1,2.38-.28.78-.17,1.59-.1,2.37-.33.32-.09.68-.08,1.02-.12.34-.03.69-.02,1.02-.1.78-.2,1.58-.23,2.38-.27.4-.02.81-.02,1.19-.11.73-.16,1.47-.17,2.22-.17,1.43-.02,2.84.06,4.27.25,1.59.21,3.15.54,4.65,1.09,1.62.6,3.14,1.4,4.48,2.49,2.19,1.77,4.2,3.74,6.06,5.86,1.25,1.43,2.58,2.77,4.02,4,1.23,1.05,2.54,1.96,3.93,2.76,3.09,1.78,6.38,3.07,9.84,3.92,2.23.55,6.77,1.42,9.06,1.8.96.16,1.93.24,2.88.42.56.11,1.13.19,1.7.22.57.03,1.14.08,1.7.2.44.09.91.1,1.36.13,1.14.06,2.28.03,3.41.26.28.06.57.04.85.04,1.09.01,2.17,0,3.26.03,1.23.04,4.17-.33,5.6-.67,1.9-.45,3.72-1.1,5.47-1.96,1.2-.59,2.27-1.35,3.13-2.37,1.05-1.25,1.49-2.65,1.12-4.33-.34-1.52-1.15-2.66-2.42-3.41-2.14-1.28-4.47-2.03-6.96-2.21-.68-.05-1.37-.04-2.05-.14-.63-.09-1.25-.13-1.88-.14-2.23-.04-4.46-.08-6.68-.12-.51,0-1.04.02-1.54-.06-.8-.12-1.59-.12-2.39-.14-1.54-.03-3.08-.05-4.63-.09-1.14-.03-2.29,0-3.41-.25-.17-.04-.34-.03-.51-.04-1.25-.07-2.51-.05-3.75-.35-.16-.04-.34-.04-.51-.04-1.09,0-2.14-.38-3.22-.45-3.45-.79-6.59-2.19-9.31-4.54-1.27-1.1-2.34-2.36-3.33-3.7-.1-.14-.16-.3-.23-.46-.02-.05-.02-.12,0-.17.07-.13.16-.11.3-.06,1.61.59,3.18,1.29,4.69,2.11.96.51,1.92,1.02,2.9,1.5.67.33,1.35.64,2.05.87,2.83.94,5.71,1.61,8.68,1.89.23.02.46.03.68.09.73.19,1.47.2,2.21.21,1.54.01,3.09,0,4.63,0,.46,0,.92,0,1.37-.09.9-.19,1.81-.21,2.73-.26.34-.02.69,0,1.02-.08.84-.2,1.7-.22,2.55-.27.34-.02.69-.02,1.02-.1.67-.16,1.36-.19,2.04-.23.34-.02.69-.02,1.02-.1.73-.18,1.47-.2,2.21-.25.34-.02.69-.04,1.02-.12.73-.19,1.47-.16,2.21-.24.74-.08,1.47-.2,2.2-.3.06,0,.11,0,.17-.01,2.4-.15,4.8-.12,7.19.02.23.01.46.02.68.06,1.68.31,3.37.57,5.04.95,2.25.51,4.34,1.4,6.28,2.67,1.49.98,2.9,2.05,4.18,3.29.83.8,1.63,1.62,2.47,2.4,1.93,1.8,3.97,3.47,6.04,5.1.4.32.83.62,1.26.89,1.55.98,3.24,1.4,5.07,1.22.99-.09,1.66-.79,1.72-1.82.01-.23.01-.46.02-.69.02-.91-.3-1.7-.91-2.36-.35-.38-.73-.74-1.15-1.02-1.06-.7-2.02-1.51-2.93-2.38-.29-.28-.61-.52-.9-.79-1-.94-2-1.89-2.99-2.85-.42-.4-.74-.87-1.01-1.39-.32-.61-.59-1.24-.83-1.89-.4-1.12-.42-2.26-.23-3.41.07-.45.25-.89.56-1.24.03-.04.1-.06.15-.06.04,0,.1.04.11.07.15.44.27.88.42,1.31.48,1.38,1.19,2.61,2.22,3.65.9.9,1.91,1.64,3.01,2.27,1.91,1.09,3.97,1.75,6.1,2.22,1.89.42,3.82.68,5.73,1.01,1.63.28,3.24.64,4.85,1.03,2.29.56,4.22,1.72,5.91,3.34,2.19,2.1,3.74,4.63,4.77,7.49.47,1.31.75,2.65.76,4.05.03,2.83.03,5.65-.1,8.47-.02.46-.08.92-.16,1.37-.3,1.62-.17,3.2.36,4.77.32.93.76,1.8,1.23,2.66.44.81.89,1.61,1.36,2.4,1.71,2.87,3.07,5.92,4.26,9.04.31.81.56,1.63.74,2.48.14.68.12,1.37-.06,2.06-.31,1.2-.87,2.24-1.71,3.14-1.5,1.59-3.09,3.08-4.97,4.21-.98.59-1.92,1.25-2.81,1.98-2.36,1.96-4.02,4.39-4.75,7.41-.23.95-.46,1.9-.71,2.85-.29,1.11-.57,2.23-.95,3.32-1.24,3.52-3.34,6.39-6.32,8.62-1.75,1.31-3.65,2.37-5.64,3.25-1.04.46-2.11.89-3.18,1.29-1.66.63-3.36,1.11-5.14,1.25-.23.02-.46.04-.68.09-.62.16-1.24.15-1.87.17-.86.02-1.7-.15-2.55-.23-1.61-.15-3.14-.58-4.65-1.11-2.8-.99-5.57-2.09-8.3-3.25-2.26-.96-4.56-1.83-6.9-2.58-1.47-.47-2.94-.92-4.47-1.14-.88-.3-1.81-.24-2.7-.44-.56-.12-1.13-.17-1.7-.18-.63-.01-1.26-.02-1.89-.02-1.26,0-2.51-.03-3.75.26-.33.08-.68.05-1.02.09-.34.04-.68.07-1.02.14-.84.16-1.68.34-2.51.51-2.63.53-5.24,1.14-7.8,1.95-2.18.7-4.32,1.49-6.36,2.53-.41.21-.82.41-1.23.61-.12.06-.23.03-.3-.06-.03-.04-.06-.1-.05-.15.19-.85.52-1.64.97-2.38.73-1.2,1.72-2.16,2.83-2.97.92-.68,1.87-1.33,2.85-1.93,1.91-1.16,3.92-2.13,6.06-2.79,2.08-.64,4.2-1.06,6.37-1.27.28-.03.58-.02.85-.09.73-.19,1.46-.23,2.21-.28.28-.02.57-.08.85-.12.45-.06.9-.17,1.36-.18.98-.04,1.92-.29,2.87-.46.67-.12,1.31-.39,1.96-.62.44-.15.8-.44,1.11-.78.45-.5.62-1.09.55-1.75-.08-.72-.38-1.33-.92-1.8-.61-.53-1.28-.97-2.05-1.22-.71-.23-1.41-.48-2.11-.72-1.51-.52-3.05-.95-4.63-1.22-1.6-.27-3.19-.25-4.78-.03-1.41.19-2.8.49-4.2.8-3.14.7-6.16,1.72-9.05,3.12-1.34.65-2.67,1.31-4,1.98-2.76,1.39-5.51,2.8-8.3,4.12-3.26,1.54-6.54,3.03-9.86,4.41-4.44,1.84-8.92,3.54-13.51,4.96-1.97.61-3.96,1.12-5.98,1.48-1.29.23-2.58.51-3.9.49-.34,0-.68.05-1.02.1-1.37.2-2.73.22-4.09-.05-.33-.07-.68-.07-1.02-.11-.28-.04-.57-.08-.84-.15-1.91-.47-3.66-1.29-5.31-2.34-.63-.4-1.21-.87-1.79-1.34-.54-.43-1.01-.93-1.32-1.57-.07-.15-.15-.29-.11-.48.03-.12.17-.11.44.05.25.14.49.3.74.44,3.03,1.76,6.26,2.77,9.78,2.72.46,0,.92-.02,1.37,0,1.55.07,3.08-.19,4.59-.45,2.31-.39,4.54-1.09,6.73-1.96,2.53-1.01,4.77-2.47,6.74-4.35,1.54-1.47,2.26-3.28,2.12-5.44-.04-.54-.24-1-.6-1.4-.27-.3-.58-.56-.95-.73-.52-.23-1.03-.5-1.58-.66-1.86-.56-3.73-1.05-5.64-1.42-.9-.17-1.81-.25-2.7-.42-.91-.17-1.81-.24-2.72-.25-1.83,0-3.66.02-5.48.04-.4,0-.81,0-1.19.09-.84.19-1.7.2-2.55.26-.28.02-.58.02-.85.09-1.28.3-2.62.22-3.89.56-2.14.25-4.12.67-6.19,1.29-4.15,1.26-7.92,3.24-11.38,5.87-1.41,1.07-2.81,2.17-4.24,3.22-2.45,1.81-5.05,3.37-7.89,4.48-3.33,1.3-6.75,2.13-10.33,2.17-1.31.01-2.63-.03-3.94-.02-1.44.01-2.83-.35-4.25-.49-2.9-.6-5.8-1.23-8.69-1.89-1.39-.32-2.8-.56-4.21-.73-.96-.12-1.94-.09-2.9-.27-.28-.05-.57-.02-.85-.03-.92-.06-1.82.17-2.73.21-1.5.07-2.94.4-4.37.78-3.76,1.01-6.91,2.98-9.27,6.15-.31.41-.64.81-.97,1.21-.07.09-.17.17-.27.2-.1.03-.23.03-.32-.02-.26-.16-.4-.42-.42-.72-.05-.8-.08-1.61-.1-2.42-.02-1.03.37-1.92,1.01-2.69.81-.97,1.68-1.89,2.69-2.65,1.56-1.18,3.26-2.12,5.12-2.76,2.61-.9,5.28-1.45,8.05-1.45,1.83,0,3.66-.09,5.46.32,1.37.11,2.7.42,4.05.64,1.52.25,3.02.61,4.54.83.84.12,1.69.28,2.53.43,1.29.23,2.58.49,3.89.61.23.02.46.05.68.11.5.14,1.01.16,1.53.2.63.05,1.25.12,1.87.2.63.07,1.25.08,1.88-.01.51-.07,1.02-.12,1.53-.19.28-.04.57-.06.85-.12,1.46-.31,2.87-.78,4.21-1.43.67-.32,1.3-.71,1.93-1.11.54-.34,1-.79,1.25-1.39.28-.7.47-1.43.38-2.19-.15-1.33-.49-2.61-1.26-3.72-.23-.33-.48-.65-.77-.92-.77-.71-1.65-1.26-2.66-1.53-1.43-.39-2.9-.72-4.37-.77-2.79-.1-5.6-.17-8.38.22-.28.04-.57.04-.85.06-1.14.05-2.28.04-3.41.3-.33.08-.68.05-1.02.08-.34.03-.7,0-1.02.09-1.11.29-2.28.22-3.38.55-2.27.27-4.49.82-6.73,1.21-2.47.43-4.9,1.1-7.4,1.35-.89.26-1.81.26-2.72.26-1.54.02-3.08.02-4.63,0-1.2-.01-2.39-.09-3.58-.29-1.25-.21-2.46-.51-3.64-.95-1.07-.4-2.13-.84-3.15-1.36-1.53-.78-3.05-1.57-4.59-2.33-.62-.31-1.16-.72-1.65-1.22-1.12-1.15-2.14-2.4-3.05-3.73-1.57-2.28-2.87-4.71-4.21-7.12-.05-.09-.04-.22-.03-.32,0-.04.09-.12.11-.11.25.13.51.26.74.42,1.49,1.07,2.98,2.13,4.46,3.22,1.99,1.46,3.96,2.93,5.95,4.39.6.44,1.2.88,1.82,1.3,2.81,1.91,5.94,2.89,9.28,3.29,1.71.03,3.42.16,5.13-.17.45-.09.91-.08,1.36-.13.51-.06,1.02-.13,1.53-.19.4-.05.79-.1,1.19-.15.34-.04.69-.04,1.02-.1,1.01-.17,2.02-.39,3.03-.53,2.26-.31,4.5-.77,6.75-1.14.84-.14,1.69-.28,2.52-.47,3.62-.81,7.23-1.65,10.85-2.45,1.73-.38,3.46-.75,5.22-.9.28-.02.56-.08.85-.12.4-.05.79-.14,1.19-.15,3.02-.05,6.05-.22,9.06.24,1.41.22,2.82.41,4.21.73.78.18,1.55.37,2.33.57,1.22.31,2.44.6,3.68.79,1.75.26,3.51.44,5.29.41,2.51-.04,5.03-.02,7.54-.03,1.89,0,3.75-.39,5.63-.41.17,0,.34-.07.5-.09.45-.06.91-.12,1.36-.16.34-.04.69-.01,1.02-.09,1.28-.32,2.61-.27,3.89-.58.77-.19,1.58-.25,2.36-.39,1.01-.17,2.03-.3,3.04-.46.79-.12,1.58-.2,2.38-.24.91-.04,1.82-.11,2.73-.2,1.48-.15,2.97-.15,4.45.01.74.08,1.48.15,2.22.19.46.03.93,0,1.37.1,1.17.28,2.37.31,3.55.55,1.06.22,2.13.4,3.18.65,1.78.42,3.55.87,5.32,1.3.68.16,2.88.52,3.38.53.97.01,1.94.01,2.91,0,.51,0,1.02-.07,1.53-.18,1.34-.29,2.68-.55,4.03-.81,2.47-.47,4.91-1.02,7.34-1.65,1.82-.47,3.63-1.01,5.51-1.21.82-.27,1.7-.22,2.53-.4.85-.18,1.7-.22,2.55-.26.46-.02.91-.02,1.37-.06.74-.05,1.48-.18,2.22-.17.8,0,1.59.14,2.39.18,1.31.07,2.62.13,3.92.37,1.01.19,2.01.39,3.02.61,2.74.6,5.39,1.5,7.99,2.55,1.75.71,3.51,1.37,5.31,1.95,2.45.78,4.95,1.36,7.53,1.56.34.03.68.1,1.02.15.34.05.68.11,1.02.11,1.03.02,2.06.02,3.08.03.59,0,1.13-.16,1.66-.38,1.54-.65,2.28-1.84,2.34-3.5.02-.64-.07-1.26-.26-1.87-.31-1-.73-1.94-1.27-2.83-.57-.94-1.27-1.77-2.14-2.46-2.58-2.05-5.38-3.69-8.49-4.78-1.78-.63-3.59-1.13-5.49-1.25-.34-.02-.68-.1-1.02-.14-.4-.05-.79-.11-1.19-.13-1.2-.07-2.4-.04-3.58-.3-.17-.04-.34-.03-.51-.03-1.26-.04-2.51-.1-3.77-.12-1.08-.01-2.17,0-3.23.29-.27.07-.56.08-.85.12-.96.15-1.92.28-2.87.46-2.02.38-4.01.9-5.99,1.44-4.4,1.22-8.8,2.45-13.19,3.69-1.21.34-2.43.61-3.7.67-.28.01-.57.03-.85.1-.62.15-1.24.16-1.87.16-.74,0-1.48-.01-2.22-.17-.61-.13-1.25-.11-1.87-.25-2.81-.6-5.47-1.61-7.98-3.04-3.34-1.91-6.88-3.37-10.53-4.54-1.43-.46-2.88-.71-4.38-.66-.11,0-.23,0-.34,0-1.14.05-2.29.02-3.4.33-1.15.06-2.27.3-3.38.55-2.56.59-5.1,1.26-7.54,2.25-.58.24-1.17.45-1.77.66-.16.06-.33.07-.5.08-.05,0-.11-.03-.15-.06-.1-.07-.09-.16-.02-.29.33-.54.71-1.04,1.15-1.5.8-.83,1.63-1.61,2.54-2.32,2.03-1.59,4.28-2.62,6.82-3.03.84-.14,1.69-.27,2.53-.41.96-.16,1.92-.26,2.89-.32.11,0,.23,0,.34-.03,1.06-.27,2.15-.24,3.24-.29.63-.03,1.26-.01,1.88-.07,1.08-.1,2.16-.07,3.24,0,1.08.07,2.17.07,3.25.11.46.02.93,0,1.37.1,1.28.3,2.62.18,3.9.55,1.77.13,3.49.58,5.23.89,2.25.4,4.47.91,6.77.94.34,0,.68.06,1.02.11.8.12,1.59.12,2.39.02.45-.06.91-.13,1.36-.13,1.19,0,2.24-.42,3.21-1.07,1.22-.82,2.11-1.92,2.67-3.29.23-.57.19-1.12-.09-1.67-.39-.79-.97-1.42-1.66-1.95-1.62-1.23-3.42-2.07-5.39-2.55-1.72-.42-3.47-.65-5.2-1.02-.56-.12-1.12-.23-1.68-.32-1.8-.29-3.59-.67-5.39-.97-1.86-.3-3.69-.79-5.58-.86-.23,0-.45-.08-.68-.1-.45-.05-.91-.12-1.36-.13-1.31-.03-2.63-.06-3.92.24-1.95.14-3.82.67-5.64,1.36-2.78,1.06-5.55,2.11-8.32,3.19-3.99,1.56-7.97,3.15-11.96,4.71-3.25,1.27-6.45,2.64-9.74,3.81-3.23,1.15-6.52,2.12-9.88,2.79-.95.19-1.91.32-2.87.44-.62.08-1.25.09-1.87.24-.33.08-.68.09-1.02.09-3.02.03-6.05.25-9.06-.28-1.09,0-2.13-.39-3.22-.46-2.17-.5-4.33-1.01-6.5-1.51-1.39-.32-2.76-.74-4.18-.92-.77-.27-1.59-.19-2.36-.37-.9-.2-1.81-.24-2.72-.26-1.14-.02-2.29-.05-3.43-.03-1.43.02-2.86-.03-4.26.33-1.5.07-2.92.52-4.36.85-.72.17-1.43.39-2.13.63-1.31.45-2.54,1.05-3.55,2.02-.37.36-.76.7-1.13,1.06-1.47,1.38-2.75,2.92-4.16,4.36-.52.53-1.03,1.07-1.47,1.68-.03.04-.11.06-.15.05-.11-.03-.2-.13-.17-.24.54-1.7,1.03-3.41,1.64-5.09.75-2.08,1.95-3.9,3.48-5.5,1.69-1.77,3.65-3.12,5.92-4.03.9-.36,1.81-.68,2.76-.93,1.27-.34,2.54-.7,3.83-.89,1.46-.22,2.93-.51,4.42-.48.11,0,.23,0,.34-.02,1.76-.32,3.53-.2,5.3-.2.34,0,.69-.01,1.03.05,1.02.2,2.05.19,3.07.2,2.74.03,5.48.04,8.23.06.4,0,.8,0,1.2-.03,1.22-.1,2.36-.47,3.36-1.18,1.86-1.32,2.47-3.67,1.02-5.77-.16-.24-.34-.47-.55-.66-.42-.39-.85-.77-1.31-1.11-.97-.72-2.05-1.24-3.16-1.71-2.06-.87-4.18-1.54-6.36-2.03-2.06-.47-4.14-.81-6.27-.83-2.34-.03-4.68-.01-7.03.07-.29,0-.58,0-.85.06-1.45.32-2.95.3-4.41.57-1.86.34-3,.51-4.85,1.02-1.44.39-2.81.95-4.08,1.76-1.35.86-2.71,1.72-4.07,2.56-3.7,2.28-7.36,4.65-11.14,6.8-2.44,1.39-4.94,2.66-7.55,3.68-1.86.73-3.76,1.35-5.73,1.75-.84.17-1.68.36-2.53.42-1.77.14-3.54.11-5.31.06-1.09-.03-2.14-.38-3.22-.43-2.07-.42-4.14-.79-6.19-1.31-4.1-1.03-8.14-2.28-12.06-3.87-3.13-1.26-6.23-2.57-9.35-3.86-1.58-.65-3.17-1.32-4.83-1.74-1.22-.3-2.44-.55-3.71-.56-2.03-.02-3.97.37-5.86,1.07-1.41.52-2.66,1.33-3.69,2.44-.39.42-.75.87-1.14,1.29-.46.51-.92,1.03-1.42,1.5-.54.51-1.11,1-1.69,1.46-1.62,1.3-3.39,2.35-5.29,3.16-1.47.63-3,.71-4.54.35-2.33-.55-4.65-1.19-6.91-1.98-1.29-.46-2.56-.98-3.85-1.46-2.8-1.04-5.68-1.71-8.69-1.63-1.27.03-2.49.31-3.73.51-3.47.96-6.92,2-10.23,3.42-3.85,1.66-7.5,3.67-10.76,6.35-2.93,2.4-5.32,5.21-6.8,8.75-.68,1.65-1.52,3.22-2.38,4.79-2.1,3.81-4.74,7.18-7.91,10.15Z"/></g></svg>