<?xml version="1.0" encoding="UTF-8"?><svg id="Layer_2" xmlns="http://www.w3.org/2000/svg" viewBox="0 0 181.68 265.7"><defs><style>.cls-1{fill:#262626;}.cls-2{fill:#8f8c8c;}.cls-3{fill:#85754e;}.cls-4{fill:#020000;}</style></defs><g id="Layer_1-2"><path class="cls-2" d="M26.29,265.41c-2.23,0-4.41-.74-6.3-2.15-.95-.7-1.78-1.49-2.48-2.33-.58-.71-1.14-1.42-1.7-2.14l-.74-.96c-1.46-1.86-2.56-3.74-3.53-5.4-.56-.95-1.07-1.82-1.58-2.59-.85-1.27-1.77-2.53-2.74-3.86l-.37-.5c-.41-.56-.83-1.1-1.27-1.68l-1.02-1.32c-.22-.29-.43-.59-.64-.89-2.33-1.82-3.66-4.6-3.63-7.62v-.38c0-.77.02-1.53.08-2.33.15-2.04.83-3.95,1.97-5.53-.06-2.26-.05-4.69-.04-7.12v-.21c0-1.51,0-3.23.2-5.07.15-1.49.17-1.98.17-2.07l.02-1.53c.02-1.36.04-2.71.05-4.07,0-1.37,0-2.74-.02-4.12v-1.52c-.03-1.72,0-3.44.04-5.16l.02-.94c.01-.49.01-.97.01-1.5,0-1.14,0-2.44.09-3.78.23-3.42.21-7.05.19-10.56-.01-2.13-.03-4.14,0-6.14.04-3.32.04-6.65.04-10.02v-5.52c0-.7,0-1.65.19-2.77-.16-.95-.14-1.98.04-2.98.21-1.15.18-2.61.14-4.3-.03-1.12-.05-2.25-.02-3.46.05-1.74.04-3.58.04-5.37,0-1.25,0-2.51,0-3.76,0-.74.06-1.48.12-2.29.03-.38.05-.67.06-.96,0-.11,0-.22-.01-.39-.05-.95-.11-2.05.05-3.33.01-.13-.01-.57-.03-.9-.02-.53-.05-1.05-.05-1.57,0-3.19-.01-6.37-.04-9.56,0-.27-.02-.55-.04-.88-.04-.81-.08-1.47-.08-2.13V43.07c-.37-.48-.73-1.11-1.06-1.71-2.13-3.93-1.68-8.59,1.16-12.17.91-1.14,1.98-2.2,3.18-3.15,1.95-1.54,4.29-2.35,6.79-2.35.76,0,1.54.08,2.31.23.39.08.81.15,1.23.22,1.25-1.25,2.79-2.24,4.59-2.92,1.81-.69,4.6-1.6,7.88-1.6.4,0,.8.01,1.21.04.4.03.8.04,1.2.04.24,0,.49,0,.73-.02.31-.02.62-.03.93-.03,1.53,0,2.87.21,3.96.38.37.06.67.1.97.14,2.6.28,4.89,1.33,6.62,3.06.41.41.78.81,1.1,1.2,1.06-.04,2.09-.04,3.12-.04h1.87s.52,0,.52,0c1.91-.28,3.73-.35,5-.37v-.43c.05-1.13.19-2.09.32-2.93l.1-.7c.46-3.87,3.08-7.03,6.83-8.25,1.13-.37,2.31-.6,3.52-.69,2.7-.2,5.38-.31,7.97-.41,1.62-.07,3.19-.13,4.76-.21l.89-.05c.94-.05,1.89-.11,2.83-.13.67-.02,1.34-.02,2.07-.02.56,0,1.03,0,1.49-.02.39-.01,1.11-.03,1.58-.1.5-.07,1.01-.11,1.52-.11,2.25,0,4.43.73,6.31,2.11,1.17.86,2.34,1.73,3.48,2.62l1,.78c1.17.91,2.38,1.85,3.57,2.81.07-.86.18-1.65.34-2.41-.01-.57-.01-.95,0-1.34v-.27c0-.49.01-1.24.13-2.12.45-3.31,2.3-6.1,5.09-7.66l.19-.12c.68-.43,1.82-1.16,3.4-1.64,2.7-.81,5.16-1.51,7.95-1.96,2.65-.42,5.16-.44,7.17-.46h4.24c.67,0,2.35-.01,2.35-.01,2.26,0,4.3.27,6.11.5.68.09,1.24.16,1.81.22,2.21.24,4.22.72,5.98,1.15.51.12,1.01.24,1.51.36,3.97.9,7.02,3.49,8.38,7.12.57,1.52.84,3.15.8,4.71-.04,1.19.11,2.55.48,4.42.26,1.31.33,2.61.2,3.85,2.95,1.7,5.36,3.78,7.53,5.78.72.67,1.68,1.33,2.79,2.11,1.62,1.13,3.44,2.4,5.21,4.15,3.33,2.92,3.77,6.55,3.92,7.75.55,4.49.48,8.78.42,12.93-.03,1.82-.06,3.69-.03,5.47.07,3.74.04,7.49.01,11.12v1.52c-.02,1.12-.05,2.24-.09,3.37-.06,1.77-.11,3.44-.03,4.99.07,1.39,0,2.61-.07,3.69-.05.72-.11,1.61-.06,2.04.24,2.15.09,4.09-.04,5.66-.07.9-.14,1.72-.11,2.29.1,1.97.07,3.82.05,5.62-.01.71-.02,1.41-.02,2.12l-.03,26.3c.01.88.03,2.22-.27,3.74l.07,1.17c.07,1.19.14,2.38.17,3.58.03,1.14-.09,2.12-.17,2.71l-.05.39c.15,1.64.02,3.1-.07,4.16-.04.45-.09.98-.08,1.19.07,1.62.06,3.15.04,4.66v1.65s-.03,13.15-.03,13.15c0,1.46,0,2.92-.03,4.37-.01.83-.07,1.67-.13,2.62l-.04.65.07.98c.05.81.1,1.61.11,2.42,0,.78-.03,1.55-.08,2.33-.03.44-.08,1.27-.04,1.54.09.72.09,1.45-.01,2.17-.31,2.29-.27,4.83-.23,7.52.02,1.39.05,2.96.02,4.5-.05,2.91-.05,5.92-.04,8.86v6.89c0,2.49,0,4.97-.02,7.46,0,1.06-.12,1.97-.21,2.63l-.08.73c.07,1.65.02,3.25-.03,4.67-.05,1.36-.09,2.76,0,3.94.16,2.16.34,4.62,0,7.33l.03.2c1.07,1.53,1.72,3.33,1.88,5.33.26,3.23-.79,6.35-2.97,8.8-1.95,2.18-4.14,3.68-6.72,4.58l-.26.09c-2.01,1.24-4.35,1.85-7.08,1.85h-.57c-1.6,0-2.84.07-3.93.23-.96.14-1.94.21-3.09.21-.4,0-2.2-.03-2.2-.03h-.35c-.37.02-.73.06-1.17.1-.55.06-.94.1-1.43.14-.68.06-1.36.11-2.04.12-1,.02-4.54.05-4.54.05-.22.02-.57.08-.81.11-1.52.23-2.76.25-3.82.25h-.51c-.26,0-.51,0-.77.01-.42.01-.84.02-1.26.02-.28,0-.64,0-.83.01-.82.23-1.72.34-2.76.34h-.39c-.88.02-1.77.03-2.67.03-1.04,0-1.93.01-2.74.06-1.73.1-5.35.32-7.64.34-1,.01-1.73.06-2.37.16-1.32.21-2.54.23-3.55.23h-3.12c-1.1.32-2.11.35-2.77.35l-.23-.29v.29c-.47.02-.96.03-1.47.03h-1.76c-.32-.01-1.08-.01-1.51.07-.53.1-1.07.16-1.61.16-.33,0-.66-.02-.99-.06-.53.1-1.37.23-2.35.23-.17,0-.35,0-.71-.02-.48-.02-.87-.04-1.25-.04-.32,0-.46.02-.48.02-2.02.31-3.86.32-5.48.34-1.08.01-2.06.02-2.83.11-2.1.25-4.07.27-5.81.28-1.3.01-2.53.02-3.6.13-1.61.16-3.17.2-4.43.23-1.14.03-2.33.06-3.32.17-1.76.2-3.39.23-4.82.25-1.15.02-2.2.04-3.08.13-1.83.2-3.58.24-5.12.27-1.26.02-2.51.05-3.58.16-1.56.16-3.02.19-4.31.21-1.06.02-2.16.04-3.05.14-2.38.28-4.56.3-6.67.31-1.62.01-3.09.03-4.43.15-1.84.17-3.79.27-6.14.32-1.1.45-2.36.68-3.63.68Z"/><path class="cls-2" d="M135.9.58c2.2,0,4.23.26,6.04.5.6.08,1.21.16,1.82.22,2.2.24,4.19.72,5.96,1.15.5.12,1,.24,1.5.35,3.87.87,6.85,3.41,8.17,6.94.55,1.48.82,3.07.78,4.6-.04,1.21.11,2.6.49,4.48.27,1.36.32,2.68.17,3.95,2.95,1.67,5.41,3.78,7.64,5.84.74.68,1.71,1.36,2.83,2.14,1.59,1.11,3.4,2.37,5.16,4.11l.1.1c3.16,2.76,3.59,6.29,3.73,7.47.54,4.47.48,8.75.42,12.89-.03,1.82-.06,3.7-.03,5.48.06,3.74.04,7.49.01,11.11v1.52c-.02,1.12-.05,2.24-.09,3.36-.06,1.78-.11,3.46-.03,5.02.07,1.4,0,2.63-.08,3.73-.05.78-.1,1.58-.05,2.02.24,2.14.08,4.07-.04,5.63-.07.88-.14,1.71-.11,2.3.1,1.95.07,3.8.05,5.6-.01.71-.02,1.41-.02,2.12v7.5s-.02,5.06-.02,5.06c0,4.43-.01,8.87-.02,13.25v.49c.02.88.03,2.19-.26,3.69.02.41.05.83.07,1.24.07,1.19.13,2.38.17,3.57.03,1.12-.09,2.07-.17,2.67l-.05.38s0,.05,0,.07c.15,1.62.03,3.05-.07,4.13-.04.44-.09.98-.08,1.2.07,1.61.06,3.14.04,4.64,0,.55-.01,1.11-.01,1.66v4.02s0,1.71,0,1.71v1.71s0,4.21,0,4.21v1.5c0,1.46,0,2.91-.03,4.37-.02.83-.07,1.66-.13,2.6l-.04.65.02.22.05.79c.05.8.1,1.6.11,2.4,0,.77-.04,1.54-.08,2.31-.03.58-.08,1.3-.04,1.59.09.7.08,1.4-.01,2.1-.31,2.32-.27,4.87-.23,7.57.02,1.38.05,2.94.02,4.48-.05,2.91-.05,5.92-.04,8.87,0,1.28,0,2.55,0,3.82v3.06c0,2.49,0,4.97-.02,7.46,0,1.01-.11,1.88-.2,2.59l-.06.51c0,.08-.02.15-.03.23.07,1.67.02,3.27-.03,4.69-.05,1.43-.1,2.78,0,3.97.16,2.16.34,4.6,0,7.27,0,.11.02.24.04.36,0,0,0,0,0,0,1.07,1.51,1.71,3.29,1.87,5.23.26,3.15-.77,6.2-2.89,8.58-1.91,2.15-4.06,3.62-6.6,4.5l-.26.09c-2.02,1.24-4.31,1.84-6.99,1.84h-.57c-1.62,0-2.88.07-3.97.23-.93.14-1.9.2-3.05.2-.42,0-.85,0-1.31-.02-.29,0-.59-.01-.88-.01-.12,0-.24,0-.36,0-.41.01-.82.06-1.34.12-.39.04-.78.08-1.28.12-.67.06-1.35.11-2.02.12-1,.02-2.01.02-3.01.03h-1.54c-.3.04-.76.12-.99.15-1.36.21-2.59.22-3.64.22h-.26s-.24,0-.24,0c-.26,0-.53,0-.79,0-.41.02-.83.02-1.25.02-.28,0-.66,0-.85.01-.84.23-1.72.34-2.74.34h-.38s-.01,0-.01,0c-.88.03-1.77.04-2.66.04-.98,0-1.91,0-2.76.06-1.74.1-5.35.32-7.63.34-1.01.01-1.76.06-2.42.16-1.31.2-2.49.23-3.5.23h-.66s-.58,0-.58,0h-.44c-.27.01-.55.01-.82.01h-.06c-.09,0-.17,0-.25,0-.11,0-.21,0-.31,0-1.12.3-2.09.34-2.76.34h-.16s-.07,0-.07,0c-.48.02-.96.03-1.47.03h-.93s-.82-.01-.82-.01c-.33,0-1.11,0-1.57.09-.51.1-1.04.15-1.56.15-.32,0-.64-.02-.96-.06-.6.1-1.41.22-2.39.22-.17,0-.34,0-.7-.02-.42-.02-.84-.04-1.26-.04-.35,0-.5.02-.53.02-2,.3-3.83.32-5.44.33-1.06,0-2.07.02-2.86.11-2.08.25-4.04.27-5.78.28-1.31,0-2.55.02-3.62.13-1.57.16-3.08.2-4.41.23-1.21.03-2.36.06-3.35.17-1.73.2-3.36.22-4.79.24-1.13.02-2.2.03-3.11.13-1.84.2-3.6.23-5.15.26-1.28.02-2.48.05-3.55.16-1.54.16-3,.19-4.29.21-1.12.02-2.19.04-3.07.14-2.35.27-4.53.29-6.64.31-1.59.01-3.09.03-4.46.16-1.83.17-3.74.27-6.13.32-1.17.45-2.38.68-3.62.68-2.17,0-4.29-.72-6.12-2.09-.93-.69-1.75-1.46-2.43-2.29-.62-.76-1.23-1.53-1.83-2.3l-.61-.78c-1.44-1.84-2.54-3.71-3.51-5.37-.55-.94-1.07-1.83-1.59-2.6-.85-1.27-1.77-2.53-2.75-3.87l-.37-.51c-.46-.63-.93-1.25-1.44-1.91l-.85-1.1c-.22-.29-.43-.58-.64-.88-.01-.02-.03-.04-.04-.06-2.26-1.76-3.57-4.47-3.54-7.4v-.38c0-.77.02-1.52.07-2.31.15-2.01.81-3.86,1.91-5.38,0-2.43,0-4.86.01-7.29v-.22c0-1.51.01-3.23.2-5.04.15-1.5.17-2,.17-2.09l.02-1.54c.02-1.36.04-2.71.05-4.07,0-1.37,0-2.74-.02-4.12v-1.51c-.03-1.72,0-3.43.04-5.15l.02-.94c0-.49,0-.97,0-1.51,0-1.14,0-2.43.09-3.76.24-3.47.21-7.15.19-10.72-.01-2-.03-4,0-6,.04-3.33.04-6.66.04-10.04,0-1.83,0-3.65,0-5.51,0-.67,0-1.62.18-2.72-.15-1-.14-2,.04-2.97.22-1.18.18-2.67.14-4.38-.03-1.09-.05-2.21-.02-3.42.05-1.75.04-3.59.04-5.38,0-1.25,0-2.5,0-3.75,0-.73.06-1.47.12-2.28.02-.33.05-.65.06-.98,0-.15,0-.3-.02-.56-.04-.79-.1-1.88.06-3.14.01-.15-.01-.62-.03-.95-.02-.52-.05-1.03-.05-1.55,0-3.19-.01-6.37-.04-9.56,0-.32-.02-.64-.04-1.03-.04-.66-.07-1.32-.07-1.97,0-19.06,0-38.12,0-57.17v-1.59s0-9.92,0-9.92c-.42-.63-.77-1.25-1.1-1.85-2.07-3.83-1.64-8.37,1.13-11.85.89-1.12,1.95-2.16,3.13-3.11,1.89-1.5,4.18-2.29,6.61-2.29.74,0,1.5.07,2.26.22.44.09.91.17,1.39.25,1.23-1.27,2.78-2.27,4.59-2.96,1.79-.68,4.54-1.58,7.78-1.58.39,0,.79.01,1.19.04.41.03.81.04,1.22.04.25,0,.5,0,.74-.02.31-.02.61-.03.92-.03,1.5,0,2.8.2,3.91.37.33.05.65.1.98.14,2.53.27,4.76,1.3,6.45,2.97.44.44.83.88,1.17,1.29,1.11-.04,2.17-.05,3.25-.05h.63s1.24,0,1.24,0c.17,0,.33,0,.52,0,1.86-.27,3.62-.35,5.29-.38,0-.23.01-.47.02-.71.04-1.12.18-2.09.31-2.91.04-.23.07-.47.1-.7.44-3.75,2.98-6.82,6.63-8.01,1.1-.36,2.26-.59,3.45-.67,2.71-.2,5.4-.31,8.01-.41,1.58-.06,3.15-.13,4.71-.21l.89-.05c.94-.05,1.88-.11,2.82-.13.67-.02,1.33-.02,2.06-.02.5,0,1,0,1.5-.02.4-.01,1.13-.03,1.62-.1.49-.07.99-.11,1.48-.11,2.19,0,4.31.71,6.14,2.05,1.17.86,2.33,1.73,3.47,2.62l1,.78c1.32,1.02,2.67,2.07,3.99,3.16.05-.89.15-1.88.37-2.93,0-.08,0-.16,0-.24,0-.38,0-.77.01-1.15v-.28c0-.49.01-1.22.13-2.08.44-3.22,2.24-5.94,4.94-7.44l.2-.13c.67-.43,1.79-1.14,3.33-1.6,2.69-.8,5.14-1.51,7.91-1.95,2.63-.42,5.12-.44,7.13-.45h1.38s1.44,0,1.44,0h1.41c.67,0,1.35,0,2.05,0h.3s.02,0,.03,0M135.9,0s-.02,0-.02,0h-.31c-.71.01-1.38.01-2.05.01h-1.41s-1.44,0-1.44,0h-1.38c-2.03.02-4.55.04-7.22.46-2.8.45-5.27,1.16-7.98,1.97-1.62.48-2.78,1.23-3.48,1.67l-.2.13c-2.84,1.58-4.75,4.45-5.21,7.85-.12.89-.13,1.65-.13,2.15v.28c-.02.37-.02.77-.01,1.16,0,0,0,.1,0,.11v.07c-.12.59-.22,1.2-.28,1.84-1.05-.84-2.11-1.66-3.15-2.47l-1-.78c-1.14-.89-2.31-1.77-3.49-2.63-1.92-1.42-4.16-2.16-6.48-2.16-.52,0-1.04.04-1.56.11-.45.07-1.17.09-1.55.1-.48.01-.96.01-1.44.02-.77,0-1.45,0-2.12.02-.95.03-1.89.08-2.84.13l-.89.05c-1.56.08-3.13.15-4.7.21-2.61.11-5.31.22-8.03.42-1.23.09-2.44.33-3.59.7-3.86,1.26-6.56,4.51-7.03,8.49-.02.21-.06.42-.09.63-.13.87-.28,1.88-.32,3.03v.16c-1.27.03-2.98.11-4.81.37-.09-.01-.26-.01-.43-.01h-1.25s-.3,0-.3,0h-.33c-.99,0-1.97,0-2.99.04-.34-.4-.68-.77-1.02-1.11-1.78-1.77-4.13-2.86-6.79-3.14-.29-.03-.57-.08-.86-.12-1.25-.19-2.55-.4-4.1-.4-.31,0-.63,0-.95.03-.23.01-.47.02-.71.02-.39,0-.79-.02-1.18-.04-.42-.03-.82-.04-1.23-.04-3.34,0-6.16.93-7.99,1.62-1.78.68-3.32,1.65-4.58,2.88-.37-.06-.73-.13-1.08-.2-.8-.15-1.59-.23-2.37-.23-2.56,0-4.97.83-6.97,2.41-1.22.97-2.31,2.04-3.23,3.2C.43,32.67-.03,37.45,2.16,41.49c.26.48.61,1.11,1.03,1.75v9.75s0,1.59,0,1.59c0,19.06,0,38.12,0,57.17,0,.67.03,1.34.07,2.01v.11c.02.34.04.61.04.89.03,3.18.03,6.37.04,9.56,0,.53.02,1.05.05,1.58.01.31.04.74.03.88-.16,1.28-.1,2.39-.06,3.21v.18c.02.14.02.24.02.34,0,.29-.03.57-.05.85-.06.84-.12,1.63-.13,2.41-.01,1.25,0,2.51,0,3.76,0,1.78.01,3.62-.04,5.36-.03,1.22,0,2.35.02,3.44.04,1.69.07,3.15-.13,4.27-.19,1.01-.21,2.04-.06,3.08-.17,1.11-.17,2.08-.17,2.72,0,1.86,0,3.69,0,5.51,0,3.42,0,6.73-.04,10.03-.03,2-.01,4.01,0,6.01.02,3.55.05,7.23-.18,10.68-.09,1.35-.09,2.65-.09,3.79,0,.56,0,1.03,0,1.5l-.02.94c-.03,1.72-.06,3.44-.05,5.16v1.52c.03,1.39.04,2.75.04,4.11,0,1.35-.03,2.7-.05,4.05l-.02,1.55c0,.05-.01.53-.17,2.04-.19,1.84-.19,3.57-.2,5.09v.22c0,2.37-.01,4.73-.01,7.1-1.1,1.58-1.76,3.49-1.91,5.52-.06.81-.07,1.57-.07,2.35v.38c-.03,3.08,1.31,5.92,3.69,7.81.23.33.43.61.64.89l.85,1.11c.55.71,1,1.3,1.44,1.9l.37.51c.97,1.33,1.89,2.59,2.74,3.85.51.76,1.02,1.64,1.57,2.57.98,1.68,2.09,3.57,3.55,5.44l.61.78c.6.77,1.21,1.55,1.84,2.31.71.86,1.56,1.66,2.53,2.38,1.94,1.44,4.18,2.2,6.47,2.2,1.27,0,2.53-.23,3.73-.68,2.33-.05,4.26-.15,6.07-.32,1.34-.13,2.83-.14,4.41-.15,2.12-.02,4.32-.04,6.7-.31.86-.1,1.91-.12,3.02-.14,1.3-.02,2.77-.05,4.34-.21,1.04-.11,2.23-.13,3.5-.15,1.57-.03,3.35-.06,5.21-.27.88-.1,1.93-.11,3.05-.13,1.45-.02,3.09-.05,4.85-.25.97-.11,2.1-.14,3.29-.17,1.34-.03,2.86-.07,4.46-.23,1.05-.11,2.28-.12,3.57-.12,1.75-.01,3.74-.03,5.85-.28.76-.09,1.75-.1,2.8-.11,1.64-.01,3.49-.03,5.52-.34.03,0,.16-.02.44-.02.38,0,.76.02,1.13.04h.11c.37.02.55.03.73.03.96,0,1.78-.11,2.4-.22.31.03.63.05.94.05.56,0,1.12-.05,1.67-.16.4-.08,1.17-.08,1.46-.08h.82s.93.01.93.01c.53,0,1.02,0,1.5-.03h.2c.67,0,1.68-.03,2.85-.34.07,0,.15,0,.22,0h.12s.13,0,.13,0c.34,0,.62,0,.9,0h.44s.58,0,.58,0h.66c1.02,0,2.25-.02,3.59-.23.63-.1,1.35-.14,2.33-.15,2.29-.02,5.9-.24,7.64-.34.84-.05,1.76-.05,2.74-.06.9,0,1.79,0,2.67-.04h.35c1.06,0,1.96-.1,2.85-.34.2,0,.51,0,.76-.01.42,0,.84,0,1.27-.02.26,0,.51,0,.77,0h.24s.26,0,.26,0c1.07,0,2.33-.02,3.73-.23l.13-.02c.24-.04.6-.09.84-.12h1.48c1-.02,2-.03,3.01-.04.65-.01,1.3-.06,2.06-.12.5-.04.9-.08,1.29-.13l.17-.02c.43-.05.78-.08,1.13-.1.11,0,.23,0,.34,0,.28,0,.56,0,.83.01.5.01.93.02,1.36.02,1.18,0,2.17-.07,3.14-.21,1.07-.16,2.3-.23,3.89-.23h.57c2.77,0,5.14-.62,7.24-1.89l.2-.07c2.63-.92,4.87-2.44,6.84-4.67,2.23-2.5,3.31-5.7,3.04-9.01-.16-2-.8-3.81-1.89-5.39v-.15c.31-2.71.14-5.16-.02-7.32-.08-1.15-.04-2.49.01-3.9.05-1.42.1-3.04.03-4.73l.02-.15.06-.5c.09-.72.2-1.61.21-2.66.02-2.49.02-4.98.02-7.46v-3.06c0-1.23,0-2.47,0-3.71v-.11c0-2.92-.01-5.94.04-8.86.03-1.56,0-3.12-.02-4.5-.04-2.68-.09-5.21.22-7.48.1-.75.11-1.5.01-2.25-.03-.24.02-1.02.04-1.48.04-.74.09-1.54.08-2.35,0-.83-.06-1.66-.11-2.44l-.05-.79-.02-.23.04-.57c.06-.95.12-1.79.13-2.63.03-1.46.03-2.92.03-4.38v-1.5s0-4.21,0-4.21v-1.71s0-1.71,0-1.71v-4.02c0-.54.01-1.08.02-1.61.02-1.54.03-3.08-.04-4.72,0-.18.04-.75.07-1.12.09-1.07.22-2.53.07-4.18l.05-.39c.08-.59.21-1.59.17-2.76-.04-1.2-.1-2.39-.17-3.58l-.06-1.17c.29-1.52.27-2.85.26-3.73v-.48c0-4.38.01-8.81.02-13.25v-5.06s.02-7.5.02-7.5c0-.69.01-1.39.02-2.08.03-1.84.05-3.71-.05-5.67-.03-.56.04-1.37.11-2.23.13-1.58.29-3.55.04-5.74-.04-.39,0-1.2.05-1.92.07-1.11.15-2.36.08-3.79-.08-1.53-.02-3.2.03-4.97.04-1.13.07-2.25.08-3.37v-1.52c.04-3.62.06-7.37,0-11.13-.03-1.77,0-3.65.03-5.46.06-4.16.13-8.45-.42-12.97-.15-1.22-.6-4.94-3.93-7.84l-.07-.07c-1.8-1.78-3.63-3.05-5.24-4.18-1.11-.77-2.06-1.44-2.77-2.09-2.14-1.97-4.52-4.03-7.42-5.73.1-1.21.03-2.47-.22-3.75-.36-1.84-.51-3.19-.48-4.36.05-1.6-.23-3.27-.81-4.82-1.39-3.72-4.52-6.39-8.58-7.31-.5-.11-.99-.23-1.48-.35-1.79-.43-3.8-.92-6.04-1.16-.59-.06-1.17-.14-1.76-.22-1.86-.24-3.92-.51-6.16-.51h0Z"/><path class="cls-4" d="M179.19,237.88s0,0,0,0c-.01-.12-.03-.24-.04-.36.33-2.67.16-5.11,0-7.27-.09-1.18-.04-2.54,0-3.97.05-1.42.1-3.02.03-4.69,0-.08.02-.15.03-.23l.06-.51c.09-.72.19-1.58.2-2.59.02-2.49.02-4.97.02-7.46v-3.06c0-1.27,0-2.55,0-3.82,0-2.95-.01-5.95.04-8.87.03-1.54,0-3.1-.02-4.48-.05-2.7-.09-5.25.23-7.57.09-.7.1-1.4.01-2.1-.04-.29,0-1.01.04-1.59.05-.77.08-1.54.08-2.31,0-.8-.05-1.6-.11-2.4l-.05-.79-.02-.22.04-.65c.06-.94.12-1.77.13-2.6.03-1.45.03-2.91.03-4.37v-1.5s0-4.21,0-4.21v-1.71s0-1.71,0-1.71v-4.02c0-.55.01-1.11.02-1.66.02-1.51.03-3.03-.04-4.64-.01-.22.04-.77.08-1.2.1-1.08.22-2.51.07-4.13,0-.02,0-.05,0-.07l.05-.38c.08-.6.2-1.55.17-2.67-.04-1.19-.1-2.38-.17-3.57-.02-.41-.05-.83-.07-1.24.29-1.49.27-2.81.26-3.69v-.49c0-4.38.01-8.82.02-13.25v-5.06s.02-7.5.02-7.5c0-.71.01-1.41.02-2.12.03-1.81.05-3.66-.05-5.6-.03-.59.04-1.42.11-2.3.13-1.56.28-3.49.04-5.63-.05-.44,0-1.24.05-2.02.07-1.09.15-2.33.08-3.73-.08-1.55-.03-3.24.03-5.02.04-1.12.07-2.24.08-3.36v-1.52c.04-3.63.06-7.38,0-11.11-.03-1.78,0-3.66.03-5.48.06-4.14.13-8.42-.42-12.89-.14-1.18-.57-4.72-3.73-7.47l-.1-.1c-1.76-1.74-3.57-3-5.16-4.11-1.12-.78-2.09-1.46-2.83-2.14-2.23-2.06-4.69-4.16-7.64-5.84.15-1.28.09-2.6-.17-3.95-.37-1.89-.52-3.27-.49-4.48.05-1.53-.22-3.12-.78-4.6-1.32-3.54-4.3-6.07-8.17-6.94-.5-.11-1-.23-1.5-.35-1.77-.43-3.76-.91-5.96-1.15-.61-.07-1.21-.15-1.82-.22-1.81-.24-3.84-.5-6.04-.5-.01,0-.02,0-.03,0h-.3c-.7.01-1.38.01-2.05.01h-1.41s-1.44,0-1.44,0h-1.38c-2.02.02-4.51.04-7.13.46-2.76.44-5.22,1.15-7.91,1.95-1.54.46-2.66,1.18-3.33,1.6l-.2.13c-2.7,1.5-4.51,4.22-4.94,7.44-.12.86-.12,1.59-.13,2.08v.28c-.02.38-.02.76-.01,1.15,0,.07,0,.16,0,.24-.22,1.05-.33,2.04-.37,2.93-1.32-1.08-2.68-2.13-3.99-3.16l-1-.78c-1.14-.89-2.3-1.76-3.47-2.62-1.82-1.34-3.95-2.05-6.14-2.05-.49,0-.99.04-1.48.11-.49.07-1.22.09-1.62.1-.5.01-1,.01-1.5.02-.72,0-1.39,0-2.06.02-.94.03-1.88.08-2.82.13l-.89.05c-1.56.08-3.14.15-4.71.21-2.6.11-5.3.22-8.01.41-1.18.09-2.34.31-3.45.67-3.65,1.19-6.19,4.26-6.63,8.01-.03.23-.06.47-.1.7-.12.82-.27,1.79-.31,2.91,0,.24-.01.47-.02.71-1.67.02-3.43.11-5.29.38-.18,0-.35,0-.52,0h-1.24s-.3,0-.3,0h-.32c-1.08,0-2.14,0-3.25.05-.34-.41-.73-.85-1.17-1.29-1.69-1.68-3.91-2.71-6.45-2.97-.33-.03-.65-.09-.98-.14-1.11-.17-2.41-.37-3.91-.37-.3,0-.61,0-.92.03-.24.01-.49.02-.74.02-.41,0-.81-.02-1.22-.04-.4-.03-.8-.04-1.19-.04-3.24,0-5.99.9-7.78,1.58-1.81.69-3.36,1.69-4.59,2.96-.48-.08-.95-.16-1.39-.25-.76-.15-1.52-.22-2.26-.22-2.43,0-4.72.79-6.61,2.29-1.19.94-2.24,1.99-3.13,3.11-2.77,3.48-3.2,8.02-1.13,11.85.32.6.68,1.22,1.09,1.85v9.92s0,1.59,0,1.59c0,19.06,0,38.12,0,57.17,0,.66.03,1.32.07,1.97.02.4.04.72.04,1.03.03,3.19.03,6.37.04,9.56,0,.52.02,1.03.05,1.55.02.34.04.8.03.95-.16,1.25-.1,2.34-.06,3.14.01.26.03.41.02.56,0,.33-.03.65-.06.98-.06.81-.11,1.54-.12,2.28-.01,1.25,0,2.5,0,3.75,0,1.79.01,3.63-.04,5.38-.03,1.21,0,2.33.02,3.42.04,1.72.07,3.2-.14,4.38-.18.98-.19,1.97-.04,2.97-.17,1.1-.18,2.05-.18,2.72,0,1.86,0,3.68,0,5.51,0,3.38,0,6.71-.04,10.04-.03,2-.01,4,0,6,.02,3.57.05,7.25-.19,10.72-.09,1.34-.09,2.62-.09,3.76,0,.54,0,1.02,0,1.51l-.02.94c-.03,1.71-.06,3.43-.05,5.15v1.51c.03,1.37.04,2.75.04,4.12,0,1.36-.03,2.71-.05,4.07l-.02,1.54c0,.09-.02.59-.17,2.09-.18,1.81-.19,3.52-.2,5.04v.22c0,2.43-.01,4.86-.01,7.29-1.1,1.52-1.77,3.37-1.91,5.38-.06.79-.07,1.55-.07,2.31v.38c-.03,2.94,1.28,5.64,3.54,7.4.01.02.03.04.04.06.21.3.42.6.64.88l.85,1.1c.51.66.99,1.28,1.44,1.91l.37.51c.98,1.34,1.9,2.6,2.75,3.87.52.78,1.04,1.67,1.59,2.6.97,1.66,2.07,3.54,3.51,5.37l.61.78c.6.77,1.2,1.54,1.83,2.3.68.82,1.5,1.59,2.43,2.29,1.84,1.37,3.96,2.09,6.12,2.09,1.24,0,2.45-.23,3.62-.68,2.38-.04,4.3-.14,6.13-.32,1.37-.13,2.87-.14,4.46-.16,2.11-.02,4.29-.04,6.64-.31.89-.1,1.95-.12,3.08-.14,1.29-.02,2.75-.05,4.29-.21,1.07-.11,2.27-.13,3.55-.16,1.56-.03,3.32-.06,5.15-.26.9-.1,1.97-.12,3.11-.13,1.44-.02,3.06-.05,4.79-.24.99-.11,2.13-.14,3.35-.17,1.33-.03,2.84-.07,4.41-.23,1.08-.11,2.32-.12,3.62-.13,1.74-.01,3.7-.03,5.78-.28.8-.1,1.8-.11,2.86-.11,1.62-.01,3.44-.03,5.44-.33.03,0,.17-.02.53-.02.42,0,.85.02,1.26.04.36.02.53.02.7.02.97,0,1.79-.12,2.39-.22.32.04.64.06.96.06.52,0,1.05-.05,1.56-.15.45-.09,1.23-.09,1.57-.09h.82s.93.01.93.01h0c.51,0,.99,0,1.47-.03h.23c.67,0,1.63-.04,2.76-.34.1,0,.2,0,.31,0,.08,0,.16,0,.25,0h.06c.27,0,.55,0,.82,0h.44s.58,0,.58,0h.66c1.01,0,2.2-.02,3.5-.23.66-.1,1.4-.15,2.42-.16,2.28-.02,5.89-.24,7.63-.34.84-.05,1.77-.05,2.76-.06.89,0,1.77,0,2.66-.04h.01s.37,0,.37,0h0c1.02,0,1.89-.11,2.74-.34.19-.01.57-.01.85-.01.42,0,.83,0,1.25-.02.26,0,.53,0,.79,0h.24s.26,0,.26,0c1.05,0,2.28-.02,3.64-.22.23-.04.7-.11.99-.14h1.54c1-.02,2-.03,3.01-.05.68-.01,1.35-.06,2.02-.12.5-.04.89-.08,1.28-.12.52-.05.93-.1,1.34-.12.12,0,.24,0,.36,0,.29,0,.59,0,.88.01.46.01.89.02,1.31.02,1.15,0,2.12-.06,3.05-.2,1.1-.16,2.36-.24,3.97-.24h.57c2.68,0,4.97-.6,6.99-1.84l.26-.09c2.54-.89,4.69-2.36,6.6-4.5,2.12-2.38,3.15-5.43,2.89-8.58-.16-1.94-.8-3.72-1.87-5.23Z"/><path class="cls-1" d="M174.71,239.74c0-.12-.02-.22-.03-.32l-.02-.23c-.02-.29-.05-.57-.08-.86-.04-.44-.09-.9-.06-1.15.32-2.31.16-4.5,0-6.61-.1-1.43-.05-2.9,0-4.46.05-1.54.11-3.12.01-4.76.03-.18.05-.32.07-.47.02-.21.05-.42.07-.63.07-.61.16-1.29.16-2.04.02-2.47.02-4.95.02-7.42v-3.06c0-1.28,0-2.56,0-3.84,0-2.93-.01-5.97.04-8.93.03-1.44,0-2.88-.02-4.32-.05-2.88-.09-5.61.27-8.27.04-.3.04-.6,0-.9-.09-.71-.04-1.55.01-2.44.04-.67.08-1.34.07-2.02,0-.7-.05-1.41-.1-2.11l-.05-.81-.02-.34v-.16c0-.31.03-.7.06-1.1.05-.75.1-1.51.11-2.26.03-1.43.03-2.85.03-4.28v-1.5s0-4.21,0-4.21v-1.71s0-1.71,0-1.71v-4.02c0-.58.01-1.16.02-1.74.02-1.41.03-2.87-.04-4.34-.02-.53.03-1.16.09-1.82.1-1.14.21-2.41,0-3.81.03-.17.06-.33.08-.48l.06-.46c.07-.54.16-1.22.14-1.97-.03-1.15-.1-2.3-.16-3.44-.03-.61-.07-1.22-.1-1.83,0,0,0,0,0,0,0,0,.04-.22.09-.46.22-1.06.21-2.04.2-2.84v-.51c0-4.43.01-8.87.02-13.3v-5.06s.02-7.5.02-7.5c0-.73.01-1.47.02-2.2.02-1.72.05-3.49-.04-5.28-.05-.9.03-1.88.12-2.91.12-1.43.25-3.04.06-4.74-.09-.84-.03-1.81.03-2.83.06-1.01.13-2.06.07-3.2-.09-1.75-.03-3.52.03-5.4.03-1.08.07-2.16.08-3.24v-1.52c.04-3.6.06-7.32,0-11-.03-1.86,0-3.78.03-5.63.06-3.98.12-8.1-.38-12.26-.11-.92-.37-3.06-2.33-4.67l-.03-.04-.16-.16c-1.45-1.43-3.02-2.52-4.53-3.58-1.21-.84-2.35-1.64-3.32-2.54-2.42-2.23-5.11-4.51-8.36-6.03-.24-.11-.33-.2-.85-1.02-.23-.37-.38-.7-.11-1.6.33-1.11.37-2.34.11-3.64-.44-2.24-.62-3.94-.57-5.51.03-.94-.14-1.92-.49-2.85-.78-2.08-2.5-3.52-4.85-4.05-.52-.12-1.05-.24-1.57-.37-1.7-.41-3.47-.84-5.37-1.04-.65-.07-1.29-.15-1.94-.24-1.73-.23-3.52-.46-5.42-.46h-.3c-.69.01-1.39.01-2.08.01h-1.42s-1.44,0-1.44,0h-1.36c-1.94.02-4.13.03-6.42.4-2.49.4-4.78,1.06-7.32,1.81-.92.28-1.64.74-2.17,1.07-.14.09-.28.18-.42.26-.84.47-2.3,1.62-2.63,4.03-.08.57-.08,1.08-.08,1.5,0,.14,0,.28,0,.41-.01.31-.01.63,0,.94,0,.33,0,.78-.03.94-.38,1.59-.38,3.11-.38,4.32,0,1.05,0,2.1,0,3.15v1.68c-.71,0-1.43,0-2.15,0h-2.15c-.63-1.21-1.59-1.98-2.21-2.48l-.26-.22c-1.53-1.28-3.12-2.51-4.65-3.7l-1-.78c-1.11-.87-2.24-1.71-3.38-2.55-1.04-.76-2.18-1.15-3.39-1.15-.26,0-.54.02-.82.06-.69.1-1.47.13-2.14.15-.56.02-1.12.02-1.68.02-.63,0-1.25,0-1.87.02-.9.03-1.8.08-2.69.13l-.9.05c-1.59.08-3.19.15-4.78.21-2.57.1-5.22.21-7.86.41-.81.06-1.6.21-2.35.46-1.94.63-3.24,2.19-3.47,4.15-.04.3-.08.6-.13.9-.1.69-.22,1.48-.25,2.32-.05,1.43-.04,2.86-.04,4.28v.9c-.12,0-.23,0-.35,0h-1.48s-1.53-.01-1.53-.01c-1.95,0-4.07.05-6.26.4h-.31c-.16-.02-.32-.02-.48-.02h-1.23s-.32,0-.32,0h-.32c-1.16,0-2.3,0-3.48.06-.66.03-1.27.15-1.81.29-.1-.16-.21-.31-.33-.46l-.38-.49c-.47-.62-1.01-1.32-1.68-1.99-.93-.92-2.2-1.5-3.67-1.65-.43-.05-.85-.11-1.27-.18-.93-.14-1.98-.31-3.13-.31-.22,0-.43,0-.65.02-.33.02-.67.03-1,.03-.51,0-1.02-.02-1.53-.05-.3-.02-.59-.03-.88-.03-2.45,0-4.57.69-6.14,1.28-1.92.73-3.29,1.91-4.08,3.52-1.55-.07-3.08-.33-4.42-.59-.47-.09-.93-.14-1.38-.14-1.38,0-2.67.45-3.74,1.29-.91.72-1.71,1.51-2.38,2.36-1.62,2.03-1.87,4.56-.68,6.77.42.78.93,1.68,1.65,2.5,0,.23,0,.46,0,.68v.25s0,10.53,0,10.53c0,19.59,0,39.17,0,58.76,0,.57.03,1.15.06,1.72.02.42.05.83.05,1.25.03,3.2.03,6.39.04,9.59,0,.45.02.89.04,1.34.03.66.06,1.24,0,1.72-.11.88-.07,1.66-.03,2.36.02.3.03.6.03.9-.01.43-.04.86-.08,1.3-.05.63-.09,1.26-.1,1.89-.01,1.23,0,2.46,0,3.69,0,1.82.01,3.7-.04,5.52-.03,1.09,0,2.15.02,3.18.04,1.89.09,3.68-.22,5.34-.12.67-.08,1.37.13,2.1-.02.1-.04.2-.06.3-.2.92-.21,1.78-.21,2.47,0,1.85,0,3.67,0,5.49,0,3.37,0,6.74-.04,10.1-.03,1.97-.01,3.94,0,5.91.02,3.65.05,7.42-.2,11.06-.08,1.18-.08,2.34-.08,3.45,0,.53,0,1.06-.01,1.59l-.02.94c-.03,1.67-.06,3.35-.05,5.02v1.51c.03,1.39.04,2.78.04,4.17,0,1.38-.03,2.75-.05,4.13l-.02,1.53c0,.32-.04,1.02-.19,2.49-.16,1.58-.17,3.11-.17,4.58v.22c-.01,3.02-.02,6.03,0,9.05-1.12.92-1.81,2.3-1.93,3.94-.05.67-.06,1.34-.06,2v.39c-.02,1.64.78,3.13,2.13,3.98.12.09.42.52.62.8.17.25.34.49.52.73l.83,1.09c.51.66,1.02,1.32,1.51,1.99l.37.5c1.01,1.38,1.96,2.68,2.86,4.02.6.89,1.15,1.84,1.74,2.84.94,1.61,1.91,3.26,3.15,4.85l.62.79c.58.74,1.15,1.48,1.75,2.21.44.53.98,1.04,1.62,1.52,1.05.78,2.18,1.17,3.36,1.17.84,0,1.67-.2,2.46-.6.07-.03.21-.07.29-.07,2.64-.03,4.66-.13,6.56-.31,1.56-.15,3.16-.16,4.85-.18,1.99-.02,4.04-.04,6.15-.28,1.11-.13,2.28-.15,3.52-.17,1.26-.02,2.56-.05,3.9-.19,1.26-.13,2.56-.15,3.94-.18,1.53-.03,3.11-.06,4.74-.24,1.12-.12,2.3-.14,3.54-.16,1.4-.02,2.84-.04,4.34-.21,1.19-.14,2.44-.17,3.75-.2,1.31-.03,2.66-.07,4.06-.21,1.29-.13,2.64-.14,4.06-.15,1.69-.01,3.44-.03,5.26-.25,1.05-.13,2.18-.14,3.38-.15,1.53-.01,3.11-.03,4.78-.28.34-.05.74-.08,1.22-.08.52,0,1.05.03,1.57.05.18,0,.29.01.4.01.72,0,1.35-.11,1.85-.2.19-.03.44-.08.58-.09.3.08.61.12.91.12.22,0,.45-.02.67-.06.79-.15,1.65-.18,2.46-.18h.85s.92.01.92.01c.45,0,.9,0,1.35-.03h.17s.18,0,.18,0c.44,0,1.02-.03,1.67-.22.39-.12.98-.12,1.67-.12.24,0,.49,0,.73,0,.18,0,.36,0,.55,0h.61s.66,0,.66,0c.81,0,1.78-.02,2.77-.17.88-.14,1.83-.2,3.07-.21,2.16-.02,5.7-.23,7.4-.34.98-.06,1.97-.06,3.02-.07.88,0,1.76,0,2.64-.04h.15s.34,0,.34,0c.36,0,.91-.02,1.54-.21.49-.15,1.17-.15,1.96-.15.37,0,.73,0,1.1-.02.32-.01.64-.01.96-.01h.25s.26,0,.26,0c.92,0,1.9-.01,2.94-.17.37-.06,1.23-.19,1.53-.19h1.65c.99-.02,1.98-.03,2.97-.05.57,0,1.14-.06,1.71-.1.46-.04.82-.08,1.19-.12.56-.06,1.11-.12,1.67-.14.17,0,.35,0,.52,0,.34,0,.68,0,1.02.02.39,0,.78.02,1.17.02.92,0,1.67-.05,2.38-.15,1.32-.2,2.8-.29,4.65-.29h.6s0,0,0,0c1.99,0,3.57-.46,4.94-1.41.02,0,.29-.1.48-.16l.3-.1c1.75-.61,3.27-1.66,4.64-3.2,1.29-1.45,1.89-3.22,1.74-5.13-.12-1.49-.72-2.77-1.74-3.74Z"/><path class="cls-1" d="M151.43,20.08c-.04.68.12,1.67-.29,2.63-.12.29-.06.65-.1.98-.08.79.07,1.44.93,1.73.24.08.47.24.68.4.5.38.79.87.78,1.51-.05,1.58-.04,3.15-.16,4.72-.03.47.12.72.37,1.03.59.73,1.47.83,2.27,1.07.5.15,1.02.21,1.54.3.83.14,1.49.53,1.86,1.3.22.44.57.69.99.92.86.47,1.69,1,2.55,1.47.82.45,1.31,1.08,1.23,2.06,0,.07,0,.13,0,.2.03.59-.09,1.25.15,1.74.29.62,1.1.19,1.62.41,1.26.55,2.53,1.11,3.71,1.8.39.23.67.85.76,1.33.23,1.25.09,2.49-.43,3.66-.08.17-.21.34-.36.46-.57.45-1.12.92-1.74,1.29-.9.55-1.85.96-2.96.93-.98-.03-1.98-.16-2.93.22-.11.04-.27.04-.39,0-1.55-.49-3.14-.16-4.71-.25-.85-.05-1.7.04-2.53-.3-.4-.16-.91-.05-1.37-.1-.65-.06-1.29-.16-1.94-.23-.32-.03-.64-.08-.96-.05-.74.07-1.41-.19-2.11-.3-1.26-.21-2.48-.75-3.83-.28-.5.17-1.16-.03-1.73-.13-.77-.14-1.53-.34-2.29-.51-.19-.04-.42-.1-.58-.03-1.11.43-2.35-.02-3.44.54-.49.25-1.01.25-1.53.03-.7-.31-1.4-.21-2.12,0-.75.21-1.57.56-2.29.45-1.28-.2-2.44.2-3.65.33-.69.07-1.42-.2-2.12-.18-.71.02-1.43.36-2.11.27-.63-.09-1.15.12-1.72.19-1.15.14-2.29.54-3.45.08-.39-.16-.76-.07-1.15.02-.5.12-1.04.22-1.55.19-.78-.04-1.57-.37-2.31-.27-.77.11-1.54.3-2.33.28-.2,0-.42.07-.59,0-1.17-.46-2.32.03-3.48.03-.58,0-1.14.25-1.74,0-.23-.09-.53-.07-.78,0-.64.17-1.26.31-1.91.04-1.18.42-2.31.07-3.43-.27-.43-.13-.77-.03-1.12.16-.73.4-1.44.52-2.26.19-.37-.15-.9.17-1.32.09-.72-.13-1.4-.22-2.11.07-.2.08-.5-.07-.75-.12-.26-.05-.54-.22-.76-.15-1.1.35-2.16.13-3.26.03-1-.09-2.05.32-3.07.49-.25.04-.53.08-.76,0-.72-.26-1.4-.23-2.12.04-.28.1-.63.04-.95.02-.19-.01-.42-.17-.56-.11-1.23.56-2.44-.08-3.66-.02-.26.01-.59-.12-.76,0-.77.51-1.64.26-2.44.42-.85.17-1.66.03-2.48-.08-.47-.06-.91-.03-1.34.18-.29.14-.69.42-.9.32-1.19-.53-2.27-.06-3.41.17-.54.11-1.16-.11-1.73-.22-.86-.15-1.68-.2-2.49.24-.9.48-1.87.36-2.83.23-.26-.03-.56-.19-.76-.1-.82.37-1.69.21-2.52.33-1.09.16-2.17.46-3.26.62-.76.11-1.56.11-2.32.09-1.24-.04-2.44.44-3.69.17-.23-.05-.5.1-.75.19-1.06.39-2.16.49-3.29.48-1.57-.02-3.16-.15-4.69.38-1.43-.18-2.84.46-4.28.05-.77-.22-1.51.42-2.32.18-.08-.02-.25.11-.31.21-.41.61-.8,1.22-.42,2,.14.29.2.62.3.94.42,1.32.7,2.65.66,4.05-.03,1.24-.14,2.49.31,3.71.1.27-.03.64-.07.96-.07.58-.27,1.17-.22,1.74.07.91.09,1.82.02,2.73-.07.85-.04,1.71-.05,2.57,0,.26.04.55-.04.78-.48,1.34-.29,2.73-.33,4.1-.04,1.24.08,2.49-.31,3.72-.16.48-.07,1.04-.08,1.57-.01,1.97,0,3.95-.03,5.92-.02.98-.23,1.97-.14,2.94.09.93.23,1.82-.1,2.72-.04.11-.03.27,0,.39.49,1.68.11,3.4.23,5.1.01.2.04.41-.02.59-.51,1.67-.3,3.39-.36,5.09-.04,1.17.16,2.37-.28,3.52-.08.22,0,.52.06.77.38,1.69.39,3.37-.02,5.06-.07.29-.06.72.11.93.5.62.54,1.31.54,2.05-.01,2.43,0,4.87-.01,7.3,0,.33.02.67-.07.98-.47,1.79-.48,3.61-.25,5.43.06.46.09.89,0,1.35-.09.44-.17.96-.03,1.37.37,1.07-.02,2.19.27,3.25.02.06.03.14.02.2-.63,2.59-.24,5.23-.32,7.84-.05,1.64-.01,3.29,0,4.93,0,.79.01,1.56.25,2.34.17.55.1,1.17.11,1.76.01,1.16-.43,2.32,0,3.48.02.06,0,.13,0,.2-.03.97-.63,1.89-.22,2.89.39.95.15,1.95.23,2.93.08.97.19,1.95.29,2.92.02.19.11.43.03.58-.48.97-.22,1.89-.01,2.88.15.68.07,1.45-.1,2.14-.29,1.12-.29,2.2,0,3.3.11.44.18.9.2,1.35.05,1.05.09,2.1.09,3.15,0,1.04-.05,2.09-.1,3.13-.02.45-.11.91-.18,1.36-.04.26-.23.55-.15.75.45,1.12-.32,2.19-.08,3.29-.46,1.25.01,2.44.23,3.64.08.45.2.92.15,1.36-.11.84-.29,1.65.02,2.49.06.17.05.41-.01.58-.29.82-.38,1.62-.26,2.51.11.75-.23,1.53.14,2.3.12.25-.07.64-.03.95.08.61-.08,1.3.49,1.79.09.08.11.24.17.35.32.58.38,1.17-.16,1.61-.71.59-.72,1.35-.72,2.15,0,.55.12,1.01.63,1.35.24.16.41.51.51.8.28.87.56,1.75.74,2.65.09.43.03.92-.08,1.36-.33,1.43-.4,2.85,0,4.28.04.13.1.26.09.38-.11,2.04.48,4.04.44,6.07-.02,1.07.14,2.09.54,3.08.5,1.23.91,2.47.33,3.81-.1.22-.04.52-.02.78.02.37.21.66.59.65.71-.02,1.46,0,2.13-.21,2.26-.7,4.57-1.12,6.92-1.34.77-.07,1.52-.38,2.26-.63,1-.35,2.02-.51,3.08-.57,1.1-.06,2.22-.22,3.29-.5.72-.19,1.42-.21,2.14-.26.98-.07,1.96-.15,2.94-.23.06,0,.14-.05.19-.03,1.71.66,3.35-.41,5.05-.19.37.05.78-.11,1.14-.24,1.07-.38,2.15-.53,3.28-.51.98.02,1.96.04,2.93-.3.47-.17,1.04-.05,1.57-.08,1.11-.06,2.23.12,3.33-.26.28-.1.65,0,.95.08.84.26,1.72.29,2.53.05.85-.25,1.68-.24,2.53-.26.53-.01,1.08.06,1.57-.08.72-.22,1.38-.27,2.1,0,.34.13.82.11,1.16-.02,1.02-.4,2.07-.3,3.12-.31.66,0,1.33.06,1.97-.07.68-.15,1.37-.09,1.93.16.94.42,1.86.47,2.84.39.25-.02.54.15.76.08.95-.28,1.85-.47,2.87-.2.87.23,1.81.19,2.72.32,2.79.4,5.6.62,8.43.54,1.3-.04,2.63-.18,3.92.19.28.08.63-.09.95-.12,1.11-.11,2.21-.18,3.32.11.68.18,1.48.28,2.13.1,1.37-.37,2.74-.27,4.11-.29.92-.02,1.83.04,2.72-.31.41-.16.91-.11,1.37-.12.72-.02,1.45-.04,2.17,0,1.66.1,3.26-.23,4.86-.58.44-.1.97-.29,1.35-.15,1.38.51,2.71-.14,4.06-.09.26.01.56-.01.77-.14,1.01-.61,2.12-.61,3.24-.66.64-.03,1.31-.16,1.91-.4,1.22-.48,2.46-.34,3.7-.31.25,0,.52.1.75.21.52.25,1.03.77,1.54.77,1.03,0,2.08-.19,3.09-.42.66-.15,1.34-.34,1.94-.11.92.37,1.81.13,2.71.13.32,0,.66-.08.95,0,1.17.35,2.36.16,3.53.14.96-.02,1.79-.54,2.46-1.14.76-.69,1.57-.88,2.52-.8.9.07,1.5.5,1.72,1.35.56,2.15,1.05,4.31,1.2,6.53.05.72-.06,1.38-.53,2.04-1,1.41-2.1,2.68-3.66,3.5-.1.05-.17.18-.25.27.12.04.24.1.37.12.19.04.42,0,.58.1.5.3.93.75,1.46.96.53.2,1.16.13,1.73.26.22.05.48.29.56.51.23.61.43,1.24.54,1.88.17,1.03-.1,1.91-.92,2.66-.89.82-1.79,1.49-3.04,1.67-1.08.16-2.09.72-3.25.45-.22-.05-.49.15-.74.23-1.39.45-2.81.53-4.26.5-.45-.01-.92.05-1.35.17-.66.18-1.29.18-1.92-.1-1.62-.71-3.33-.58-5.03-.47-.51.03-.99.24-1.53.07-.19-.06-.47.16-.7.27-.18.08-.41.29-.51.23-1-.51-1.92.13-2.88.18-1.81.1-3.62.35-5.43.51-.45.04-.9-.02-1.36-.03-.26,0-.6-.14-.76-.03-.86.61-1.85.43-2.8.54-.32.04-.66.17-.97.12-1.5-.23-3,.13-4.5.04-.39-.02-.84.1-1.18-.05-1.31-.55-2.57-.12-3.87.06-1.33.19-2.68.65-4.03.04-.11-.05-.27-.06-.39-.02-1.07.39-2.22.22-3.29.5-.79.21-1.55.2-2.34.24-1.57.09-3.16-.21-4.69.34-.18.06-.41.08-.58.03-.9-.29-1.79-.11-2.69.01-.84.12-1.71-.01-2.53.33-.23.1-.52.09-.78.06-.91-.1-1.8-.11-2.72.02-.91.13-1.83.11-2.75.14-.26,0-.52,0-.77-.05-1.13-.19-2.22-.08-3.29.34-.99.4-2.05.25-3.08.33-.85.07-1.71.02-2.57.03-.39,0-.81-.03-1.17.1-1.03.37-2.05.38-3.09.08-.18-.05-.4-.09-.57-.03-1.61.51-3.27.14-4.9.23-.72.04-1.44-.02-2.14.24-.36.13-.77.11-1.16.16-.65.08-1.29.2-1.94.22-.7.02-1.4.05-2.11-.08-.76-.13-1.56-.04-2.34,0-.71.05-1.42.23-2.14.25-1.45.04-2.9.02-4.34,0-.92,0-1.84.2-2.73.2-.89,0-1.81-.21-2.73-.18-.26,0-.55-.06-.79.01-1.47.48-3,.27-4.49.4-.59.05-1.15.12-1.75,0-.5-.1-1.09-.13-1.56.03-1.23.42-2.47.27-3.71.31-1.24.04-2.5-.14-3.7.35-.12.05-.27.06-.39.03-1.03-.26-2.06-.04-3.09-.07-.39-.01-.76-.03-1.15.03-.45.07-.97.16-1.37,0-1.09-.43-2.21-.28-3.32-.29-1-.01-1.95-.17-2.9-.49-.62-.21-1.27-.33-1.88-.55-1.07-.38-1.24-.69-1.09-1.94.03-.28.08-.51-.23-.64-.12-.05-.22-.15-.35-.19-1.49-.51-2.31-1.68-2.9-3.03-.54-1.22-1.46-2.12-2.42-2.99-1.04-.93-1.85-1.97-2.12-3.4-.28-1.47-.7-2.92-1.56-4.18-.6-.88-1.01-1.82-1.2-2.87-.08-.43-.26-.9-.54-1.24-1.43-1.75-2.28-3.79-3.1-5.87-.42-1.05-.15-1.94.26-2.83.29-.64.93-.91,1.63-.89.25,0,.51.2.76.19,1.47-.06,2.86.29,4.23.79.24.09.5.04.54-.34.08-.78.35-1.54.03-2.33-.07-.18-.14-.41-.08-.57.47-1.35.16-2.74.26-4.11.02-.33-.02-.68.1-.97.35-.83.24-1.68.28-2.53.04-.91-.13-1.84.27-2.73.1-.21.02-.51-.01-.77-.08-.65-.21-1.29-.28-1.93-.09-.78-.08-1.55-.01-2.34.09-1.1.24-2.19.08-3.32-.13-.9-.02-1.81.21-2.73.19-.73.12-1.57,0-2.33-.35-2.16-.41-4.29.07-6.44.2-.87.41-1.73.16-2.69-.22-.87-.05-1.83-.09-2.75-.04-.85-.12-1.7-.19-2.54-.01-.13-.08-.26-.06-.38.49-2.28.13-4.59.26-6.88.02-.45.06-.93.21-1.35.32-.9.43-1.74-.05-2.63-.17-.32-.12-.77-.15-1.16-.09-1.37.16-2.74-.25-4.11-.16-.52.08-1.14.1-1.72.06-1.97.11-3.94.14-5.91,0-.38-.14-.77-.21-1.15-.06-.32-.18-.65-.15-.96.18-1.5-.09-3-.06-4.5.04-1.51.02-3.03.02-4.54,0-1.51,0-3.03-.01-4.54,0-1.24,0-2.48.07-3.7.08-1.31-.04-2.59-.05-3.88,0-.85-.04-1.69.24-2.54.2-.6.14-1.3.15-1.95.01-.79-.07-1.58.26-2.33.19-.44.13-.9-.04-1.35-.07-.18-.19-.39-.16-.56.38-1.63-.29-3.24-.09-4.87.08-.64.01-1.32-.14-1.95-.13-.54-.16-1,.02-1.53.14-.42.14-.91.14-1.36,0-1.25-.11-2.49.35-3.7.13-.34.09-.79.02-1.17-.31-1.62-.27-3.2.27-4.77.08-.24.13-.54.05-.77-.54-1.61-.2-3.26-.29-4.9-.08-1.36.02-2.73-.3-4.07-.07-.3-.06-.68.04-.97.33-.9.23-1.8.19-2.73-.04-.97.03-1.95.07-2.93.1-2.16-.11-4.33.15-6.5.13-1.09-.11-2.22-.12-3.33,0-.58.11-1.17.19-1.75.02-.19.16-.41.12-.57-.27-.9-.25-1.76-.04-2.69.18-.8.07-1.68.07-2.52,0-.97-.34-1.95-.3-2.91.04-.9.48-1.8.31-2.72-.25-1.38-.1-2.71.24-4.05.03-.13.1-.28.05-.38-.45-1.05.05-2.06.06-3.08.02-1.85.4-3.65.46-5.48.03-.95.14-1.84.75-2.59.31-.38.29-.76,0-1.06-1.36-1.47-1.9-3.44-3.06-5.04-.45-.63-.68-1.4-.89-2.17-.42-1.5-.97-2.97-1.67-4.37-.17-.34-.49-.61-.72-.93-1.13-1.54-1.5-3.19-.74-5.01.12-.3.27-.6.47-.85.67-.88,1.52-1.21,2.6-.81,1.8.68,3.68.87,5.58,1.05.78.08,1.54.32,2.3.48.33.07.48-.1.48-.41,0-1.25.08-2.48.42-3.7.52-1.87,1.87-3.01,3.8-3.1.46-.02.97.06,1.37-.11,1.42-.6,2.72-.05,4.01.37.68.22,1.32.56,2.07.56.5,0,.85.33,1.04.79.25.6.48,1.22.74,1.82.15.33.45.52.8.41,1.22-.36,2.02.02,2.48,1.22.1.26.43.47.7.63.22.13.5.21.75.21,2.63-.04,5.25-.06,7.88-.18,2.34-.11,4.68-.5,7.02.08.31.08.69.12.97.01.89-.34,1.81-.24,2.73-.33,1.04-.1,2.07-.28,3.11-.46.14-.02.37-.31.34-.4-.46-1.33-.09-2.76-.47-4.08-.24-.85-.19-1.69-.26-2.54-.12-1.44.41-2.74.94-3.99.41-.96,1.38-1.6,2.33-2.02.52-.23,1.31-.13,1.89.07,1.09.38,2.15.35,3.28.26,1.61-.12,3.23-.54,4.85,0,.16.05.45,0,.55-.11.48-.51,1.07-.34,1.64-.38.82-.05,1.62.29,2.49-.09.75-.33,1.68-.03,2.52-.35.41-.16.91-.06,1.37-.11.71-.08,1.42-.18,2.13-.29.85-.13,1.69-.25,2.45.35.19.16.48.3.71.28.96-.06,1.56.51,2.21,1.1.97.88,2.03,1.66,3.04,2.48.46.37.99.68,1.35,1.13.81,1.04,1.65,2.04,2.57,2.98.25.26.38.68.47,1.05.29,1.21.53,2.43.81,3.64.13.54.38.76.81.59.89-.35,1.8-.28,2.72-.3.52-.01,1.04-.11,1.56-.16.25-.02.52-.07.76-.01,1.43.37,2.88.15,4.32.19.44.01.7-.21.86-.65.39-1.05.82-2.08,1.26-3.1.51-1.19.5-2.39-.38-3.33-1-1.06-1.05-2.18-.74-3.46.12-.51.13-1.05.29-1.54.22-.65.23-1.23-.09-1.88-.53-1.05-.48-2.15-.07-3.25.81-2.15,2.19-3.67,4.52-4.22,1.85-.43,3.68-.99,5.6-.5,1.07-.29,2.23-.05,3.24-.68.68-.42,1.45-.6,2.27-.37.18.05.41.05.58,0,1.54-.56,3.12-.28,4.69-.32.33,0,.66.03.99,0,1.61-.1,3.14.12,4.58.9.27.15.65.24.93.17.77-.19,1.45.01,2.04.44.46.33.92.48,1.47.44,1.08-.08,2.06.35,3.07.59.74.18,1.12.67,1.35,1.5.32,1.18.64,2.39,1.25,3.49.24.43.21,1.01.26,1.52.04.33,0,.66,0,1.28ZM33.85,247.86c-.07,0-.13,0-.2,0-1.9-.02-1.93,0-2.29,1.88-.04.19-.12.38-.14.57-.02.3.15.5.42.57.58.17,1.15.11,1.74-.07.74-.23,1.51-.47,2.28-.52,1.16-.07,2.33-.03,3.47-.37.42-.12.92-.12,1.36-.05.98.16,1.94-.22,2.92-.09.25.03.54,0,.77-.1.82-.36,1.67-.28,2.53-.29,1.11,0,2.23.12,3.31-.31.34-.14.78-.04,1.17-.07.78-.05,1.58-.2,2.35-.14.86.07,1.69.14,2.5-.22.11-.05.28-.05.39,0,.74.29,1.41,0,2.1-.19.44-.12.9-.25,1.34-.22,1.6.12,3.1-.55,4.68-.48.87-.4,1.8-.35,2.72-.3.71.04,1.43.33,2.12.27.69-.06,1.36-.42,2.04-.65.06-.02.13-.03.2-.02,1.7.09,3.42-.25,5.1.18.42.11.75,0,1.13-.14.42-.16.94-.44,1.29-.32.72.25,1.27.02,1.88-.24.29-.12.68-.26.93-.15.79.32,1.5.25,2.29-.03.47-.17,1.04-.09,1.56-.1.46-.01.94.07,1.38-.02.7-.15,1.37-.28,2.11-.19.76.09,1.56-.13,2.34-.16.92-.04,1.83-.08,2.73.25.34.12.79.1,1.15,0,1.91-.53,3.85-.75,5.84-.66.39.02.83.05,1.17-.09.76-.32,1.55-.23,2.33-.28,1.55-.11,3.13.38,4.65-.27.1-.04.26,0,.38.06.45.18.88.13,1.34,0,.43-.13.9-.16,1.36-.18,1.25-.03,2.5-.08,3.75-.03,1.23.05,2.44-.4,3.69-.02.33.1.76-.12,1.14-.23,1.4-.41,2.03-.43,3.8-.2.58.07,1.18.03,1.77.03.26,0,.43-.22.3-.36-.09-.09-.2-.22-.3-.23-.77-.05-1.55-.09-2.32-.12-1.82-.08-3.64-.19-5.46.17-.77.15-1.63-.06-2.15-.69-.73-.89-1.51-1.04-2.57-.72-.99.3-2.04.43-3.07.6-.63.11-1.31.06-1.9.27-.72.25-1.36.33-2.08,0-.61-.28-1.21-.23-1.87.06-.95.42-1.94.51-3.04.37-1.18-.15-2.42.3-3.65-.03-.21-.06-.49.17-.74.23-.83.18-1.66.43-2.5.48-1.04.05-2.09-.12-3.14-.12-1.11,0-2.22.1-3.32.14-.26,0-.52-.04-.78-.08-.87-.16-1.69-.01-2.43.47-.35.23-.65.31-1.09.2-1.09-.28-2.19-.32-3.29.07-.42.15-.9.11-1.36.15-.52.05-1.06.03-1.55.17-1.11.33-2.25.35-3.31.06-1.29-.36-2.46-.17-3.65.25-.31.11-.62.21-.93.33-.5.2-.98.15-1.52.08-1.42-.18-2.85-.24-4.3.11-1.05.25-2.15.44-3.27.38-.94-.05-1.94-.37-2.81.32-.08.06-.25.02-.38.02-1.23,0-2.46.07-3.66-.25-.41-.11-.74-.04-1.13.1-1.62.57-3.34.47-5,.75-.06.01-.14.01-.2,0-.82-.29-1.63-.37-2.48-.03-.21.09-.53.01-.77-.08-.84-.32-1.66-.3-2.5.04-.29.12-.65.08-.97.1-.9.05-1.86-.22-2.64.5-.08.07-.25.07-.37.06-1.56-.05-3.12-.11-4.68-.17ZM154.84,241.4c-.26.02-.71.02-1.14.09-1.09.18-2.19.37-3.28.58-.25.05-.5.17-.74.26-.12.05-.23.12-.34.18.15.12.29.3.46.33.51.1,1.07.29,1.54.17,1.22-.3,2.49-.21,3.7-.45,1.64-.33,3.24-.43,4.86,0,.19.05.42.11.57.04,1.07-.47,2.2-.25,3.31-.35.37-.03.73-.26,1.08-.42.03-.01.03-.25-.02-.29-.57-.38-1.17-.49-1.86-.28-1.64.49-3.31.82-5.03.63-.97-.1-1.93-.31-3.1-.51ZM24.91,44.65c.1-.07.28-.12.3-.21.24-.99.9-1.7,1.62-2.36.09-.09.2-.18.25-.29.04-.09.02-.3-.01-.31-.62-.13-1.3-.45-1.86-.31-.7.17-1.26-.07-1.89-.14-.11-.01-.24.07-.35.12-.02,0,0,.12.03.17.55,1.03,1.1,2.05,1.66,3.07.06.1.17.17.26.25ZM125.68,31.2c-.07-.1-.18-.34-.37-.45-1.04-.63-2.3-.27-3.39-.72-.09-.04-.32.16-.42.29-.1.15-.12.37-.18.55-.1.3-.03.52.31.54.58.03,1.17-.01,1.75.04.57.06,1.14.22,1.71.3.26.03.51-.06.58-.55Z"/><path class="cls-4" d="M54.89,34.44c-3.09,0-6.19,0-9.28,0-.59,0-1.17-.07-1.75-.17-.14-.02-.31-.28-.32-.44-.01-.16.12-.45.24-.49.75-.21,1.52-.47,2.29-.51,1.71-.08,3.42-.05,5.13-.06.46,0,.93.05,1.38-.02,3.27-.52,6.56-.3,9.84-.35,2.93-.04,2.7.29,2.71-2.81,0-1.91-.03-3.82.04-5.72.03-.98.24-1.95.36-2.92.08-.68.51-1.07,1.1-1.26.49-.16,1.02-.26,1.53-.3,4.19-.31,8.38-.39,12.57-.62,1.17-.06,2.34-.14,3.51-.17,1.18-.03,2.37,0,3.55-.04.85-.02,1.7-.06,2.54-.18.65-.09,1.17.09,1.66.45,1.11.82,2.21,1.64,3.3,2.49,1.86,1.45,3.74,2.89,5.55,4.4.83.7,1.85,1.34,1.88,2.64.02.7.44.86,1.07.86,2.5,0,5,.01,7.5,0,1.07,0,1.83-.71,2-1.77.06-.39.03-.79.03-1.18,0-1.78-.01-3.55,0-5.33,0-1.18,0-2.35.29-3.53.19-.82.1-1.7.13-2.55.02-.53,0-1.06.06-1.58.08-.6.31-1.14.88-1.46.63-.35,1.22-.83,1.89-1.04,2.26-.68,4.52-1.34,6.87-1.71,1.97-.31,3.92-.34,5.89-.35,2.11-.01,4.21.02,6.32-.01,2.44-.03,4.83.41,7.23.68,2.24.24,4.38.86,6.55,1.35,1.08.24,1.97.8,2.37,1.88.18.48.28,1.02.27,1.53-.06,2.18.24,4.31.67,6.45.12.62.07,1.33-.1,1.94-.43,1.54-.35,2.94.54,4.32.46.73.88,1.39,1.62,1.92,3.31,2.36,6.6,4.76,9.84,7.22,2.04,1.54,4.26,2.85,6.1,4.65.14.14.27.29.43.41.76.63.97,1.43,1.09,2.41.71,5.84.23,11.69.33,17.53.07,4.14.03,8.29,0,12.44-.02,2.95-.25,5.91-.1,8.84.11,2.09-.32,4.16-.09,6.23.28,2.49-.32,4.95-.19,7.44.12,2.43.02,4.87.01,7.3,0,2.5,0,5-.01,7.5,0,6.12-.01,12.24-.03,18.36,0,1.05.09,2.1-.25,3.13-.1.3-.04.65-.02.98.08,1.7.2,3.39.25,5.09.02.65-.11,1.3-.18,1.95-.03.33-.19.67-.13.97.39,1.9-.15,3.78-.07,5.67.09,1.97.02,3.95.02,5.92,0,1.91,0,3.82,0,5.73,0,1.97,0,3.95,0,5.92,0,1.91,0,3.82-.03,5.72-.02,1.11-.13,2.22-.18,3.34-.01.26.02.52.04.78.05.92.14,1.83.14,2.75,0,1.62-.26,3.24-.06,4.87-.59,4.32-.2,8.67-.28,13-.08,4.28-.03,8.55-.04,12.83,0,3.49,0,6.98-.02,10.46,0,.78-.14,1.56-.22,2.34-.03.26-.11.52-.09.78.18,2.69-.11,5.37-.06,8.06.05,2.7.01,5.4.04,8.09,0,.65.11,1.31.15,1.96.03.45.12.92.03,1.35-.09.46-.05.78.37.99.84.41,1.31,1.06,1.39,2,.08.97-.23,1.82-.87,2.54-.89,1-1.92,1.79-3.19,2.23-.56.19-1.15.36-1.62.69-.86.6-1.77.79-2.79.79-1.97.01-3.93.02-5.89.32-1.55.23-3.15.04-4.73.1-.98.03-1.96.17-2.93.26-.52.04-1.05.09-1.57.1-1.51.03-3.03.03-4.54.05-.39,0-.81-.06-1.18.04-1.62.44-3.27.27-4.91.33-1.31.05-2.63-.07-3.92.31-.37.11-.78.04-1.18.06-2.62.1-5.24-.08-7.87.34-1.67.26-3.41.09-5.13.11-1.18.01-2.35.07-3.53.25-1.35.21-2.76.1-4.14.13-1.11.02-2.23-.05-3.33.28-.37.11-.78.06-1.18.08-2.03.09-4.08-.14-6.1.25-1.19-.38-2.33.22-3.51.16-1.18-.06-2.39-.12-3.55.06-2.68.41-5.4.09-8.06.42-3.09.37-6.18.08-9.25.39-2.62.27-5.26.12-7.86.41-2.63.3-5.26.09-7.86.37-2.89.32-5.79.12-8.65.42-2.5.26-5,.08-7.47.37-3.54.41-7.1.12-10.63.42-2.23.19-4.45.23-6.68.33-.57.02-1.18.18-1.69.43-.83.42-1.53.24-2.21-.26-.37-.27-.72-.58-1.01-.94-.79-.96-1.55-1.95-2.32-2.93-1.83-2.33-3.1-5.03-4.74-7.48-1.06-1.58-2.19-3.11-3.31-4.64-.77-1.06-1.59-2.09-2.38-3.13-.63-.83-1.13-1.78-2.06-2.37-.36-.23-.52-.59-.51-1.01,0-.72,0-1.45.05-2.17.06-.76.33-1.43,1.08-1.76.72-.32.87-.88.87-1.6-.01-3.29,0-6.58,0-9.87,0-1.9,0-3.79.32-5.67.09-.51.04-1.05.05-1.58.03-1.9.07-3.8.07-5.7,0-1.91-.02-3.82-.04-5.72-.02-1.96.03-3.92.07-5.88.03-1.62-.02-3.26.08-4.87.39-5.72.13-11.44.2-17.16.07-5.2.03-10.4.04-15.6,0-.59,0-1.19.13-1.76.15-.66.25-1.28.03-1.94-.06-.18-.11-.39-.07-.58.56-3,.17-6.04.26-9.06.09-3.09.02-6.19.05-9.28.01-1.05.15-2.09.18-3.14.02-.97-.14-1.96-.02-2.91.15-1.18-.01-2.33-.01-3.49,0-3.2-.01-6.41-.04-9.61,0-.98-.11-1.96-.11-2.94,0-23.1,0-46.19,0-69.29,0-.33-.02-.66,0-.99.05-.83-.2-1.51-.78-2.14-.52-.57-.92-1.27-1.29-1.96-.56-1.04-.36-2.08.34-2.96.53-.66,1.15-1.27,1.82-1.79.63-.5,1.35-.63,2.22-.48,2.26.39,4.53.77,6.84.66.76-.04.94-.1,1.08-.85.29-1.49,1.07-2.32,2.56-2.88,1.83-.69,3.6-1.16,5.55-1.03.98.07,1.98.08,2.96.03,1.53-.09,3,.3,4.5.46.74.08,1.39.44,1.89.98.53.58.99,1.22,1.47,1.84.59.75.57,1.27-.28,2.04-.84.77-1.84,1.23-2.97,1.44-.64.12-1.26.33-1.88.55-.12.04-.23.34-.2.49.03.14.27.38.36.36.99-.22,1.95.13,2.92.13.78,0,1.4-.18,1.8-.93.21-.39.57-.72.9-1.03.12-.11.4-.16.53-.09.29.15.24.43.08.67-.4.6-.75,1.24-1.44,1.58-.75,1.32-1.94,1.49-3.35,1.5-1.17,0-2.31.15-3.49-.04-.96-.15-1.97-.02-2.96-.02-.06,0-.17.05-.17.07.01.1.02.27.09.3,1.13.53,2.25,1.06,3.39,1.55.78.34,1.59.61,2.38.91.74-.41,1.47-.83,2.21-1.24.06-.03.12-.07.18-.08.62-.12,1.3-.11,1.83-.39.49-.26.81-.84,1.22-1.27.08-.08.23-.11.35-.14.06-.01.15,0,.18.04.08.1.18.22.17.33-.08.62-.4,1.14-.88,1.49-1.21.89-2.36,1.91-3.97,2.01-.55.03-.88.29-.85.86.09,1.56-.89,2.21-2.17,2.65-1.15.39-2.29.55-3.48.19-.88-.27-1.77-.51-2.65-.76-.95-.27-1.89-.55-2.84-.81-.12-.03-.25,0-.37,0,.04.16.03.35.12.48.14.22.38.38.49.62.7,1.58.88,1.63,2.85,1.34,2.37-.34,4.72-.25,7.08-.34.59-.02,1.17-.1,1.76-.17.33-.04.65-.14.97-.15,3.48-.16,6.95-.31,10.43-.45,1.25-.05,2.48,0,3.73-.27.82-.18,1.7-.09,2.56-.11,2.03-.06,4.06.04,6.09-.31,1.35-.23,2.76-.08,4.14-.1,1.12-.02,2.22-.09,3.33-.24,1.49-.2,3.02-.11,4.53-.15.39-.01.78-.04,1.17-.09.06,0,.16-.23.13-.29-.09-.17-.22-.32-.36-.46-2.56-2.56-5.13-5.1-7.67-7.68-.65-.66-1.37-.92-2.28-.91-3.29.03-6.58.01-9.87.01,0,.01,0,.02,0,.04ZM131.36,239.3c3.23-.18,6.93.34,10.58-.39,2.46-.49,4.96-.34,7.44-.72,2.71-.42,5.48-.44,8.21-.84,2.46-.37,4.97-.33,7.43-.79.38-.07.77-.11,1.15-.16-.34-.42-.81-.19-1.21-.19-1.18,0-2.37.04-3.55.11-.91.05-1.82.2-2.74.24-1.25.06-2.52-.08-3.74.13-1.18.21-2.34.26-3.53.27-1.71.02-3.42.03-5.13.05-.52,0-1.05.06-1.57.11-.78.07-1.56.18-2.34.23-1.31.07-2.63.09-3.94.16-.78.04-1.56.2-2.34.22-1.78.05-3.55.04-5.33.06-.53,0-1.08-.06-1.57.08-1.1.32-2.22.25-3.33.27-1.51.03-3.05-.08-4.53.14-1.18.17-2.35.23-3.53.26-1.38.03-2.76.06-4.14.13-.91.05-1.82.21-2.74.25-1.96.1-3.95-.14-5.89.36-.37.1-.79.03-1.18.03-1.25.01-2.5-.02-3.75.04-.98.04-1.95.19-2.93.28-.46.04-.92.06-1.38.08-2.36.08-4.74-.16-7.07.37-.38.09-.79.02-1.18.03-1.71.02-3.42.03-5.13.05-.46,0-.95-.05-1.37.07-1.16.34-2.35.25-3.53.28-1.18.03-2.39-.08-3.54.13-1.25.23-2.48.24-3.73.26-1.18.02-2.4-.14-3.54.1-1.77.36-3.53.26-5.3.31-1.25.04-2.53-.14-3.74.09-1.9.36-3.8.26-5.7.31-.85.02-1.74-.06-2.56.12-1.05.23-2.08.24-3.13.26-1.51.02-3.05-.11-4.53.12-1.45.23-2.88.22-4.32.28-1.77.07-3.54-.09-5.3.32-.75.18-1.57.05-2.36.04-.57,0-1.02-.23-1.23-.8-.09-.25-.2-.49-.31-.72-.39-.82-.14-1.37.72-1.58.19-.05.39-.07.59-.07,2.17.01,4.3-.58,6.48-.42.32.02.65-.07.98-.11.72-.08,1.43-.19,2.15-.22,1.25-.05,2.53.11,3.74-.1,2.36-.4,4.72-.25,7.08-.35.46-.02.91-.09,1.37-.14.65-.07,1.3-.18,1.95-.2,1.58-.04,3.16-.03,4.74-.06.59,0,1.18-.04,1.77-.09.91-.08,1.82-.21,2.74-.26,1.83-.1,3.68.13,5.5-.35.31-.08.65-.02.98-.03,1.58-.02,3.16-.03,4.74-.06.52,0,1.05-.06,1.57-.11.78-.07,1.56-.2,2.34-.23,1.64-.05,3.32.13,4.93-.12,2.17-.34,4.33-.25,6.49-.32.85-.03,1.74.08,2.56-.1,1.24-.28,2.48-.26,3.73-.29.99-.03,1.97-.08,2.95-.12,2.42-.1,4.85-.08,7.26-.32,2.95-.3,5.9-.34,8.85-.38.13,0,.27,0,.39-.04,1.54-.48,3.13-.27,4.7-.33.72-.03,1.47.06,2.16-.11,1.04-.26,2.09-.29,3.13-.25,4.41.16,8.79-.57,13.19-.46.26,0,.52-.06.78-.08.91-.09,1.82-.22,2.74-.25,1.51-.06,3.06.13,4.53-.11,2.3-.38,4.59-.26,6.88-.33.53-.02,1.05-.04,1.57-.09.98-.08,1.95-.22,2.93-.26,1.51-.06,3.05.12,4.53-.12,1.71-.27,3.4-.24,5.11-.31.33-.01.66,0,.99-.03.65-.05.92-.29.88-.8-.03-.42-.28-.66-.8-.67-.66-.02-1.35-.11-1.97.04-1.89.48-3.8.25-5.7.34-.79.04-1.61-.09-2.36.09-1.44.35-2.88.24-4.32.29-.72.03-1.47-.06-2.16.12-.98.25-1.95.23-2.94.26-1.77.06-3.55-.12-5.3.34-.43.12-.92.04-1.38.04-1.58.02-3.16.02-4.74.05-.52,0-1.05.05-1.57.1-.91.08-1.82.2-2.74.25-1.38.06-2.78-.07-4.14.15-1.18.19-2.35.24-3.53.26-1.38.02-2.8-.13-4.14.11-1.71.31-3.4.24-5.11.3-.66.02-1.34-.04-1.96.12-.98.26-1.95.24-2.94.25-1.78.02-3.58-.15-5.32.11-1.97.3-3.93.24-5.89.31-.72.03-1.44.07-2.16.13-.85.07-1.69.21-2.54.24-1.51.06-3.05-.11-4.53.13-1.51.25-3.01.24-4.51.29-1.77.06-3.55-.11-5.3.34-.37.1-.79.03-1.18.03-1.51.02-3.03.03-4.54.05-.46,0-.94-.04-1.37.09-.97.29-1.95.24-2.94.26-1.32.02-2.66-.11-3.94.12-1.38.24-2.74.25-4.12.28-1.05.03-2.14-.12-3.15.08-1.77.36-3.53.26-5.3.31-1.12.03-2.26-.08-3.35.13-1.25.24-2.48.23-3.73.27-1.77.05-3.55-.14-5.3.33-.37.1-.79.04-1.18.04-1.51.02-3.03.02-4.54.05-.59.01-1.19.03-1.76.14-1.96.39-3.93.15-5.9.21-.53.01-.88-.28-.99-.79-.14-.64-.32-1.28-.33-1.93-.02-3.15.02-6.3.03-9.45,0-1.04-.06-2.09-.06-3.13,0-12.04,0-24.09-.03-36.13,0-3.22-.08-6.43-.14-9.65-.02-.85-.21-1.69-.19-2.54.05-2.16.05-4.31-.01-6.47-.01-.52.06-1.05.11-1.57.02-.26.15-.54.1-.77-.4-1.69-.21-3.41-.21-5.11-.03-13.1-.04-26.19-.05-39.29,0-2.76,0-5.53,0-8.29,0-2.83-.05-5.66,0-8.49.06-2.75-.2-5.5-.02-8.25.03-.51-.13-1.04-.16-1.56-.03-.58-.12-1.19,0-1.74.16-.8.21-1.55-.03-2.33-.09-.31-.18-.68-.09-.97.38-1.22-.24-2.48.22-3.69.06-.16-.04-.38-.06-.58-.07-.85-.2-1.7-.19-2.54.01-1.24.24-2.49.17-3.72-.09-1.49.22-2.99-.17-4.47-.08-.31-.05-.66-.01-.98.14-1.44,0-2.88,0-4.32-.02-2.82.1-5.64,0-8.46-.02-.52-.06-1.08.08-1.57.35-1.23.22-2.48.26-3.73.05-1.88-.1-1.92-2.06-1.86-.32.01-.66.08-.96.18-.46.16-.82.46-.81,1,.02.98.05,1.97.11,2.95.05.78.23,1.56.23,2.34.02,4.87,0,9.74,0,14.61,0,.46.06.94-.05,1.38-.46,1.75-.28,3.53-.36,5.3-.02.52-.07,1.05-.11,1.57-.07.78-.2,1.56-.23,2.34-.23,5.84.31,11.7-.37,17.54-.22,1.88-.04,3.81-.07,5.72-.02,1.96-.26,3.9-.35,5.85-.09,1.97-.04,3.95-.06,5.92,0,.53,0,1.06-.08,1.57-.33,2.02-.17,4.05-.25,6.07,0,.26.04.52.08.78.39,2.15.39,4.31,0,6.46-.07.38-.08.78-.09,1.18-.02,1.32-.03,2.63-.03,3.95-.01,14.02-.02,28.03-.03,42.05,0,.59.07,1.21-.08,1.77-.31,1.17-.26,2.35-.28,3.53-.02,1.32.11,2.65-.08,3.94-.36,2.48-.31,4.97-.33,7.46-.04,4.01,0,8.03-.01,12.04,0,.59.08,1.21-.07,1.77-.29,1.1-.27,2.21-.32,3.33-.02.46-.09.91-.13,1.37-.21,2.08-.42,4.17-.62,6.26-.03.26-.01.53.01.79.1,1.04.22,2.07.3,3.1.03.39.01.79-.07,1.17-.12.61-.9.91-1.41.57-.27-.18-.49-.44-.76-.63-.81-.56-1.61-1.13-2.44-1.65-.41-.25-.83.04-.76.51.31,1.95.79,3.83,1.9,5.53,1.95,2.97,4.1,5.8,5.73,8.97.24.46.56.9.89,1.3,1.01,1.23,1.77,2.59,2.37,4.07.24.61.59,1.18.9,1.75.15.27.64.25.84-.03.45-.6.58-1.3.69-2.02.09-.65.25-1.29.4-1.92.18-.75.71-1.06,1.45-1.07.53,0,1.05-.01,1.58-.02.86-.01,1.72.06,2.56-.06,1.04-.14,2.04-.33,3.12-.21,1.03.12,2.09-.09,3.14-.14,3.14-.17,6.27-.43,9.42-.45.9,0,1.83,0,2.71-.13,1.32-.19,2.62-.15,3.93-.19.92-.03,1.84-.02,2.76-.07,1.89-.1,3.78-.23,5.67-.33,2.16-.11,4.34.18,6.48-.35.37-.09.79-.02,1.18-.03,1.38-.02,2.78.08,4.14-.08,2.55-.32,5.1-.32,7.65-.34.92,0,1.85.06,2.76-.05,2.48-.31,4.96-.35,7.45-.36.46,0,.95.06,1.38-.06,1.23-.34,2.48-.27,3.72-.31,2.16-.07,4.34.17,6.48-.34.25-.06.52-.02.79-.03,1.38-.02,2.76,0,4.15-.06.78-.03,1.56-.14,2.34-.26,2.4-.35,4.75-1.03,7.21-.92.2,0,.4.01.59-.04,1.48-.42,3-.31,4.51-.32,1.91-.02,3.82,0,6.16,0ZM106.78,47.86s0-.07,0-.1c.85,0,1.71.02,2.56,0,.55-.02.73-.18.6-.73-.12-.55.04-1.03.12-1.55.09-.57-.15-.96-.62-1.07-.83-.19-1.67-.47-2.5-.49-2.5-.05-5.01-.14-7.49.09-1.57.15-3.14.22-4.71.28-1.57.05-3.15-.08-4.71.34-.37.1-.79.03-1.18.03-1.84.02-3.68.03-5.53.05-.46,0-.94-.06-1.38.06-1.36.38-2.74.26-4.12.3-1.31.03-2.65-.07-3.94.14-1.12.18-2.22.23-3.33.25-1.58.02-3.18-.14-4.73.09-2.82.43-5.64.23-8.46.35-.39.02-.81-.04-1.18.07-1.16.34-2.35.25-3.52.29-2.03.08-4.08-.16-6.09.35-.25.06-.52.02-.79.03-3.28.11-6.55,0-9.84.33-3,.3-6.05.09-9.07.12-.71,0-1.33-.2-1.7-.81-.89-1.47-2.06-2.71-3.11-4.06-.44-.57-1.03-1.06-1.36-1.68-.97-1.82-2.51-3.2-3.57-4.94-.28-.46-.72-.77-1.25-.9-.06-.02-.17-.03-.19,0-.08.09-.2.24-.17.32.19.48.37.98.63,1.42.56.97,1.15,1.91,1.75,2.85,1.2,1.87,2.13,3.92,3.69,5.57.57.6.91,1.38,1.04,2.29.13.98.32,1.94.31,2.93,0,.68.36,1.11.96,1.35.36.14.75.29,1.13.29,1.38.01,2.79.15,4.13-.1,2.34-.44,4.71-.31,7.05-.59,2.99-.35,6.03,0,9.04-.42,1.94-.27,3.94.07,5.88-.4.37-.09.79-.02,1.18-.03,1.64-.01,3.29-.02,4.93-.04.53,0,1.08.06,1.57-.09,1.1-.32,2.22-.26,3.33-.27,1.71-.03,3.42-.02,5.13-.05.59-.01,1.18-.08,1.76-.13.78-.07,1.56-.18,2.35-.21,1.38-.05,2.79.12,4.14-.11,1.64-.28,3.27-.25,4.91-.29,1.31-.03,2.66.09,3.94-.13,1.31-.22,2.61-.24,3.92-.26,1.84-.03,3.71.15,5.52-.11,2.3-.33,4.59-.22,6.88-.33,2.02-.1,4.04-.21,6.06-.31ZM152.2,248.31c1.48,0,2.63.15,3.71-.04,1.25-.22,2.48-.24,3.73-.27,1.25-.03,2.5.04,3.75-.05,1.17-.08,2.35-.23,3.5-.49,1.37-.32,2.51-1.15,3.53-2.08.69-.63.5-1.6-.4-1.88-.98-.31-1.97-.73-3.07-.38-.99.31-2.11.13-3,.84-.13.11-.38.1-.57.11-2.23.03-4.43.52-6.68.47-2.23-.05-4.43.53-6.68.4-.06,0-.13,0-.2.02-2.31.6-4.7.26-7.05.65-1.79.3-3.67-.03-5.49.43-.31.08-.66.02-.98.03-2.88.15-5.78.18-8.65.49-1.57.17-3.13.28-4.71.32-.26,0-.54,0-.78.07-1.28.4-2.61.28-3.92.32-.59.02-1.21-.09-1.77.05-1.62.42-3.27.21-4.9.36-2.03.19-4.06.28-6.08.47-1.57.15-3.13.27-4.71.32-.39.01-.78.1-1.17.14-.72.08-1.43.18-2.15.22-2.82.16-5.64.29-8.45.44-.2.01-.4,0-.59.07-.96.34-1.95.26-2.93.29-.59.02-1.21-.08-1.77.06-1.62.41-3.27.26-4.9.35-2.23.12-4.45.29-6.68.43-.13,0-.26.05-.39.06-.85.09-1.69.24-2.54.25-2.02.04-4.03.28-6.05.38-2.42.13-4.83.61-7.27.47-.39-.02-.81-.06-1.18.05-1.29.37-2.61.29-3.92.33-.26,0-.54-.04-.79.04-1.35.44-2.74.26-4.11.35-2.16.13-4.32.28-6.48.43-.2.01-.39.08-.58.1-.72.08-1.43.19-2.15.22-.99.05-1.98,0-2.96.06-1.83.12-3.66.27-5.49.44-.11.01-.21.26-.31.4.1.07.2.21.31.21,1.51,0,3.04.13,4.53-.09,1.31-.19,2.61-.22,3.92-.27.85-.03,1.72.06,2.56-.06,2.09-.31,4.18-.31,6.28-.35.85-.02,1.69-.15,2.54-.23.33-.03.65-.09.98-.09,1.58-.03,3.16-.13,4.74-.03,1.57.1,3.1-.7,4.68-.15.11.04.25-.04.38-.05.91-.07,1.83-.15,2.74-.2.66-.04,1.33.05,1.97-.05,2.15-.32,4.3-.34,6.47-.36.46,0,.94.05,1.37-.08,1.16-.33,2.35-.27,3.53-.29,1.64-.02,3.29-.03,4.94-.04.46,0,.94.06,1.38-.06,1.42-.39,2.87-.27,4.32-.31,1.77-.06,3.55.12,5.3-.32.37-.09.79-.04,1.18-.04,1.65-.02,3.29-.02,4.94-.05.52,0,1.05-.06,1.57-.11.85-.07,1.69-.2,2.54-.23,1.58-.05,3.19.14,4.73-.12,2.3-.38,4.59-.23,6.88-.33.59-.03,1.21.06,1.77-.08,1.23-.32,2.49-.35,3.72-.27,2.16.15,4.3-.54,6.46-.12.12.02.26-.05.39-.06.91-.09,1.82-.19,2.73-.24.92-.05,1.87.09,2.76-.1,1.31-.27,2.61-.26,3.92-.28,1.45-.02,2.9-.03,4.34-.05.52,0,1.05-.05,1.57-.1.85-.08,1.69-.21,2.54-.24,1.45-.06,2.9-.02,4.34-.1,1.76-.1,3.52-.28,4.93-.39ZM82.57,35.78h0c0,2.04-.01,4.08,0,6.12.01,1.43.18,1.57,1.6,1.52.26-.01.54.01.78-.07,1.02-.35,2.08-.26,3.13-.28,1.05-.02,2.11.03,3.16-.03,1.5-.1,3-.26,4.5-.44.19-.02.45-.3.51-.51.1-.37.1-.78.1-1.17,0-3.75-.03-7.5.02-11.24.01-1.01-.24-1.8-1.04-2.41-.31-.24-.56-.56-.87-.8-2.21-1.75-4.49-3.41-6.52-5.38-.18-.18-.43-.29-.67-.4-.1-.04-.27,0-.35.06-.06.05-.08.26-.03.32.34.4.71.78,1.08,1.15,1.58,1.58,3.17,3.16,4.75,4.74.42.42.86.85.88,1.49.03,1.38.05,2.76.01,4.14-.01.6-.52,1.01-1.03.97-.45-.03-.85-.38-.92-.89-.16-1.17-.3-2.34-.41-3.51-.05-.55-.19-1.02-.57-1.42-1.71-1.82-3.37-3.68-5.11-5.46-1.83-1.87-1.08-1.61-4.12-1.63-.26,0-.52.04-.77.1-.05.01-.13.25-.09.3.25.3.52.59.81.86,1.67,1.57,3.36,3.13,5.03,4.72.32.31.71.69.8,1.09.33,1.54.66,3.09.48,4.68-.08.67-.66,1-1.29.74-.44-.18-.82-.45-.87-.97-.09-.85-.23-1.7-.2-2.54.05-1.33-.62-2.23-1.53-3.04-.59-.52-1.19-1.03-1.76-1.57-1.13-1.1-2.25-2.21-3.35-3.35-.8-.83-1.76-.72-2.75-.55-.04,0-.11.38-.03.46.73.76,1.4,1.61,2.24,2.21,1.19.85,2.14,1.94,3.2,2.91.88.81,1.26,1.8,1.24,2.99-.03,2.04,0,4.08,0,6.12ZM106.47,42.27s0-.04,0-.06c1.12,0,2.26.16,3.35-.03,2.29-.41,4.58-.26,6.88-.33.72-.02,1.46.05,2.16-.07,2.15-.37,4.32-.3,6.48-.32.66,0,1.31-.05,1.97-.1.91-.07,1.82-.22,2.73-.25,1.44-.05,2.89-.03,4.34-.05.52,0,1.05-.04,1.57-.08,1.04-.09,2.08-.23,3.13-.27,1.51-.06,3.04.06,4.53-.1,2.03-.23,4.05-.33,6.08-.31,1.78.02,3.54-.04,5.26-.61.37-.12.78-.11,1.16-.19,1.09-.22,2.18-.45,3.26-.69.29-.07.37-.44.15-.62-1.61-1.26-3.35-2.3-5.19-3.18-.2-.1-.53-.04-.75.06-.36.15-.68.4-1.01.6-1.87,1.13-3.82,2.01-6.01,2.34-2.4.36-4.79.76-7.16,1.27-2.16.46-4.32.3-6.48.19-1.82-.09-3.64-.42-5.45-.72-2-.33-3.99-.72-5.98-1.15-.83-.18-1.6-.59-2.43-.76-1.84-.37-3.48-1.22-5.06-2.15-.88-.51-1.71-.71-2.71-.84-2.43-.33-4.85-.13-7.28-.18-.76-.02-1.29.56-1.15,1.26.4,1.96.14,3.93.21,5.89.02.44-.12,1.05.11,1.26.26.24.86.15,1.31.17.66.02,1.31,0,1.97,0ZM135.94,15.09c-.92,0-1.84-.01-2.76,0-.54.01-.67.19-.65.73.06,1.28-.24,1.73-1.31,2-2.7.67-5.33.35-7.92-.52-.52-.18-1.02-.32-1.53-.09-.81.37-1.51.12-2.26-.2-.52-.22-1.14-.26-1.72-.32-.53-.05-.85.29-1.05.74-.37.82-.2,1.4.62,1.78.59.27,1.23.4,1.86.57.5.14,1.05.16,1.52.37.68.31,1.38.4,2.11.41.52,0,1.06,0,1.57.12,2.09.48,4.19.25,6.29.2,1.56-.04,3.12-.2,4.68-.33.65-.06,1.3-.14,1.94-.28,2.69-.61,5.36-1.26,8.05-1.85.83-.18,1.7-.17,2.54-.29.86-.12,1.15-.93.6-1.61-.51-.64-1.11-1.09-2-1.06-1.5.06-2.99-.28-4.5-.02-.64.11-1.34.12-1.96-.04-1.37-.35-2.74-.25-4.12-.29ZM142.25,13.42v.03c2.04,0,4.07.01,6.11,0,.44,0,.89-.12,1.33-.18-.13-.71-.82-.53-1.24-.75-.28-.15-.64-.12-.96-.2-2.16-.58-4.39-.75-6.58-1.1-1.48-.24-2.99-.44-4.49-.46-3.68-.06-7.36-.06-11.04.02-1.5.03-3.01.24-4.47.57-1.53.35-3.01.93-4.5,1.45-.35.12-.68.39-.94.67-.31.34.01,1.02.46,1.01,1.52-.04,2.99.2,4.42.71.3.11.69.23.95.12,1.17-.46,2.18.01,3.23.4.49.18.99.41,1.49.44,1.11.07,2.23.03,3.35,0,.62-.01.83-.15.88-.81.09-1.17.73-1.73,1.8-2.03.78-.22,1.53-.28,2.33-.15.77.12,1.56.22,2.34.24,1.84.03,3.68.01,5.52.01ZM67.2,27.65h-.03c0,.79-.01,1.58,0,2.36.06,3.54-.41,2.53,2.11,5.12,1.33,1.36,2.66,2.72,4,4.08.73.74,1.46,1.48,2.2,2.22.04.04.17.06.18.04.06-.1.13-.22.13-.33,0-.92.03-1.84-.05-2.76-.23-2.61-.34-5.22-.3-7.84,0-.26,0-.53,0-.79.02-.63-.19-1.1-.73-1.51-1.63-1.21-3.22-2.48-4.82-3.73-.67-.52-1.33-1.06-2.01-1.56-.33-.24-.66-.06-.67.35-.01,1.44,0,2.89,0,4.33ZM141.55,28.03h0c.46,0,.92.03,1.38,0,.65-.03,1.31-.06,1.96-.17.37-.07.74-.27,1.06-.48.43-.28.37-.97-.08-1.12-.62-.2-1.26-.34-1.89-.51-.31-.08-.64-.14-.93-.28-.15-.07-.33-.31-.31-.45.03-.23.16-.5.33-.65.19-.15.47-.23.73-.25.46-.05.92-.03,1.38-.04,1.34-.02,2.58-.47,3.82-.89.52-.17.91-.56,1-1.12.04-.24.01-.57-.13-.72-.12-.13-.48-.15-.69-.07-.61.23-1.17.67-1.8.79-2.06.37-4.09.96-6.21.95-5.26-.04-10.52-.02-15.79-.05-.78,0-1.56-.16-2.34-.24-1.69-.17-3.39-.35-5.09-.51-.19-.02-.39,0-.59.01-.65.04-1.06.29-1.07.66-.01.47.35.66.68.88,1.27.8,2.73.94,4.15,1.09,1.24.14,2.49.17,3.67.64.18.07.38.11.58.13,1.96.18,3.94-.11,5.89.32,2.21-.49,4.46-.15,6.68-.27.85-.04,1.69-.16,2.54-.25.13-.01.28-.07.39-.02.22.1.52.22.6.41.08.19,0,.53-.14.71-.19.25-.48.44-.77.58-.41.2-.86.32-1.28.5-.1.04-.15.19-.22.29.11.04.22.13.34.13.72.01,1.45,0,2.17,0ZM77.44,35.81h.01c0,2.1-.01,4.21,0,6.31.01,1.18.23,1.36,1.4,1.34.2,0,.4,0,.59-.04.36-.06.62-.27.65-.63.05-.59.07-1.18.07-1.77,0-2.96,0-5.92.02-8.88,0-.72.06-1.45.21-2.14.19-.86.05-1.55-.63-2.13-.35-.3-.65-.65-.99-.97-1.59-1.47-3.2-2.92-4.77-4.4-1.58-1.49-1.1-1.51-3.61-1.48-.26,0-.53-.02-.79.02-.15.02-.3.13-.45.2.08.1.15.21.24.29,2.34,2.01,4.65,4.05,7.04,5.99.7.57,1,1.13.99,1.99-.02,2.1,0,4.21,0,6.31ZM100.58,35.25s.06,0,.09,0c0-1.97-.02-3.94.01-5.9.01-.78-.23-1.41-.82-1.91-.3-.25-.59-.52-.89-.77-2.02-1.66-4.03-3.33-6.06-4.98-.56-.45-1.14-.89-1.75-1.26-.25-.15-.63-.12-.95-.14-.06,0-.2.17-.19.25,0,.11.1.24.19.32,2.42,1.99,4.84,4,7.3,5.95.57.45.91.93.87,1.64-.06,1.23.64,2.44.09,3.68-.05.11-.02.27.02.39.43,1.35.22,2.73.25,4.1.04,1.64.02,3.28.03,4.92,0,.39,0,.89.47.96.49.08,1.01-.03,1.52-.08.06,0,.15-.21.15-.32-.1-2.29-.21-4.58-.33-6.86ZM136.4,37.16c2.86.09,5.98-.28,9.06-1.03.38-.09.78-.13,1.16-.21,1.88-.39,3.68-.96,5.26-2.09.09-.07.21-.28.19-.3-.12-.12-.27-.28-.41-.28-1.09-.02-2.06.41-2.99.9-1.53.8-3.12,1.34-4.82,1.65-1.18.21-2.35.17-3.53.22-1.11.04-2.22-.03-3.33.26-.54.14-1.17.02-1.75-.05-1.62-.19-3.24-.48-4.87-.61-.92-.07-1.82-.16-2.72-.39-.7-.18-1.41-.3-2.12-.44-2.84-.55-5.64-1.27-8.32-2.37-.42-.17-.87-.27-1.32-.33-.32-.04-.68,0-.81.39-.13.42.16.6.48.72,1.29.5,2.56,1.03,3.87,1.46,1.05.35,2.13.64,3.21.86,1.15.24,2.34.34,3.49.58,3.29.68,6.6,1.09,10.26,1.05ZM141.08,31.97s.01.08.02.12c1.03-.15,2.06-.38,3.1-.42,2.18-.09,4.01-1.14,5.89-2.05.55-.27.94-.7,1.18-1.27.12-.29.03-.58-.24-.61-1.41-.14-2.72-.05-3.84,1.03-.44.43-1.11.75-1.72.87-1.28.25-2.56.56-3.9.43-.58-.05-1.18-.01-1.77.03-.81.06-.98.33-.83,1.16q.15.86.94.8c.39-.03.78-.06,1.18-.09ZM32.19,32.41c1.01.13,2.43-.09,3.82-.51.72-.22,1.59-.25,1.99-1.09-.52-.95-1.45-.64-2.24-.71-1.04-.08-2.11,0-3.14-.19-1.44-.27-2.88-.21-4.31-.21-.87,0-1.23.29-1.34.87-.13.65.19,1.03,1.08,1.39,1.2.49,2.45.4,4.14.44ZM19.03,34.49c-.51.02-.65.35-.46.59,1.18,1.46,2.37,2.91,3.57,4.37.04.05.11.06.17.09.04-.11.12-.22.11-.33-.09-.83-.21-1.67-.3-2.5-.04-.39,0-.79-.07-1.17-.05-.22-.22-.56-.4-.6-.94-.21-1.91-.34-2.62-.46ZM133.77,30.51h0c-.78,0-1.56,0-2.34.02-.11,0-.32.12-.32.14.04.18.08.39.2.5.24.21.51.44.81.53,1.25.35,2.5.7,3.82.65.13,0,.26-.04.38-.07.47-.11.69-.62.47-1.08-.18-.37-.43-.67-.87-.69-.72-.02-1.43,0-2.15,0Z"/><path class="cls-3" d="M116.3,91.08c0,1.48,0,2.97.01,4.45,0,.09.13.22.23.25.1.03.27-.02.34-.09.61-.66,1.17-1.37,1.81-2.01,1.52-1.5,2.93-3.11,4.63-4.42.19-.15.3-.41.47-.59.31-.33.58-.74.95-.96,1.19-.71,2.05-1.78,3.04-2.69.66-.61,1.22-1.35,2.08-1.72.17-.07.29-.25.43-.39,2.82-2.84,5.99-5.32,8.73-8.25,1.37-.99,2.56-2.17,3.75-3.36,2.02-2.01,4.33-3.7,6.26-5.79.79-.86,1.61-1.7,2.49-2.45,2.56-2.17,4.92-4.54,7.31-6.89,1.17-.69,1.86-1.9,2.98-2.67.72-.5,1.3-1.23,1.82-1.99.58-.84,1.41-1.51,2.13-2.26.36-.38.85-.23,1.29-.31.06-.01.11-.06.17-.1-.08-.07-.16-.14-.26-.19-.05-.03-.13-.01-.19-.03-.42-.14-.44-.19-.26-.47.56-.86,1.11-1.73,1.66-2.59.26-.41.61-.56,1.15-.4.15.05.37.23.37.36.02.57.1,1.19-.07,1.72-.16.51-.25.99-.25,1.51-.01.77-.06,1.51-.33,2.27-.23.64-.13,1.37-.31,2.07-.36,1.35-.5,2.75-.87,4.11-.4,1.47-.64,2.98-1.07,4.45-.36,1.21-.6,2.47-.87,3.71-.27,1.25-.69,2.45-1.02,3.69-.97,3.64-2.24,7.19-3.44,10.76-1.22,3.63-2.51,7.24-3.91,10.81-.58,1.49-1.09,3-1.65,4.5-.76,2.04-1.52,4.08-2.46,6.05-.44.93-.89,1.86-1.18,2.84-.39,1.3-1.11,2.44-1.56,3.72-.42,1.21-1.04,2.35-1.53,3.53-1.49,3.57-3.48,6.89-5.04,10.41-1.2,2.7-2.68,5.26-3.7,8.04-.64.68-.75,1.62-1.19,2.39-1.65,2.85-2.68,5.95-3.77,9.03-.49,1.39-1,2.77-1.65,4.09-.34.69-.75,1.33-.82,2.14-.04.48-.38.94-.62,1.4-.51.97-.89,1.99-1.26,3.01-.17.48-.37.96-.57,1.42-1.02,2.35-2.24,4.61-3.15,7.01-.05.12-.12.23-.17.35-1.65,3.41-3.18,6.88-4.94,10.25-.74,1.42-1.41,2.88-2.03,4.36-.42,1-1.15,1.83-1.48,2.9-.3.97-.8,1.88-1.22,2.82-.05.12-.09.24-.16.35-.86,1.36-1.52,2.81-2.16,4.28-.13.29-.28.58-.48.83-.19.23-.38.57-.75.48-.41-.09-.94-.87-.77-1.19.27-.49.26-.99.26-1.5,0-4.91,0-9.82.01-14.73,0-.19.01-.39-.02-.58-.01-.08-.12-.15-.19-.22-.04.05-.12.1-.12.14.01.83-.81,1.26-.93,2.08-.1.66-.6,1.27-.93,1.9-.35.68-.62,1.42-1.16,1.99-.36,1.32-1.09,2.46-1.7,3.66-.55,1.09-1.02,2.21-1.73,3.23-.4.56-.54,1.3-.86,1.92-1.42,2.74-2.84,5.48-4.32,8.19-1.07,1.95-2.08,3.94-3.13,5.9-1.04,1.93-1.94,3.92-2.96,5.86-1.75,3.35-3.57,6.67-5.29,10.04-1.4,2.74-2.9,5.42-4.29,8.16-.38.74-.9,1.41-1.23,2.17-.44,1-.98,1.93-1.49,2.89-.72,1.37-1.37,2.77-2.08,4.14-.36.68-.79,1.32-1.2,1.97-.18.28-.57.24-.82-.02-.25-.26-.31-.55-.31-.88,0-1.36,0-2.71-.01-4.07-.01-.83.08-1.65-.28-2.47-.19-.44-.07-1.02-.07-1.53-.01-2.45-.02-4.91-.03-7.36,0-.09-.11-.17-.18-.26-.05.04-.12.07-.15.12-1.45,2.5-2.83,5.04-4.38,7.48-.96,1.52-1.72,3.15-2.81,4.6-.8,1.07-1.35,2.33-2.04,3.49-.76,1.27-1.52,2.53-2.15,3.87-.13.27-.35.38-.61.38-1.5.02-2.99.02-4.49.05-.58,0-1.15-.04-1.72.23-.33.15-.76.12-1.15.12-1.11.02-2.21,0-3.32.03-.77.03-1.55-.1-2.3.29-.31.16-.77.07-1.16.07-1.04.01-2.08.01-3.12.03-.64.01-1.28-.04-1.91.26-.33.15-.76.09-1.15.1-1.37.02-2.73,0-4.1.03-.58,0-1.15-.02-1.72.24-.33.15-.76.11-1.15.12-.98.02-1.95,0-2.93.03-.77.02-1.56-.13-2.29.3-.15.09-.38.05-.58.05-1.76.01-3.52.03-5.27.02-.74,0-1.51-.91-1.21-1.58.4-.89.3-1.76.3-2.65.02-1.94,0-3.88-.01-5.81,0-.57.11-1.16-.21-1.71-.08-.14-.06-.37-.01-.54.32-1.01.38-2.01-.03-3.01-.07-.17-.14-.4-.09-.56.3-.88-.05-1.75-.02-2.63.03-.9,0-1.81,0-2.71,0-.9-.01-1.81-.01-2.71,0-7.36-.01-14.73-.03-22.09,0-.83.05-1.66-.29-2.47-.16-.39-.05-.89-.05-1.34,0-6.85,0-13.69-.03-20.54,0-1.05.33-1.87,1.06-2.58,2.69-2.61,5.12-5.45,7.71-8.15,1.88-1.96,3.83-3.86,5.58-5.92,1.43-1.68,3.02-3.19,4.51-4.8.39-.42.73-.89,1.11-1.33.43-.49.87-.95,1.31-1.43,1.4-1.52,3-2.84,4.25-4.51,1.24-1.65,2.88-2.96,4.26-4.51,1.24-1.38,2.42-2.83,3.84-4.06,1.05-1.66,2.62-2.85,3.94-4.27.17-.19.39-.34.61-.48.31-.2.9.1.87.47-.1,1.17.39,2.27.41,3.42.02,1.16.02,2.32.03,3.49,0,.32-.06.67.03.96.12.4.36.77.56,1.16.25-.21.52-.39.73-.63.86-.96,1.97-1.7,2.63-2.84,1.33-.68,1.84-2.12,2.92-3.05,1.08-.93,2.01-2.03,3.05-3,.84-.79,1.48-1.76,2.43-2.46.5-.37.77-1.02,1.2-1.49.6-.66,1.35-1.16,1.91-1.88.55-.71,1.27-1.3,1.91-1.94.64-.64,1.28-1.29,1.92-1.93.64-.64,1.3-1.27,1.93-1.92.71-.74,1.55-1.38,2.04-2.32.14-.28.44-.47.67-.7,1.84-1.83,3.68-3.66,5.51-5.5.59-.6,1.22-1.17,1.73-1.83.47-.6,1.25-.9,1.52-1.69.09-.27.41-.54.69-.65.59-.24.82-.81,1.24-1.16.4-.34.76-.64,1.03-1.1.26-.43.68-.77,1.05-1.14,1.56-1.56,3.13-3.1,4.69-4.67.55-.55,1.03-1.16,1.57-1.71.54-.54,1.03-1.11,1.54-1.67,1.48-1.63,3.09-3.14,4.66-4.69.45-.44,1-.33,1.25.23.15.35.28.72.34,1.09.06.38.03.77.03,1.16,0,1.1,0,2.2,0,3.29.02,0,.04,0,.05,0Z"/><path class="cls-3" d="M10.69,223.56c0-1.16,0-2.32,0-3.48,0-.64-.03-1.27.24-1.89.17-.39.1-.88.11-1.33.02-1.35,0-2.71.03-4.06.01-.75.13-1.47.04-2.24-.1-.8-.22-1.68.25-2.45-.02-1.48.63-2.88.46-4.38-.03-.26.06-.55-.04-.77-.51-1.11-.29-2.28-.32-3.43-.04-1.68-.03-3.36-.01-5.03,0-.95-.18-1.94.33-2.84-.03-1.73.28-3.47-.2-5.18-.1-.36-.12-.76-.13-1.14-.01-1.48-.02-2.97,0-4.45,0-.44.11-.88.21-1.31.23-.96.24-1.93.02-2.86-.36-1.53-.35-3.03-.02-4.56.12-.56.09-1.15.13-1.72.07-1.03.75-1.59,1.58-2.01.34-.17,1.05.17,1.08.58.06.9.55,1.7.48,2.63-.06.7-.02,1.42.01,2.13.03.76.04,1.51.26,2.28.24.84.1,1.79.14,2.69,0,.12.09.23.13.35.08-.09.16-.19.24-.28,1.45-1.63,2.9-3.26,4.36-4.88.13-.14.27-.31.44-.36.15-.05.44,0,.49.09.23.45.7.9.44,1.41-.4.81-.3,1.63-.31,2.46-.01,1.74,0,3.48-.02,5.23,0,.57-.01,1.13-.22,1.71-.17.46-.12,1.01-.12,1.52-.02,4.71-.03,9.42-.05,14.13,0,.76.09,1.53-.26,2.28-.17.38-.08.89-.08,1.34-.01,2.77-.02,5.55-.03,8.32,0,.64.05,1.27-.25,1.89-.15.33-.1.76-.11,1.14-.02,1.16,0,2.32-.04,3.48-.02.83.11,1.66-.29,2.47-.16.32-.06.76-.07,1.15-.01.97,0,1.94-.03,2.9-.02.7.06,1.4-.25,2.09-.17.38-.09.89-.09,1.33.02,1.22-.3,1.28-1.44,1.12-.85-.12-1.6-.6-2-1.37-.31-.6-.76-1.03-1.23-1.47-.04-.04-.15-.08-.17-.06-.08.07-.19.17-.19.26-.02.58.05,1.12.22,1.7.42,1.41,1.07,2.73,1.52,4.13.15.47-.05.9-.51,1.06-.18.06-.42,0-.57.1-.87.56-1.59.17-2.3-.32-.97-.68-1.47-1.69-1.48-2.79-.01-1.23-.48-2.38-.43-3.61.06-1.22.01-2.45.01-3.68Z"/><path class="cls-4" d="M63.28,202.27c.11,2.99-.94,5.37-2.77,7.51-1.97,2.3-3.83,4.69-5.75,7.04-1.19,1.46-2.39,2.92-3.6,4.36-.26.31-.56.59-.87.84-.65.51-1.23.45-1.73-.24-.39-.54-.71-1.14-1-1.75-2.77-5.84-5.52-11.69-8.27-17.54-1.81-3.84-3.6-7.69-5.4-11.53-.2-.42-.42-.86-.49-1.32-.16-1.03-.08-2.02.72-2.83.42-.43.77-.93,1.2-1.36,1.23-1.25,2.49-2.47,3.72-3.73,2.12-2.17,4.23-4.35,6.35-6.53.67-.69,1.44-1.15,2.38-1.45,1.32-.41,2.37-.02,3.34.79.84.7,1.47,1.57,1.91,2.58.95,2.15,1.92,4.3,2.9,6.45,1.42,3.13,2.87,6.24,4.29,9.37.7,1.53,1.33,3.09,2.07,4.61.75,1.55,1.19,3.15,1.01,4.73ZM45.48,180.68c-.38.23-.76.38-1.04.64-1.21,1.17-2.39,2.38-3.59,3.56-.4.39-.41.74-.17,1.25,1.58,3.35,3.12,6.71,4.68,10.07,1.62,3.48,3.23,6.96,4.85,10.43.86,1.83,1.72,3.66,2.6,5.48.43.89.65.95,1.26.27.95-1.05,1.93-2.08,2.75-3.22.8-1.11,1.3-2.36.71-3.78-.2-.49-.3-1.03-.52-1.51-1.92-4.16-3.86-8.3-5.78-12.45-1.36-2.93-2.68-5.88-4.04-8.81-.22-.48-.51-.95-.84-1.37-.19-.24-.54-.36-.87-.56Z"/><path class="cls-4" d="M58.63,179.01c-.28-2.12.74-3.92,2.18-5.51,1.99-2.2,4.06-4.32,6.1-6.48.23-.24.47-.49.74-.69,1.31-.94,2.54-1.03,3.9.5.4.45.71.99.96,1.54.48,1.03.9,2.1,1.35,3.15,1.32,3.08.86,5.91-1.26,8.48-1.2,1.45-2.4,2.91-3.67,4.3-.64.71-.74,1.35-.32,2.19.45.9.79,1.85,1.2,2.78.22.49.44.98.71,1.45.29.51.97.6,1.4.23.1-.09.21-.17.29-.28,1.42-1.71,2.83-3.43,4.25-5.13.43-.51.91-.99,1.39-1.45.22-.21.73-.1.9.16.35.58.63,1.18.59,1.89-.03.49-.15.91-.47,1.3-1.86,2.22-3.71,4.44-5.56,6.67-.64.78-1.25,1.59-1.89,2.37-.38.47-.77.94-1.22,1.34-.69.61-1.54.85-2.45.68-.38-.07-.78-.23-1.08-.46-.7-.54-1.21-1.25-1.57-2.07-.67-1.54-1.36-3.08-2.06-4.61-1.22-2.7-2.43-5.4-3.67-8.09-.61-1.31-.92-2.67-.76-4.26ZM69.21,177.84s-.06-.48-.23-.91c-.48-1.18-.98-2.35-1.52-3.5-.13-.29-.4-.53-.66-.73-.13-.1-.43-.13-.55-.05-.83.59-1.54,1.28-2,2.21-.25.51-.31,1.05-.09,1.56.74,1.72,1.52,3.43,2.29,5.13.11.24.47.26.67.03.53-.6,1.02-1.24,1.57-1.83.39-.43.56-.9.51-1.92Z"/><path class="cls-4" d="M112.17,156.85c0,.41,0,.88-.02,1.35-.02.85-.41,1.56-.91,2.21-2.02,2.61-4.04,5.22-6.07,7.82-.82,1.05-1.24.96-1.82-.26-.4-.83-.34-1.5.26-2.22,1.33-1.61,2.6-3.27,3.89-4.91.21-.26.39-.55.57-.83.4-.62.42-1.26.14-1.93-.39-.93-.76-1.87-1.14-2.8-.54-1.33-.62-1.33-1.56-.19-.9,1.09-1.81,2.18-2.76,3.23-1.31,1.45-2.33.99-3.56-.31-.31-.33-.48-.81-.67-1.24-.76-1.73-1.51-3.46-2.24-5.2-1.01-2.42-2-4.85-2.99-7.28-.75-1.85-.56-3.7.08-5.52.17-.49.49-.97.85-1.36,1.59-1.75,3.22-3.46,4.84-5.18.23-.25.48-.48.75-.68.64-.49,1.6-.48,2.26.02.76.59,1.33,1.33,1.69,2.23,1.14,2.88,2.28,5.75,3.44,8.62.91,2.25,1.85,4.48,2.78,6.72.54,1.3,1.11,2.6,1.65,3.91.5,1.2.74,2.45.55,3.82ZM97.35,139.49c.02.1.08.56.21,1.01.16.51.38,1,.58,1.5.87,2.11,1.74,4.22,2.63,6.32.54,1.3,1.1,2.6,1.66,3.89.11.24.25.47.39.69.12.19.57.25.73.09.43-.43.86-.85,1.24-1.32.3-.37.45-.75.2-1.28-.47-.96-.82-1.98-1.23-2.98-1.29-3.17-2.58-6.34-3.89-9.5-.13-.3-.29-.63-.52-.84-.16-.14-.59-.22-.72-.11-.65.57-1.32,1.16-1.29,2.53Z"/><path class="cls-4" d="M91.75,169.07c-.23,1.9-.55,3.49-1.72,4.86-2.41,2.81-4.71,5.72-7.05,8.58-.12.15-.29.27-.45.4-.36.28-.83.19-1-.21-.13-.31-.2-.64-.35-.94-.41-.85-.2-1.52.41-2.2,1.29-1.46,2.52-2.98,3.78-4.48.09-.1.19-.19.27-.3,1.62-2.31,1.82-1.89.65-4.7-.41-.99-.85-1.98-1.31-2.95-.18-.39-.74-.42-1.02-.08-.87,1.03-1.72,2.07-2.59,3.1-.39.46-.79.93-1.26,1.31-.41.33-.89.63-1.4.78-.66.18-1.37.14-1.9-.39-.47-.47-1.01-.94-1.31-1.53-.82-1.62-1.58-3.26-2.11-5.02-.56-1.86-.2-3.59.44-5.31.14-.37.37-.72.63-1.02.93-1.07,1.88-2.12,2.84-3.16,1.56-1.68,3.12-3.36,4.7-5.02.27-.29.59-.57.94-.74.17-.08.61.05.69.21.27.53.49,1.11.6,1.69.06.29-.06.69-.23.94-.42.61-.91,1.17-1.4,1.72-1.17,1.3-2.35,2.6-3.55,3.87-.77.82-.99,1.74-.59,2.77.51,1.32,1.07,2.61,1.65,3.9.29.64.81.73,1.28.25.51-.53.98-1.11,1.48-1.66.82-.89,1.63-1.8,2.51-2.64.85-.81,2.28-.77,3.11.06.37.38.73.81.95,1.29.67,1.47,1.32,2.95,1.88,4.46.27.74.33,1.56.45,2.16Z"/><path class="cls-4" d="M104.79,128.18c-.11-1.43.28-2.66,1.31-3.7.71-.72,1.34-1.51,2.02-2.26.72-.8,1.46-1.58,2.17-2.39.32-.37.7-.58,1.17-.74.5-.17.94-.1,1.35.15.7.43,1.23,1.04,1.55,1.81.43,1.06.89,2.11,1.31,3.17,1.27,3.18,2.54,6.37,3.81,9.56.3.75.59,1.5.87,2.26.06.17.09.42.01.57-.67,1.26-1.72,2.24-2.63,3.31-.12.14-.63.04-.73-.15-.19-.35-.38-.71-.53-1.08-1.58-3.93-3.16-7.86-4.74-11.79-.33-.81-.67-1.61-1.02-2.41-.12-.28-.47-.35-.67-.14-.37.39-.77.76-1.07,1.2-.21.32-.36.69-.18,1.14.35.87.59,1.79.93,2.66,1.7,4.25,3.39,8.49,5.15,12.71.29.69.14,1.19-.21,1.68-.38.55-.93.99-1.31,1.54-1.64,2.35-1.76,1.56-2.54-.31-1.81-4.35-3.54-8.72-5.33-13.08-.49-1.2-.86-2.41-.7-3.71Z"/><path class="cls-4" d="M116.11,104.39c.07-1.06.24-2.12,1.03-2.95,1.86-1.96,3.74-3.89,5.62-5.83.14-.14.3-.27.46-.4.27-.22.69-.13.84.23.22.49.41.99.56,1.51.05.16-.05.41-.16.55-.24.32-.53.61-.81.9-1.1,1.18-2.19,2.38-3.32,3.55-.54.56-.64,1.18-.38,1.86.45,1.2.95,2.37,1.41,3.57.56,1.44,1.09,2.89,1.65,4.33.13.34.35.12.46,0,.79-.83,1.56-1.68,2.34-2.51.64-.69,1.28-1.39,1.94-2.06.35-.36.71-.25.94.23.11.24.26.48.32.74.17.69.06,1.31-.46,1.87-1.34,1.42-2.64,2.89-3.96,4.33-.25.28-.32.53-.17.89.47,1.19.89,2.4,1.35,3.59.93,2.38,1.86,4.76,2.81,7.13.14.35.17.66-.05.95-.73.96-1.47,1.92-2.23,2.86-.22.27-.65.16-.81-.21-.51-1.17-1.02-2.35-1.49-3.54-1.35-3.44-2.68-6.9-4.03-10.34-.98-2.5-2.01-4.99-2.98-7.5-.34-.88-.58-1.79-.83-2.7-.09-.32-.04-.67-.06-1.04Z"/><path class="cls-4" d="M137.88,111.2c-.03-.13-.06-.54-.2-.91-1.1-2.89-2.21-5.77-3.32-8.65-.58-1.5-1.14-3.02-1.75-4.51-.2-.5-.16-.93.19-1.3.6-.64,1.21-1.27,1.84-1.88.34-.34.75-.22.93.27.97,2.58,1.93,5.16,2.9,7.74.61,1.63,1.23,3.27,1.86,4.89.27.69.41,1.4.55,2.13.34,1.78-.05,3.29-1.23,4.65-.88,1.01-1.68,2.1-2.53,3.15-1.08,1.33-2.06,1.78-3.28-.18-.67-1.07-1.11-2.29-1.57-3.48-1.24-3.19-2.44-6.4-3.65-9.61-.05-.13-.12-.24-.16-.37-.62-2.09-1.02-1.62.64-3.33.38-.39.77-.75,1.16-1.12.22-.21.53-.15.67.11.09.18.2.35.27.54,1.6,4.21,3.19,8.42,4.79,12.62.12.31.27.62.47.88.08.11.39.16.51.09.54-.32.94-.77.92-1.72Z"/><path class="cls-4" d="M94.47,167.67c-.13-.09-.37-.16-.44-.31-.43-.84-.85-1.68-1.22-2.54-.72-1.67-1.39-3.35-2.09-5.02-1.6-3.77-3.22-7.54-4.83-11.31-.11-.25-.24-.49-.32-.74-.16-.55-.1-1.07.32-1.5.47-.49.95-.96,1.4-1.46.41-.45.76-.94,1.17-1.39.64-.72,1.12-.68,1.54.14.15.3.29.61.42.92,1.49,3.6,2.97,7.2,4.47,10.8,1.01,2.42,2.02,4.84,3.07,7.24.24.56.29,1.03-.06,1.51-.92,1.24-1.82,2.5-2.99,3.53-.09.08-.25.08-.42.14Z"/><path class="cls-4" d="M145.89,93.22c.2,1.57-.34,2.68-1.33,3.62-.24.23-.47.49-.7.73-.75.79-1.1,1.61-.49,2.71.49.88.78,1.85,1.18,2.78.13.29.46.34.65.11.64-.78,1.27-1.57,1.93-2.34.26-.31.54-.6.86-.84.1-.08.44-.04.51.06.75,1.09.76,1.64-.08,2.7-1.16,1.49-2.37,2.93-3.57,4.4-.08.1-.18.2-.28.29-.52.46-1.35.5-1.82-.03-.44-.5-.86-1.06-1.1-1.67-1.09-2.75-2.12-5.53-3.16-8.3-.17-.44-.32-.89-.51-1.32-.6-1.32-.74-2.71-.65-4.15.05-.85.33-1.58.89-2.2,1-1.1,1.99-2.2,3-3.28.73-.78,1.57-.79,2.27,0,.4.44.74.96.99,1.5.39.85.7,1.75,1.02,2.63.16.44.32.89.39,1.35.06.46,0,.94,0,1.23ZM143.04,94.52c-.02-.27.01-.55-.08-.79-.43-1.12-.88-2.22-1.34-3.33-.02-.06-.09-.12-.14-.14-.12-.03-.27-.08-.35-.03-.8.54-1.04,1.19-.74,2.06.33.94.69,1.87,1.04,2.81.07.19.14.37.21.56.17.38.44.4.76.07.32-.34.65-.68.64-1.21Z"/><path class="cls-4" d="M143.76,74.29c.12.04.3.05.36.14.24.4.5.8.66,1.23.71,1.88,1.38,3.78,2.08,5.67,1.48,4.03,2.97,8.05,4.46,12.08.42,1.13.82,2.27,1.25,3.4.16.41.15.79-.13,1.13-.51.62-1.02,1.24-1.55,1.85-.17.19-.59.11-.7-.13-.38-.86-.76-1.71-1.09-2.59-1.81-4.84-3.6-9.68-5.4-14.52-.63-1.7-1.21-3.42-1.87-5.1-.23-.58-.2-1.03.21-1.48.46-.49.9-1,1.37-1.48.09-.09.23-.12.35-.18Z"/><path class="cls-4" d="M87.31,137.8c-.12.25-.23.67-.48.95-.95,1.03-1.95,2.03-2.95,3.02-.23.23-.7.12-.85-.21-.47-1.03-.91-2.08-1.34-3.13-.06-.16,0-.4.09-.57.19-.35.39-.72.66-1,.84-.87,1.7-1.72,2.57-2.56.4-.39.9-.33,1.14.19.42.91.77,1.85,1.14,2.78.05.12.02.27.03.53Z"/><path class="cls-3" d="M32.73,91.66c-.02-.84-.05-1.68-.06-2.52,0-.46.23-.8.6-1.05.68-.46,1.4-.68,2.22-.43.52.16,1.05.28,1.56.45,1.47.51,2.28,1.9,1.94,3.42-.16.7-.35,1.44-.74,2.02-.8,1.17-1.85,2.03-3.42,1.93-.36-.02-.72,0-1.08-.03-.53-.05-.9-.38-.97-.9-.06-.47-.06-.96-.08-1.44-.02-.48-.03-.96-.04-1.44.03,0,.06,0,.08,0ZM34.36,92.18c-.04.25-.07.37-.07.49-.01.7.37,1.01,1,.83,1.08-.31,1.69-1.08,2.03-2.09.2-.6-.12-1.21-.7-1.48-.5-.23-1.02-.32-1.57-.28-.61.04-.97.43-.91,1.08.05.53.15,1.06.21,1.46Z"/><path class="cls-3" d="M61.98,91.98c0,.3.02.61-.04.9-.04.22-.15.48-.31.6-.29.2-.57.01-.79-.21-.08-.09-.16-.18-.23-.27-.17-.23-.38-.27-.63-.15-.38.18-.76.36-1.13.56-1.61.87-3.96-.71-3.81-2.3.04-.42-.04-.84-.02-1.26.04-1.59.96-2.92,2.44-3.43.56-.19,1.17-.29,1.76-.33.66-.04,1.14.31,1.41.93.11.26-.16.69-.42.66-.24-.03-.47-.09-.71-.13-1.33-.23-2.17.44-2.81,1.5-.39.65-.16,1.28.1,1.9.37.9,1.23,1.15,2.06.62.41-.26.4-.53-.02-.9-.13-.12-.27-.24-.37-.38-.18-.24-.09-.69.15-.8,1.84-.79,3.13-.76,3.32,1.78.02.24.01.48.02.72,0,0,.02,0,.03,0Z"/><path class="cls-3" d="M68.38,89.57c.02.65.06,1.37.05,2.09-.01.49-.59.85-1.06.66-.32-.13-.65-.33-.87-.59-.34-.41-.59-.9-.89-1.35-.2-.3-.42-.58-.65-.85-.06-.07-.24-.11-.33-.08-.08.03-.16.18-.17.29-.04.6-.06,1.2-.1,1.8-.03.37-.17.69-.45.95-.16.15-.53.16-.63-.03-.19-.37-.43-.74-.49-1.13-.09-.59-.06-1.2-.06-1.79,0-.65.19-1.29.01-1.96-.08-.32.05-.71.15-1.05.22-.8.89-.95,1.48-.31.36.39.67.85.99,1.28.32.43.63.88.96,1.31.06.08.25.17.31.13.13-.08.29-.22.3-.35.03-.6.01-1.2.03-1.8,0-.24.05-.48.11-.71.06-.25.24-.46.5-.42.21.03.49.17.57.34.29.6.39,1.25.33,1.92-.05.54-.05,1.08-.08,1.68Z"/><path class="cls-3" d="M49.5,88.38c-.48-.12-.95-.03-1.38.21-.09.05-.18.18-.19.27,0,.09.06.27.14.29.51.16,1.02.34,1.55.43.88.16,1.33.76,1.66,1.49.09.21.11.49.06.7-.27,1.08-.97,1.8-2.04,2.07-1.2.3-2.26-.08-3.14-.92-.26-.25-.41-.58-.38-.98.02-.21.33-.49.5-.4.37.19.72.41,1.08.61.74.42,1.49.44,2.22-.01.14-.09.27-.25.31-.41.07-.28-.16-.44-.38-.53-.27-.11-.57-.19-.85-.26-.46-.12-.95-.19-1.4-.35-1.28-.45-1.65-1.91-.73-2.92.81-.88,1.85-1.19,3.12-.84.27.07.5.32.72.51.21.19.3.7.13.82-.18.13-.42.18-.64.23-.11.03-.24-.02-.37-.04Z"/><path class="cls-3" d="M42.64,94.39c-.36,0-.72.03-1.08.03-.88-.02-1.37-.39-1.48-1.25-.11-.89-.12-1.8-.15-2.7-.02-.72-.05-1.44,0-2.16.03-.44.26-.85.73-.92,1.07-.17,2.14-.28,3.21-.41.11-.01.26,0,.35.06.18.14.37.29.46.49.05.12-.05.39-.17.47-.35.22-.72.44-1.11.54-.52.13-1.07.12-1.61.19-.37.05-.57.38-.54.81.02.34.24.61.53.62.48.02.96-.02,1.44.02.22.02.44.16.64.28.24.15.24.66,0,.77-.32.14-.66.25-1,.34-.34.09-.72.09-1.04.24-.16.08-.31.39-.3.58.01.2.21.51.37.54.46.09.95.04,1.42.08.41.03.83.08,1.23.19.13.03.27.27.28.42,0,.14-.11.35-.24.43-.19.13-.43.22-.66.25-.42.05-.84.03-1.26.04v.06Z"/><path class="cls-3" d="M71.76,92.21c-.76.01-1.55-.36-2.09-1.17-.15-.22-.14-.57-.13-.85,0-.1.28-.28.38-.25.28.08.54.25.8.39.51.26,1.05.27,1.57.1.22-.07.45-.21.58-.39.12-.17.16-.44.13-.65-.02-.13-.22-.31-.37-.34-.41-.08-.83-.08-1.25-.12-.7-.07-1.31-.31-1.54-1.03-.25-.79-.21-1.57.45-2.16.35-.32.76-.59,1.19-.79.75-.36,1.41-.06,1.97.45.14.13.2.46.14.65-.06.18-.3.36-.5.42-.39.12-.85-.05-1.19.28-.04.04-.07.1-.08.15-.01.05,0,.13.02.15.1.06.21.11.32.15.4.13.82.21,1.19.39.88.45,1.27,1.27,1.14,2.25-.18,1.38-1.18,2.32-2.73,2.39Z"/><path class="cls-3" d="M53.87,90.38c.02.78.06,1.56.05,2.34,0,.39-.33.67-.7.68-.38,0-.76-.22-.86-.53-.04-.11-.09-.23-.1-.34-.04-1.74-.19-3.49.13-5.22.02-.12.03-.26.1-.34.11-.13.26-.28.41-.3.15-.02.4.08.46.2.18.37.37.76.42,1.16.08.78.06,1.56.08,2.34h.02Z"/><path class="cls-3" d="M40.13,82.83c.06.86-.07,1.68-.4,2.47-.11.26-.56.39-.75.16-.48-.57-1-.56-1.6-.24-.21.11-.43.21-.66.29-1.72.63-3.43-.24-4.04-1.95-.7-1.96-.06-3.59,1.28-4.93.7-.7,1.75-1.1,2.78-1.13,1.1-.03,1.95.55,2.46,1.54.1.19.06.47.04.7-.03.28-.44.53-.68.42-.27-.12-.52-.32-.8-.42-1.83-.64-2.99.07-3.69,1.82-.4,1.01.3,1.98,1.38,2.04.4.02.83-.1,1.22-.22.39-.12.49-.38.4-.85-.02-.12-.09-.22-.11-.34-.08-.33.02-.62.35-.73.51-.17,1.03-.33,1.56-.41.59-.09,1.06.28,1.17.88.05.29.06.6.09.9Z"/><path class="cls-3" d="M43.95,78.03c2.67-.26,4.33,2.29,3.67,4.76-.1.39-.36.77-.63,1.08-.9,1.05-2.88,1.45-4.13.89-1.17-.53-1.95-1.74-1.89-3.02.04-.85.27-1.66.71-2.39.53-.88,1.24-1.48,2.26-1.31ZM45.99,81.26c-.06-1.05-.9-1.6-1.88-1.29-.91.29-1.45,1.12-1.42,2.26.01.32.2.56.49.7.58.28,1.17.26,1.75.03.75-.3,1.1-.88,1.06-1.7Z"/><path class="cls-3" d="M58.2,77.25c1.05-.22,1.93.35,2.72,1.17.35.37.51.8.53,1.3.06,1.53-.63,2.67-1.84,3.51-.7.48-1.51.73-2.36.84-.52.06-.98-.17-1.17-.66-.17-.44-.28-.91-.35-1.38-.12-.89-.19-1.79-.29-2.69-.04-.38.07-.72.28-1.02.66-.89.98-1.04,2.47-1.07ZM58,79c-.67,0-.94.28-.94.99,0,.24.01.48.03.71.03.41-.02.89.36,1.14.49.32.91-.05,1.29-.31.59-.4,1.23-.8,1.22-1.63,0-.51-.92-.9-1.97-.91Z"/><path class="cls-3" d="M51.42,77.78c1.52-.08,2.68.78,3.17,2.27.41,1.27-.01,2.55-1.13,3.32-.25.17-.54.28-.77.46-1.3,1-3.7-.08-4.22-1.48-.6-1.63-.26-2.91,1.23-3.86.56-.36,1.12-.71,1.72-.72ZM51.43,82.22c.84-.03,1.41-.5,1.65-1.55.07-.32-.05-.6-.3-.79-.86-.64-2.28-.29-2.76.68-.48.96-.04,1.67,1.02,1.67.06,0,.12,0,.4-.01Z"/><path class="cls-3" d="M31.85,61.26c.07-1.71.11-3.08.18-4.46.03-.49.26-.72.78-.84.58-.14,1.16-.29,1.75-.39,1.32-.24,3.4.44,4.02,2.07.19.49.3,1.04.31,1.57.07,2.02-1.29,3.75-3.25,4.17-.58.13-1.18.25-1.77.31-.92.09-1.5-.28-1.79-1.17-.16-.5-.2-1.05-.24-1.25ZM33.9,60.6c.03.35.03.53.05.71.05.39.39.62.78.53.73-.17,1.31-.54,1.74-1.17.73-1.08.39-2.15-.84-2.55-.46-.15-.95-.28-1.37.04-.34.26-.14.67-.18,1.01-.06.53-.13,1.07-.18,1.43Z"/><path class="cls-3" d="M46.13,58.96c.01-.47.02-1.19.06-1.91.02-.29.1-.59.2-.87.23-.59.81-.75,1.31-.38.59.44,1.01,1.01,1.4,1.62.29.45.61.88.93,1.31.06.08.25.18.3.14.14-.09.32-.24.33-.38.07-.65.1-1.31.14-1.97.05-.77.49-1.46.9-1.35.61.17.78.7.84,1.26.2,1.85.27,3.71-.19,5.54-.03.12-.06.23-.1.34-.19.55-.9.76-1.31.32-.53-.57-.98-1.21-1.47-1.81-.15-.18-.31-.36-.49-.5-.05-.04-.25.02-.3.09-.1.14-.18.32-.2.49-.06.41-.07.84-.13,1.25-.1.71-.71.96-1.33.56-.44-.28-.67-.69-.72-1.19-.08-.78-.11-1.55-.19-2.58Z"/><path class="cls-3" d="M59.95,60.97c0,.24.03.48.02.72-.04.96-.23,1.06-1.2.69-.21-.08-.46-.13-.68-.09-.29.05-.56.2-.85.29-1.17.36-2.28.02-3.04-.96-.56-.72-.87-1.58-1.09-2.46-.17-.68.1-1.34.45-1.89.81-1.28,1.89-2.14,3.53-2.11.88.02,1.51.33,1.94,1.07.15.25.24.54.33.82.06.18-.29.52-.45.46-.28-.1-.55-.23-.83-.34-.99-.38-1.77.04-2.43.71-.62.64-.54,1.43-.29,2.2.19.59.74.96,1.4.92.27-.02.61-.16.78-.36.29-.33-.1-.49-.29-.7-.12-.13-.28-.26-.33-.42-.04-.15-.01-.38.09-.49.6-.65,1.39-.67,2.17-.5.23.05.51.38.57.63.16.57.2,1.18.29,1.77-.03,0-.05,0-.08,0Z"/><path class="cls-3" d="M45.63,62.41c-.15.19-.29.52-.51.59-.24.08-.57-.02-.84-.12-.15-.05-.28-.23-.36-.38-.56-1-1.48-.87-2.38-.74-.2.03-.42.23-.56.4-.18.23-.29.52-.45.77-.17.26-.56.39-.79.23-.23-.16-.45-.39-.56-.64-.09-.19-.04-.48.02-.7.22-.87.45-1.74.72-2.59.23-.74.58-1.45.77-2.2.23-.95.83-1.4,1.73-1.59.52-.11.83-.03,1.04.43.3.65.58,1.31.82,1.99.38,1.07.72,2.16,1.05,3.24.12.4.18.81.28,1.32ZM42.27,58.39c-.06.02-.12.02-.16.05-.29.26-.34.6-.15.94.07.13.36.16.46.05.22-.28.22-.66,0-.97-.03-.04-.09-.05-.14-.07Z"/><path class="cls-3" d="M66.86,59.11c-.03-1.08-.06-2.16.22-3.22.18-.67.39-.91,1.11-.95.78-.05,1.56-.03,2.34-.03,1.03,0,2.29,1.72,1.8,2.83-.07.16-.14.33-.22.49-.22.41-.17.81.05,1.2.3.54.43,1.11.38,1.73-.03.41-.29.76-.61.78-.4.03-.91-.28-.98-.64-.07-.35-.07-.71-.12-1.07-.09-.7-.34-.92-1.06-.96-.18-.01-.36,0-.54,0-.39.03-.63.29-.66.71-.04.53-.04,1.07-.12,1.6-.05.37-.55.54-.86.34-.38-.24-.64-.56-.67-1.01-.04-.6-.04-1.2-.05-1.8ZM69.34,57.84c.46-.04.99,0,1.43-.39.2-.18.23-.63.02-.78-.56-.42-1.64-.37-2.12.11-.07.07-.1.21-.13.32-.09.43.22.75.79.75Z"/><path class="cls-3" d="M63.98,55.05c.2,0,.69-.02,1.17-.03.44,0,.74.21.81.56.1.52-.19,1.01-.67,1.11-.24.05-.48.06-.72.08-.48.03-.96.05-1.44.09-.36.03-.61.25-.61.53,0,.35.3.62.74.61.42-.01.84-.08,1.26-.08.23,0,.51.03.68.16.17.12.33.39.32.58,0,.2-.18.47-.35.56-.25.13-.57.13-.86.2-.47.1-.94.19-1.39.34-.12.04-.28.29-.25.41.04.21.18.51.34.55.33.09.71.04,1.06.06.48.03.95.05,1.42.12.27.04.56.44.48.68-.07.21-.23.48-.4.53-.57.16-1.18.35-1.75.31-.55-.04-1.06-.04-1.59.13-.38.12-.72-.09-.87-.46-.11-.28-.23-.57-.24-.86-.06-1.68-.1-3.36-.12-5.05,0-.45.3-.82.75-.89.65-.11,1.31-.15,2.24-.24Z"/><path class="cls-3" d="M64.29,69.34c.1-.77.19-1.72.35-2.66.12-.66.9-.9,1.4-.45.22.19.42.43.58.67.26.4.47.83.71,1.25.15.25.27.61.62.54.17-.03.31-.33.4-.53.2-.43.36-.89.55-1.33.09-.22.17-.45.29-.65.37-.63,1.08-.66,1.42-.03.19.36.36.77.41,1.17.15,1.25.27,2.5.33,3.75.02.4-.13.82-.3,1.19-.07.16-.39.31-.58.29-.2-.02-.41-.22-.55-.39-.1-.13-.13-.33-.15-.51-.05-.42-.07-.84-.12-1.25-.01-.09-.1-.16-.16-.24-.04.04-.09.08-.11.13-.16.39-.29.79-.47,1.16-.28.59-.87.67-1.3.16-.3-.36-.54-.78-.77-1.19-.3-.52-.56-1.06-.84-1.58-.02-.04-.11-.08-.15-.06-.04.02-.09.09-.1.14-.03.78-.04,1.55-.07,2.33-.02.62-.25,1.08-.5,1.02-.5-.13-.61-.58-.69-.97-.12-.58-.14-1.19-.22-1.98Z"/><path class="cls-3" d="M51.69,71.42c-.08-.65-.18-1.3-.24-1.96-.06-.66-.12-1.32-.1-1.97,0-.44.26-.82.72-.94,1.05-.28,2.13-.39,3.21-.25.4.05.82.22,1.17.42.56.33.81.88.74,1.52-.04.35-.16.7-.29,1.04-.14.36-.13.68.1,1.01.71,1.03.53,2.17.34,3.29-.02.14-.23.32-.37.33-.14.02-.36-.1-.46-.22-.15-.17-.28-.4-.33-.62-.09-.41-.09-.83-.17-1.24-.03-.16-.15-.37-.29-.43-.55-.24-1.12-.44-1.73-.36-.5.06-.86.42-.91.95-.04.42-.03.84-.08,1.25-.03.3-.39.62-.61.53-.2-.08-.42-.23-.53-.41-.12-.19-.16-.45-.18-.68-.04-.42-.03-.84-.04-1.26.02,0,.03,0,.05,0ZM54.09,69.28c.15-.04.52-.08.84-.21.33-.13.65-.31.75-.71.06-.22-.29-.46-.82-.53-.41-.05-.84-.08-1.25-.08-.45,0-.71.38-.63.88.07.45.41.7,1.1.66Z"/><path class="cls-3" d="M32.12,71.57c.04-.96.04-1.92.12-2.88.06-.76.49-1.25,1.24-1.34,1.13-.13,2.27-.17,3.41-.2.18,0,.43.21.52.38.16.32-.07.8-.41.87-.7.15-1.41.25-2.11.38-.35.06-.71.12-1.04.24-.24.09-.37.36-.26.59.08.18.32.44.48.43.84-.04,1.67-.14,2.5-.24.33-.04.6.03.79.29.24.33.17.85-.11,1.16-.26.28-.57.43-.95.46-.72.06-1.44.11-2.15.22-.19.03-.41.25-.5.44-.2.43.11.93.54.9.9-.05,1.79-.16,2.68-.22.33-.02.57.17.7.47.14.3-.02.82-.27.97-.1.06-.21.14-.32.15-1.01.14-2.01.29-3.02.4-.29.03-.6-.02-.89-.08-.43-.08-.72-.43-.79-.88-.02-.12-.03-.24-.03-.36-.02-.72-.04-1.44-.06-2.16-.02,0-.04,0-.06,0Z"/><path class="cls-3" d="M58.49,70.06c.03-.97.03-1.7.09-2.42.05-.7.31-.97.98-1.09.77-.14,1.54-.27,2.31-.37.23-.03.5-.03.7.06.19.09.39.31.44.5.04.2-.04.51-.18.64-.21.19-.51.33-.79.39-.41.09-.83.08-1.25.13-.6.06-1.11.38-.97.58.26.36.64.22.99.2.42-.02.84-.07,1.25-.05.32.02.56.24.64.55.08.31-.06.58-.28.81-.27.28-.62.33-.98.37-.41.05-.81.14-1.21.24-.07.02-.15.19-.15.29,0,.1.07.25.15.3.15.08.33.12.5.14.53.06,1.07.09,1.61.17.37.06.6.39.61.78,0,.48-.25.87-.69.91-.83.09-1.67.14-2.51.16-.53.01-.85-.31-.99-.88-.05-.23-.09-.47-.11-.71-.06-.66-.1-1.32-.13-1.72Z"/><path class="cls-3" d="M39.74,67.42c.21.07.4.09.54.19.29.21.54.48.83.69.21.15.46.12.65-.07.25-.25.46-.57.74-.78.16-.12.45-.14.66-.1.27.05.48.42.41.71-.08.35-.15.71-.33,1.01-.94,1.61-.77,1.6.19,3.06.33.5.72.99.61,1.65-.03.16-.14.35-.28.43-.13.07-.34.05-.5,0-.16-.06-.32-.18-.43-.31-.2-.22-.39-.46-.54-.72-.53-.88-.98-1.03-1.45.02-.12.27-.28.53-.44.78-.1.15-.24.27-.37.39-.36.32-1.07.12-1.16-.36-.06-.34-.09-.74.03-1.04.2-.49.52-.94.84-1.37.56-.74.79-1.44.2-2.3-.3-.43-.59-.93-.51-1.5.02-.14.19-.26.3-.4Z"/><path class="cls-3" d="M74.47,72.19c-1.38.1-1.95.26-2.09-1.86-.06-.84-.07-1.68-.05-2.52.01-.47.12-.95.22-1.42.04-.16.16-.36.3-.42,1.12-.51,2.29-.7,3.51-.43.12.03.23.25.28.4.02.07-.08.25-.17.29-.37.19-.74.39-1.14.5-.34.09-.72.06-1.07.1-.44.05-.7.33-.64.69.04.28.31.49.65.48.42-.02.84-.07,1.26-.07.17,0,.37.05.51.14.14.09.32.26.32.4,0,.21-.08.48-.23.63-.15.16-.41.23-.64.29-.35.1-.7.16-1.05.24-.43.11-.65.35-.54.57.16.32.45.37.75.36.54-.02,1.08-.08,1.62-.09.32,0,.58.16.69.48.11.35-.05.78-.37.92-.27.12-.55.24-.84.28-.42.05-.84.03-1.26.04Z"/><path class="cls-3" d="M47.06,71.07c0-.24,0-.48-.02-.72-.04-.47.02-1-.17-1.4-.24-.49-.86-.28-1.31-.36-.5-.09-.78-.38-.78-.83,0-.32.09-.64.4-.73.63-.18,1.27-.38,1.91-.4.89-.03,1.79.09,2.68.17.17.01.33.11.49.2.29.16.32.76.07.95-.09.07-.19.18-.29.2-1.13.13-1.44.81-1.41,1.87.02,1.01-.13,2.02-.21,3.04-.01.18-.04.37-.12.52-.08.14-.24.34-.37.34-.21,0-.5-.07-.61-.22-.17-.22-.27-.54-.3-.82-.06-.59-.04-1.19-.06-1.79h.1Z"/><path class="cls-3" d="M83.71,65.3c.1.04.31.05.42.16.33.34.61.73.92,1.09.16.19.48.21.63.02.26-.33.5-.67.76-1,.15-.19.29-.38.46-.55.18-.17.4-.3.65-.15.23.14.3.36.23.61-.07.23-.16.45-.26.67-.16.32-.33.64-.52.95-.53.83-.85,1.7-.7,2.72.06.41.05.86-.24,1.2-.14.16-.37.28-.58.32-.08.01-.23-.24-.32-.39-.06-.1-.1-.24-.07-.34.27-.93-.19-1.61-.72-2.3-.36-.47-.7-.98-1-1.49-.14-.25-.19-.56-.24-.85-.04-.26.27-.64.58-.67Z"/><path class="cls-3" d="M78.38,68.66c-.02-.78-.06-1.55-.05-2.33,0-.23.11-.46.21-.67.04-.09.18-.18.28-.19.1,0,.24.08.29.17.1.14.18.32.2.49.16,1.12.32,2.25.46,3.37.09.72.3.91,1.07.83.41-.04.82-.16,1.23-.21.47-.06.92.48.79.95-.1.35-.26.75-.64.8-1,.12-2.02.17-3.02.21-.35.01-.64-.31-.68-.72-.06-.65-.09-1.31-.12-1.97-.01-.24-.01-.48-.02-.72Z"/><path class="cls-3" d="M82.52,91.51c-.97-.22-1.95-.42-2.91-.66-.17-.04-.33-.19-.47-.32-.93-.83-1.54-1.83-1.5-3.11.02-.94-.31-1.77-.69-2.59-.13-.28-.05-.43.2-.58.4-.24.78-.31,1.21-.07.33.19.68.33,1.04.48.05.02.2-.05.2-.1.2-1.54,1.2-2.79,1.52-4.29.03-.13.12-.26.21-.36.13-.15.31-.22.51-.12.47.22.73.62.87,1.09.27.91.5,1.83.72,2.75.14.6.23,1.21.34,1.81,0,.03.06.07.07.07.04-.01.1-.04.11-.08.31-.9,1.03-1.47,1.68-2.11.17-.17.32-.35.48-.53.14-.16.18-.49.51-.31.26.14.43.38.43.69,0,.14-.1.27-.1.41-.01.28-.07.59.02.85.22.61.15,1.22.19,1.84.1,1.63-.75,2.8-1.87,3.82-.42.38-.92.68-1.41.98-.41.25-.85.44-1.36.44ZM79.95,86.87s-.02-.08-.05-.12c-.01-.02-.05-.02-.08-.03.05.04.1.09.14.13,0,.14-.02.29.02.42.14.55.25,1.11.45,1.63.22.57.93.93,1.37.75.77-.31,1.37-.84,1.77-1.56.03-.06-.08-.27-.17-.32-.11-.06-.28-.02-.42-.03-.61-.05-.71-.11-.72-.62-.02-.58-.12-1.13-.33-1.66-.02-.04-.05-.08-.07-.12-.05.05-.13.08-.15.14-.11.36-.19.73-.3,1.09-.08.27-.17.54-.27.8-.09.24-.24.27-.43.12-.25-.21-.5-.42-.76-.63Z"/><path class="cls-4" d="M57.28,31.92c2.55,0,5.09,0,7.64,0,.32,0,.65-.05.94-.16.14-.05.33-.33.29-.45-.45-1.47-.16-2.97-.26-4.46-.03-.39.02-.78,0-1.17-.05-.83-.66-1.65-.28-2.46.36-.77.21-1.53.3-2.3.1-.89.77-1.52,1.68-1.57.75-.04,1.39.08,1.94.69.38.42.93.69,1.39,1.05.83.63,1.69,1.2,2.41,1.97.57.61,1.23,1.14,1.91,1.65,1.04.78,1.89,1.78,2.6,2.89.39.61.69,1.24.65,2-.03.45.02.89.23,1.33.14.27.13.63.13.95,0,1.11,0,2.22-.02,3.33,0,.39-.07.75-.18,1.14-.15.55-.28,1.21-.11,1.72.43,1.28.23,2.57.31,3.86.01.2,0,.39.03.59.04.21.18.34.39.2.34-.23.6-.02.9.08.39.13.62-.05.62-.46.02-1.89.02-3.78.03-5.68,0-.58-.09-1.16.23-1.72.12-.2.1-.5.1-.76.01-1.44.05-2.87,0-4.31-.03-1.14-.45-2.08-1.44-2.79-.73-.53-1.33-1.25-1.98-1.89-1.12-1.1-2.23-2.19-3.34-3.3-.37-.37-.73-.75-1.07-1.14-.45-.51-.25-1.18.4-1.31.32-.06.65-.06.97-.04.18.01.41.09.51.22.85,1.08,2.01,1.8,3.07,2.63.31.24.59.52.87.79.61.59,1.21,1.15,1.92,1.64.79.55,1.44,1.32,2.13,2.01.48.48.37,1.23.72,1.77,0,1.56.62,3.05.41,4.63-.1.76.14,1.56-.29,2.29-.12.2-.04.51-.05.77,0,.39,0,.78-.02,1.17-.05,1.42.08,2.84-.35,4.25-.24.8.11.84.82.92.58.06,1.11-.36,1.68-.09.65-.43,1.39-.28,2.09-.29,2.61-.02,5.22-.01,7.83-.02.75,0,.81-.08.82-.74,0-.59,0-1.17,0-1.76,0-.59-.16-1.25.06-1.74.25-.54-.1-.99.05-1.47.21-.69-.15-1.36-.12-2.06.07-1.82-.03-3.66.02-5.48.02-.81-.23-1.44-.89-1.82-1.43-.82-2.4-2.17-3.74-3.11-1.27-.88-2.37-2.02-3.54-3.05-.29-.26-.54-.56-.79-.87-.06-.08-.06-.27,0-.37.05-.1.2-.18.31-.2.45-.07.87-.04,1.29.25,1.43.99,2.9,1.94,4.35,2.91.16.11.32.23.45.37.99,1.04,2.21,1.8,3.29,2.73.53.45.96,1.03,1.39,1.59.14.19.19.48.2.73.03,1.04.02,2.09.06,3.13.03.77-.14,1.55.28,2.3.14.25.05.64.05.97,0,1.83-.02,3.66,0,5.48,0,.66-.07,1.28-.31,1.89-.01.03.18.21.21.19.8-.43,1.67-.17,2.5-.24.59-.05.73-.14.73-.64,0-3.92,0-7.83-.04-11.75,0-.92-.38-1.76-.8-2.56-.09-.17-.22-.33-.37-.45-2.31-1.77-4.44-3.77-6.93-5.3-.95-.59-1.72-1.39-2.42-2.24-.05-.06,0-.27.07-.36.06-.08.21-.11.33-.14.05-.01.13,0,.18.04,2.41,1.74,4.84,3.45,7.22,5.24.83.62,1.46,1.5,2.29,2.13,1.18.9,1.67,2.05,1.67,3.5,0,2.68.02,5.35.03,8.03,0,.71-.16,1.44.28,2.08-.24.49-.07.97.02,1.47.04.22-.12.49-.22.73-.16.35.03.82-.35,1.07-.54.35-1.05.77-1.75.77-.97,0-1.93-.03-2.88.32-.46.17-1.03.07-1.56.07-3.26,0-6.53,0-9.79.02-.7,0-1.41-.1-2.1.27-.31.17-.77.04-1.16.07-1.42.11-2.84-.09-4.25.35-.77.24-1.69.02-2.53.07-1.03.06-2.09-.2-3.07.31-.16.08-.39.02-.58.03-.81.05-1.61-.53-2.42.01-.91,0-1.83-.01-2.74,0-.85,0-1.7,0-2.54.03-.9.03-1.83-.15-2.68.32-.76-.35-1.48.14-2.24.08-.91-.07-1.83,0-2.74.02-.51.01-1.02-.03-1.53.21-.33.16-.76.13-1.14.13-1.57.02-3.13-.02-4.7.03-1.68.06-3.38-.26-5.03.31-.5-.39-.97.08-1.45.07-.52,0-1.04,0-1.57.03-.64.03-1.3-.11-1.9.29-.14.09-.39.04-.57,0-2.28-.41-2.53-.38-4.95,0-.7.11-1.43.02-2.15.06-.83.05-1.65-.04-2.5.27-.63.24-1.46.22-2.12.04-.98-.27-2.01-.4-2.91-.98-.44-.29-.88-.56-1.19-.98-.54-.73-.99-1.51-1.53-2.23-.93-1.24-1.9-2.46-2.85-3.69-.2-.25-.38-.52-.55-.8-.8-1.34-1.67-2.62-2.79-3.71-.14-.14-.28-.27-.41-.42-.4-.45-.37-.91.08-1.36.2-.2.45-.34.68-.14,1.09.92,2.17,1.85,2.94,3.09.62.98,1.35,1.89,2.03,2.83.02.03.1.04.12.02.04-.04.08-.1.1-.16.02-.06.03-.14,0-.19-.62-2.04-.36-4.13-.32-6.2.04-1.97,1.64-3.59,3.74-3.79.92-.09,1.72-.56,2.64-.52.51-.39,1.11-.31,1.69-.31,1.31,0,2.61,0,3.92,0,1.17,0,2.26.52,3.44.46.8.41,1.71.56,2.49,1.06,1.01.64,1.87,1.39,2.31,2.54.3.78.15,1.4-.54,1.88-.74.51-1.54.92-2.43,1.17-.74.21-1.45.53-2.16.81-.06.02-.09.09-.14.13.06.03.11.08.17.09,1.67.28,3.22,0,4.58-1.06.2-.16.41-.37.64-.41.22-.04.49.07.7.18.05.03,0,.36-.09.51-.54,1.07-1.33,1.88-2.38,2.49-.63.37-1.32.65-1.98.69-1.15.06-2.3.18-3.48-.17-.84-.25-1.79-.09-2.7-.11-.05,0-.1.07-.15.1.04.05.08.12.14.14.71.27,1.19,1.09,2.09.88.82.39,1.67.69,2.38,1.29.46.38.84.38,1.19-.05.67-.83,1.61-1.11,2.55-1.22.66-.08,1.08-.35,1.5-.77.28-.27.57-.53.88-.77.07-.05.26,0,.35.06.09.07.17.22.16.33-.09.97-.59,1.73-1.4,2.21-.77.46-1.59.86-2.48,1.06-.49.11-.96.25-1.45.38.25.41.24.86.28,1.31.06.69-.5,1.03-.73,1.55-.03.08.05.22.11.32.02.04.12.06.17.05.12-.02.26-.03.37-.09.29-.19.61-.22.94-.15,1.71.36,1.7.35,3.2.05.38-.08.77-.06,1.16-.07.46-.02.91-.02,1.37-.03.45-.02.99.08,1.34-.12.44-.24.85.14,1.28-.16.27-.19.75-.08,1.14-.08,2.48-.02,4.96-.04,7.44-.07.51,0,1.03.06,1.53-.22.26-.14.63-.12.95-.13.98-.02,1.96,0,2.94-.04.7-.02,1.42.13,2.1-.28.24-.15.64-.05.96-.05,2.48-.02,4.96-.03,7.44-.04.78,0,1.57-.02,2.35-.03.06,0,.13-.04.17-.09.02-.03,0-.12-.03-.15-.7-.67-1.4-1.35-2.12-2.01-.38-.35-.9-.59-1.17-1.01-.43-.68-1.06-1.11-1.63-1.63-1.21-1.1-2.35-2.25-3.14-3.7-.15-.27-.36-.36-.63-.37-.39,0-.78,0-1.17,0-.52,0-1.04,0-1.57,0-.59,0-1.25.14-1.74-.08-.57-.25-.99.12-1.47.06-.25-.04-.52-.06-.75-.15-.57-.24-1.13-.23-1.7,0-.17.07-.38.16-.55.12-.68-.14-1.35-.57-2.02,0-.72,0-1.43.02-2.15.03-.72,0-1.44,0-2.15,0-.72,0-1.44.02-2.15.03-1.24,0-2.48.01-3.72,0-.25,0-.51-.07-.76-.13-.28-.08-.41-.47-.31-.76.17-.47.44-.77.99-.74.46.02.91.01,1.37,0,.64-.02,1.27.03,1.91-.25.45-.19,1.02-.11,1.54-.12,2.41,0,4.83,0,7.24,0,0,0,0,0,0,0ZM40.46,39.79c-.3.02-.6.04-.9.08-.05,0-.1.07-.15.1.05.03.09.09.14.1.35.06.73.19.89-.31.18-.02.36-.03.54-.06.05,0,.09-.07.14-.11-.04-.04-.08-.1-.13-.11-.27-.06-.46.01-.52.31ZM39.66,29.6c-.04-.16-.01-.41-.3-.2.11.06.22.11.33.17.21.53.55.86,1.17.78.08.07,0,.38.26.18-.09-.05-.19-.1-.28-.16-.18-.58-.59-.82-1.17-.78ZM37.72,28.8c.17.5.56.36.92.31.05,0,.1-.07.14-.1-.05-.04-.1-.1-.15-.11-.31-.04-.61-.06-.92-.08-.13-.12-.25-.32-.39-.34-.71-.07-1.47.03-2.13-.18-.58-.18-1.14-.22-1.72-.23-.72-.01-1.44.04-2.15-.01-1.46-.1-2.85.07-4.1.9-.35.23-.73.22-1.11.31-1.51.35-2.09,1.02-2.07,2.59.02,2.07-.27,4.15.32,6.2.19.66.06,1.43.04,2.14-.02.53.24.89.67,1.09.52.25,1.08.39,1.62.61,1.96.8,3.91,1.66,6.06,1.84.98.55,2.04.29,3.07.28.43,0,.86-.25,1.27-.41.91-.36.81-2.17.1-2.49-1-.44-1.9-1.08-2.99-1.36-.72-.18-1.42-.53-2.08-.96-.96-.62-2.08-1.02-3.29-.95-.58.03-1.17-.02-1.76-.07-.09,0-.21-.15-.24-.25-.03-.1,0-.3.09-.34.88-.55,1.77-1.05,2.88-.98.91.06,1.83,0,2.74.02.46,0,.98-.1,1.35.08,1.01.5,2.05.23,3.08.3.05,0,.12-.13.18-.19-.05-.03-.11-.09-.16-.1-.19-.03-.41,0-.58-.08-.69-.3-.79-.87-.3-1.38.52-.53,1.18-.76,1.87-.98.98-.31,1.95-.65,2.87-1.14.83-.44,1.12-.85.11-1.5-.11-.07-.26-.08-.35-.16-.22-.19-.39-.26-.64-.02-1.06.96-2.29,1.42-3.73,1.33-.71-.04-1.5-.14-2.13.1-.71.27-1.4.23-2.1.27-1.05.07-2-.55-3.05-.45-.63-.32-1.36-.53-1.68-1.25-.1-.22-.18-.57-.07-.74.63-1.04,1.5-1.85,2.77-1.88,1.28-.03,2.6-.25,3.85.32.27.12.64.04.97.04.98,0,1.96.01,2.94.02ZM68.24,27.81h.05c0,1.37,0,2.74,0,4.11,0,.42.13.75.44,1.04.86.78,1.44,1.82,2.42,2.48,1.12,1.62,2.47,3.01,4.11,4.11.16.11.28.27.39.43.14.2.16.55.51.49.48-.08.3-.5.3-.78.01-.91.17-1.88-.08-2.73-.27-.91-.26-1.79-.28-2.69-.03-1.11.03-2.22-.06-3.33-.11-1.35-.38-2.62-1.56-3.59-1.71-1.4-3.28-2.96-4.92-4.44-.24-.21-.53-.36-.81-.52-.32-.19-.29-.14-.52.22-.26.4-.01.72,0,1.08.06,1.37.02,2.74.02,4.11ZM32.2,31.96s0-.05,0-.08c.39,0,.83.12,1.16-.02,1.06-.47,2.16-.33,3.25-.34.8,0,1.49-.36,2.22-.57.13-.04.31-.3.29-.43-.03-.15-.24-.38-.39-.39-.96-.08-1.83-.59-2.83-.52-.84.06-1.69,0-2.53-.02-.32,0-.69.02-.95-.12-.68-.37-1.4-.23-2.1-.24-.98,0-1.74.46-2.26,1.27-.07.11-.03.42.07.5.25.2.54.4.84.46,1.07.2,2.15.34,3.22.5ZM29.62,44.85c.12,0,.44-.03.76-.06.06,0,.11-.06.17-.1-.04-.04-.08-.1-.13-.11-.78-.29-1.56-.57-2.34-.86-.3-.11-.59-.25-.89-.35-.09-.03-.22.07-.34.11.03.06.06.12.1.17.27.28.57.54.83.83.29.32.64.41,1.05.38.19-.01.39,0,.79,0ZM32.04,37.16l-.08.09.15.02-.06-.11Z"/><path class="cls-4" d="M152.33,13.33c-.11.52-.23,1.08-.37,1.63-.02.06-.22.11-.33.09-.11-.02-.27-.12-.28-.21-.05-.45-.02-.91-.1-1.36-.08-.43-.26-.85-.41-1.27-.02-.06-.09-.09-.13-.14-.03.05-.09.1-.1.15-.1.49.11,1.13-.44,1.41-.68.34-1.37.7-2.17.69-.26,0-.52.01-.78.01-.98-.01-1.96-.04-2.93-.04-1.03,0-2-.46-3.07-.38-.97.08-1.96.01-2.93-.04-.37-.02-.74-.18-1.11-.28-.5.47-1.1-.01-1.61.17-.45.16-.88.16-1.33.04-.17-.05-.4-.14-.53-.07-.68.34-1.43.04-2.11.26-.09.03-.17.18-.21.3-.04.12-.02.26-.03.39-.01.45.08.94-.33,1.27-.45.37-.95.66-1.55.72-1.42.13-2.83-.05-4.55-.67-1.24-.45-2.47-.75-3.78-.34-.21.07-1.72-.26-2.02-.39-.24-.11-.47-.21-.7-.33-.71-.39-1.37-.2-2.03.16-.27.15-.3.36-.37.62-.14.52-.64.75-.98.47-.55-.45-1.1-.89-1.37-1.61-.54-1.45-.28-2.83.86-4.08,1.07-1.17,2.31-2.09,4-2.12,1.05-.44,2.15-.36,3.25-.39.43-.01.86-.1,1.29-.15.56-.07,1.12-.16,1.68-.2.58-.04,1.17-.02,1.76-.03.52,0,1.08.1,1.55-.05.53-.17,1.04.11,1.46,0,2.18-.61,4.39-.2,6.59-.3.7-.03,1.44-.15,2.09.28.1.06.26.07.38.05,1.45-.2,2.8.5,4.23.44,1.05.57,2.31.15,3.38.71.26.14.64.05.97.06.39,0,.75.09,1.12.27.52.25,1.08.4,1.63.59.98.34,1.68.97,2,1.97.17.55.27,1.12.41,1.69ZM115.65,12.34c.25-.01.37-.15.39-.39.1-.07.45.04.2-.28-.06.1-.12.21-.18.31-.24.02-.37.15-.39.39-.08.08-.4,0-.17.28.05-.1.1-.2.15-.3ZM116.43,13.51c.46,0,.91,0,1.37-.02.67-.03,1.3.03,1.78.59.08.09.21.14.33.2.58.31,1.11.44,1.83.17.82-.32,1.76-.35,2.64.09,1.6.8,3.31,1.04,5.08.93.53-.03.68-.15.69-.7,0-.52-.12-1.1.39-1.43.48-.31.98-.64,1.6-.62.2,0,.39-.01.59-.01,2.8,0,5.61.02,8.41.03.32,0,.7-.05.95.1.62.35,1.27.22,1.91.25.78.04,1.61-.1,2.33.14.69.23,1.22.24,1.85-.06.28-.13.64-.08.95-.15.08-.02.16-.19.16-.29,0-.1-.1-.27-.18-.29-.81-.18-1.58-.57-2.45-.47-.32.04-.71.08-.96-.07-.68-.4-1.39-.25-2.1-.3-.64-.05-1.31.08-1.89-.32-1.36-.05-2.64-.61-4.03-.5-.51.04-1.06.01-1.53-.15-.45-.16-.88-.21-1.33-.19-1.81.08-3.62-.18-5.42.3-.79.21-1.69.13-2.53.06-.93-.08-1.78.3-2.67.37-.71.06-1.44.11-2.15.02-.82-.11-1.5.41-2.28.39-1.49-.03-2.6.64-3.31,1.95-.08.07-.4-.03-.19.26.05-.09.11-.19.16-.28ZM132.23,9.59h0c1.5-.01,3,0,4.5-.01.19,0,.38-.02.57-.05.06,0,.11-.07.16-.11-.05-.03-.11-.1-.16-.1-.58-.03-1.17-.06-1.75-.08-.52-.02-1.12.13-1.55-.08-.76-.37-1.53-.29-2.3-.28-1.68.02-3.38-.23-5.02.35-1.39-.21-2.67.47-4.04.46-.05,0-.11.07-.16.1.07.07.14.19.21.19,1.17,0,2.35-.01,3.52-.02,1.04-.54,2.17-.31,3.26-.35.91-.04,1.83,0,2.74,0ZM142.07,10.36c.19,0,.38.02.57,0,.11-.02.22-.1.33-.15-.11-.05-.22-.13-.34-.14-.38-.02-.76-.02-1.14-.02-.05,0-.11.06-.16.1.06.06.11.17.18.18.19.03.38.03.57.03ZM144.5,10.74c.26,0,.39.02.51,0,.11-.02.21-.09.31-.14-.11-.05-.23-.13-.34-.14-.25-.02-.51-.02-.77,0-.06,0-.11.06-.16.1.06.06.12.16.2.18.12.04.25.02.25.02ZM139.58,9.95c.12,0,.25.02.37,0,.08-.02.15-.12.22-.18-.05-.03-.11-.09-.16-.1-.13-.02-.26-.03-.38,0-.12.02-.23.08-.34.12.1.05.19.11.29.16ZM121.04,10.05c-.08,0-.14-.01-.2,0-.11.03-.23.08-.34.12.09.05.18.11.27.15.05.02.13.03.18,0,.14-.05.28-.12.41-.19-.11-.03-.23-.07-.33-.1ZM117,11.44l.07-.1-.13-.02.05.12Z"/><path class="cls-4" d="M88.68,30.77c0,.52,0,1.04,0,1.57-.01.63-.39.91-1.04.79-.69-.14-1.2-.54-1.36-1.23-.17-.75-.51-1.47-.41-2.27.04-.32,0-.65-.02-.98-.04-.54-.3-.99-.68-1.35-1.04-.98-2.11-1.93-3.15-2.91-.38-.36-.77-.72-1.05-1.15-.62-.94-1.32-1.75-2.29-2.35-.4-.24-.34-.87.05-1.18.57-.44,1.27-.45,1.78-.04,2.56,2.02,4.77,4.42,7.1,6.69.7.68.88,1.57.99,2.46.08.64.02,1.3.02,1.95h.06Z"/><path class="cls-4" d="M91.98,29.93c.4-.79-.33-1.37-.32-2.07-.76-.62-.98-1.68-1.88-2.2-.67-.39-1.14-1.01-1.63-1.63-.8-1.02-1.77-1.91-2.65-2.86-.26-.28-.52-.58-.74-.9-.22-.32.09-.84.48-.87.4-.03.76,0,1.1.27,1.23.96,2.44,1.94,3.51,3.08.99,1.04,1.99,2.07,3.05,3.04.59.54.9,1.26,1.38,1.87.15.19.2.48.22.72.04.65.02,1.3.05,1.96.02.39-.02.82.15,1.14.34.65-.06.98-.45,1.31-.44.38-1.2.47-1.63.16-.2-.14-.42-.38-.45-.6-.11-.81-.14-1.64-.19-2.43Z"/></g></svg>